<svg xmlns="http://www.w3.org/2000/svg" xmlns:xlink="http://www.w3.org/1999/xlink" viewBox="0 0 1581.56 575.09"><defs><style>.a{opacity:0.3;}.b{fill:url(#a);}.c{fill:url(#b);}.d{fill:url(#c);}.e{fill:url(#d);}.f{fill:url(#e);}.g{fill:url(#f);}.h{fill:url(#g);}.i{fill:url(#h);}.j{fill:url(#i);}.k{fill:url(#j);}.l{fill:url(#k);}.m{fill:url(#l);}.n{fill:url(#m);}.o{fill:url(#n);}.p{fill:url(#o);}.q{fill:url(#p);}.r{fill:url(#q);}.s{fill:url(#r);}.t{fill:url(#s);}.u{fill:url(#t);}.v{fill:url(#u);}.w{fill:url(#v);}.x{fill:url(#w);}.y{fill:url(#x);}.z{fill:url(#y);}.aa{fill:url(#z);}.ab{fill:url(#aa);}.ac{fill:url(#ab);}.ad{fill:url(#ac);}.ae{fill:url(#ad);}.af{fill:url(#ae);}.ag{fill:url(#af);}.ah{fill:url(#ag);}.ai{fill:url(#ah);}.aj{fill:url(#ai);}.ak{fill:url(#aj);}.al{fill:url(#ak);}.am{fill:url(#al);}.an{fill:url(#am);}.ao{fill:url(#an);}.ap{fill:url(#ao);}.aq{fill:url(#ap);}.ar{fill:url(#aq);}.as{fill:url(#ar);}.at{fill:url(#as);}.au{fill:url(#at);}.av{fill:url(#au);}.aw{fill:url(#av);}.ax{fill:url(#aw);}.ay{fill:url(#ax);}</style><linearGradient id="a" x1="0.4" y1="704.65" x2="846.13" y2="704.65" gradientTransform="matrix(1, 0, 0, -1, 0, 871.59)" gradientUnits="userSpaceOnUse"><stop offset="0" stop-color="#3600ec"/><stop offset="1" stop-color="#7c1dc6"/></linearGradient><linearGradient id="b" x1="842.88" y1="746.66" x2="862.86" y2="746.66" xlink:href="#a"/><linearGradient id="c" x1="842.88" y1="784.7" x2="862.86" y2="784.7" xlink:href="#a"/><linearGradient id="d" x1="842.88" y1="822.75" x2="862.86" y2="822.75" xlink:href="#a"/><linearGradient id="e" x1="842.88" y1="860.79" x2="862.86" y2="860.79" xlink:href="#a"/><linearGradient id="f" x1="607.94" y1="834.55" x2="627.93" y2="834.55" xlink:href="#a"/><linearGradient id="g" x1="612.57" y1="795.5" x2="632.55" y2="795.5" xlink:href="#a"/><linearGradient id="h" x1="638.6" y1="568.29" x2="658.58" y2="568.29" xlink:href="#a"/><linearGradient id="i" x1="761.54" y1="483.08" x2="781.52" y2="483.08" xlink:href="#a"/><linearGradient id="j" x1="866.66" y1="459.8" x2="886.64" y2="459.8" xlink:href="#a"/><linearGradient id="k" x1="960.94" y1="335.58" x2="980.92" y2="335.58" xlink:href="#a"/><linearGradient id="l" x1="530.14" y1="417.3" x2="550.12" y2="417.3" xlink:href="#a"/><linearGradient id="m" x1="991.61" y1="538.71" x2="1011.6" y2="538.71" xlink:href="#a"/><linearGradient id="n" x1="931.77" y1="592.27" x2="951.76" y2="592.27" xlink:href="#a"/><linearGradient id="o" x1="960.94" y1="626.48" x2="980.92" y2="626.48" xlink:href="#a"/><linearGradient id="p" x1="1217.51" y1="745.12" x2="1237.49" y2="745.12" xlink:href="#a"/><linearGradient id="q" x1="1217.51" y1="811.95" x2="1237.49" y2="811.95" xlink:href="#a"/><linearGradient id="r" x1="1287.23" y1="624.33" x2="1307.21" y2="624.33" xlink:href="#a"/><linearGradient id="s" x1="1287.23" y1="659.16" x2="1307.21" y2="659.16" xlink:href="#a"/><linearGradient id="t" x1="1214.37" y1="592.27" x2="1234.35" y2="592.27" xlink:href="#a"/><linearGradient id="u" x1="1561.57" y1="510.93" x2="1581.56" y2="510.93" xlink:href="#a"/><linearGradient id="v" x1="1350.32" y1="336.89" x2="1370.31" y2="336.89" xlink:href="#a"/><linearGradient id="w" x1="1246.67" y1="307.3" x2="1266.66" y2="307.3" xlink:href="#a"/><linearGradient id="x" x1="1040.07" y1="435.81" x2="1060.05" y2="435.81" xlink:href="#a"/><linearGradient id="y" x1="1040.07" y1="400.15" x2="1060.05" y2="400.15" xlink:href="#a"/><linearGradient id="z" x1="1040.07" y1="364.49" x2="1060.05" y2="364.49" xlink:href="#a"/><linearGradient id="aa" x1="679.66" y1="795.5" x2="699.64" y2="795.5" xlink:href="#a"/><linearGradient id="ab" x1="679.66" y1="736.26" x2="699.64" y2="736.26" xlink:href="#a"/><linearGradient id="ac" x1="630.69" y1="662.92" x2="648.59" y2="662.92" xlink:href="#a"/><linearGradient id="ad" x1="0" y1="612.43" x2="970.93" y2="612.43" xlink:href="#a"/><linearGradient id="ae" x1="0.79" y1="544.69" x2="770.14" y2="544.69" xlink:href="#a"/><linearGradient id="af" x1="808.25" y1="545.47" x2="1168.94" y2="545.47" xlink:href="#a"/><linearGradient id="ag" x1="926.77" y1="686" x2="1227.5" y2="686" xlink:href="#a"/><linearGradient id="ah" x1="0.79" y1="746.21" x2="682.76" y2="746.21" xlink:href="#a"/><linearGradient id="ai" x1="555.4" y1="429.13" x2="970.93" y2="429.13" xlink:href="#a"/><linearGradient id="aj" x1="434.7" y1="568.29" x2="648.59" y2="568.29" xlink:href="#a"/><linearGradient id="ak" x1="855.19" y1="538.71" x2="1001.6" y2="538.71" xlink:href="#a"/><linearGradient id="al" x1="1110.83" y1="658.95" x2="1297.22" y2="658.95" xlink:href="#a"/><linearGradient id="am" x1="941.76" y1="551.6" x2="1571.57" y2="551.6" xlink:href="#a"/><linearGradient id="an" x1="1224.36" y1="551.87" x2="1345.58" y2="551.87" xlink:href="#a"/><linearGradient id="ao" x1="1050.06" y1="456.56" x2="1474.89" y2="456.56" xlink:href="#a"/><linearGradient id="ap" x1="0" y1="498.14" x2="541.4" y2="498.14" xlink:href="#a"/><linearGradient id="aq" x1="0.4" y1="779.37" x2="612.57" y2="779.37" xlink:href="#a"/><linearGradient id="ar" x1="416.65" y1="770.88" x2="615.47" y2="770.88" xlink:href="#a"/><linearGradient id="as" x1="648.59" y1="439.58" x2="876.65" y2="439.58" xlink:href="#a"/><linearGradient id="at" x1="1060.05" y1="368.52" x2="1362.84" y2="368.52" xlink:href="#a"/><linearGradient id="au" x1="1060.05" y1="336.32" x2="1252.85" y2="336.32" xlink:href="#a"/><linearGradient id="av" x1="689.65" y1="760.48" x2="842.88" y2="760.48" xlink:href="#a"/><linearGradient id="aw" x1="855.19" y1="795.79" x2="1230.73" y2="795.79" xlink:href="#a"/><linearGradient id="ax" x1="855.19" y1="835.04" x2="1230.73" y2="835.04" xlink:href="#a"/></defs><g class="a"><polygon class="b" points="844.27 124.57 846.13 126.29 769.29 209.31 0.4 209.31 0.4 206.78 768.19 206.78 844.27 124.57"/><rect class="c" x="842.88" y="114.13" width="19.99" height="21.6"/><rect class="d" x="842.88" y="76.09" width="19.99" height="21.6"/><rect class="e" x="842.88" y="38.04" width="19.99" height="21.6"/><rect class="f" x="842.88" width="19.99" height="21.6"/><rect class="g" x="607.94" y="26.24" width="19.99" height="21.6"/><rect class="h" x="612.57" y="65.29" width="19.99" height="21.6"/><rect class="i" x="638.6" y="292.5" width="19.99" height="21.6"/><rect class="j" x="761.54" y="377.71" width="19.99" height="21.59"/><rect class="k" x="866.66" y="400.99" width="19.99" height="21.6"/><rect class="l" x="960.94" y="525.21" width="19.99" height="21.6"/><rect class="m" x="530.14" y="443.49" width="19.99" height="21.6"/><rect class="n" x="991.61" y="322.08" width="19.99" height="21.6"/><rect class="o" x="931.77" y="268.52" width="19.99" height="21.6"/><rect class="p" x="960.94" y="234.31" width="19.99" height="21.6"/><rect class="q" x="1217.51" y="115.67" width="19.99" height="21.6"/><rect class="r" x="1217.51" y="48.84" width="19.99" height="21.6"/><rect class="s" x="1287.23" y="236.46" width="19.99" height="21.6"/><rect class="t" x="1287.23" y="201.63" width="19.99" height="21.59"/><rect class="u" x="1214.37" y="268.52" width="19.99" height="21.6"/><rect class="v" x="1561.57" y="349.86" width="19.99" height="21.6"/><rect class="w" x="1350.32" y="523.9" width="19.99" height="21.6"/><rect class="x" x="1246.67" y="553.49" width="19.99" height="21.6"/><rect class="y" x="1040.07" y="424.98" width="19.99" height="21.6"/><rect class="z" x="1040.07" y="460.64" width="19.99" height="21.6"/><rect class="aa" x="1040.07" y="496.3" width="19.99" height="21.6"/><rect class="ab" x="679.66" y="65.29" width="19.99" height="21.6"/><rect class="ac" x="679.66" y="124.53" width="19.99" height="21.6"/><rect class="ad" x="630.69" y="199" width="17.89" height="19.34"/><polygon class="ae" points="0 233.89 665.11 233.89 709.53 281.89 832.79 281.89 868.01 243.84 970.93 243.84 970.93 246.37 869.12 246.37 833.9 284.42 708.42 284.42 664 236.43 0 236.43 0 233.89"/><polygon class="af" points="0.79 264.03 400.08 264.03 477.09 347.23 615.91 347.23 652.94 387.24 770.13 387.24 770.13 389.77 651.83 389.77 614.8 349.76 475.98 349.76 398.97 266.56 0.79 266.56 0.79 264.03"/><polygon class="ag" points="810.11 282.3 888.88 367.41 1048.46 367.41 1080 333.33 1168.94 333.33 1168.94 335.86 1081.11 335.86 1049.57 369.94 887.77 369.94 808.25 284.02 810.11 282.3"/><polygon class="ah" points="1194.21 125.21 1227.5 125.21 1227.5 127.74 1195.32 127.74 1148 178.87 990.73 178.87 928.63 245.97 926.77 244.25 989.62 176.34 1146.89 176.34 1194.21 125.21"/><polygon class="ai" points="680.9 74.08 682.76 75.8 589.42 176.66 0.79 176.66 0.79 174.13 588.31 174.13 680.9 74.08"/><polygon class="aj" points="557.26 347.63 694.77 496.21 872.59 496.21 908.25 534.74 970.93 534.74 970.93 537.27 907.14 537.27 871.49 498.74 693.66 498.74 693.29 498.34 555.4 349.36 557.26 347.63"/><rect class="ak" x="434.7" y="302.03" width="213.89" height="2.53"/><rect class="al" x="855.19" y="331.61" width="146.41" height="2.53"/><polygon class="am" points="1112.69 176.75 1176.78 245.99 1297.22 245.99 1297.22 248.52 1175.67 248.52 1110.83 178.47 1112.69 176.75"/><polygon class="an" points="941.76 278.05 993.79 278.05 1018.54 304.79 1142.37 304.79 1192.9 359.39 1571.57 359.39 1571.57 361.92 1191.79 361.92 1141.26 307.32 1017.44 307.32 992.68 280.58 941.76 280.58 941.76 278.05"/><polygon class="ao" points="1224.36 277.92 1269.8 277.92 1345.58 359.8 1343.72 361.52 1268.69 280.45 1224.36 280.45 1224.36 277.92"/><polygon class="ap" points="1473.03 359.8 1474.89 361.52 1374.26 470.25 1119.32 470.25 1089.09 437.58 1050.06 437.58 1050.06 435.05 1090.19 435.05 1120.43 467.72 1373.15 467.72 1473.03 359.8"/><polygon class="aq" points="0 294.66 377.47 294.66 475.54 400.63 541.4 400.63 541.4 452.24 538.87 452.24 538.87 403.16 474.43 403.16 376.36 297.19 0 297.19 0 294.66"/><polygon class="ar" points="582.98 38.4 612.57 38.4 612.57 40.94 584.09 40.94 548.51 79.38 460.54 79.38 398.85 146.03 0.4 146.03 0.4 143.5 397.74 143.5 459.43 76.84 547.4 76.84 582.98 38.4"/><polygon class="as" points="613.61 75.22 615.47 76.95 569.9 126.19 416.65 126.19 416.65 123.66 568.79 123.66 613.61 75.22"/><polygon class="at" points="846.07 410.52 876.65 410.52 876.65 413.05 847.17 413.05 809.73 453.51 648.59 453.51 648.59 450.97 808.62 450.97 846.07 410.52"/><polygon class="au" points="1060.05 470.17 1088.15 470.17 1114.53 498.68 1287.78 498.68 1319.94 533.43 1362.84 533.43 1362.84 535.96 1318.83 535.96 1286.67 501.21 1113.42 501.21 1087.04 472.7 1060.05 472.7 1060.05 470.17"/><polygon class="av" points="1060.05 505.83 1081.64 505.83 1109.75 536.2 1228.05 536.2 1252.85 562.99 1250.99 564.72 1226.94 538.73 1108.64 538.73 1080.53 508.36 1060.05 508.36 1060.05 505.83"/><polygon class="aw" points="766.6 85.62 842.88 85.62 842.88 88.15 767.71 88.15 722.87 136.59 689.65 136.59 689.65 134.06 721.77 134.06 766.6 85.62"/><polygon class="ax" points="855.19 47.57 910.13 47.57 960.03 101.49 1134.91 101.49 1175.13 58.04 1230.73 58.04 1230.73 60.57 1176.24 60.57 1136.02 104.03 958.92 104.03 909.02 50.11 855.19 50.11 855.19 47.57"/><polygon class="ay" points="1158.01 7.37 1230.73 7.37 1230.73 9.9 1159.12 9.9 1107.44 65.73 980.89 65.73 931.22 12.06 855.19 12.06 855.19 9.53 932.32 9.53 982 63.2 1106.33 63.2 1158.01 7.37"/></g></svg>