<svg xmlns="http://www.w3.org/2000/svg" viewBox="0 0 67 67"><defs><style>.a{fill:aqua;}</style></defs><path class="a" d="M41.83,18.29a8.33,8.33,0,1,0-8.33,8.33A8.32,8.32,0,0,0,41.83,18.29Zm-14.69,0a6.36,6.36,0,1,1,6.36,6.36A6.36,6.36,0,0,1,27.14,18.29Z"/><path class="a" d="M66.93,65.66l-8-21.08A1,1,0,0,0,58,44H42.76c.09-.15.18-.3.28-.45,5.85-9.7,8.8-18.18,8.75-25.2a18.3,18.3,0,0,0-36.59,0c0,7,2.91,15.52,8.76,25.21.1.15.19.3.28.45H9a1,1,0,0,0-.93.63l-8,21.08a1,1,0,0,0,.56,1.27A.92.92,0,0,0,1,67H66a1,1,0,0,0,1-1,.92.92,0,0,0-.07-.36ZM17.18,18.29a16.32,16.32,0,1,1,32.64,0h0c.09,14-13,31.29-16.32,35.43-3.31-4.14-16.41-21.41-16.32-35.44ZM32.75,55.93a1,1,0,0,0,1.39.11l.11-.11a103.35,103.35,0,0,0,7.27-10H57.29l1.27,3.31-30.83,11-11-14.27h8.73a103.35,103.35,0,0,0,7.27,10ZM27.7,62.3h0l18.38-6.54L53.22,65H20Zm-18-16.38h4.55l11.52,15L14.15,65H2.42ZM55.72,65l-7.67-10,11.21-4,5.32,14Z"/></svg>