<svg xmlns="http://www.w3.org/2000/svg" viewBox="0 0 67 67"><defs><style>.a{fill:aqua;}</style></defs><path class="a" d="M61.42,6.7H55.83V4.47a4.47,4.47,0,1,0-8.93,0V6.7H38V4.47a4.47,4.47,0,0,0-8.94,0V6.7H20.1V4.47a4.47,4.47,0,1,0-8.93,0V6.7H5.58A5.58,5.58,0,0,0,0,12.28V57a5.58,5.58,0,0,0,5.58,5.58H36.85a1.12,1.12,0,1,0,0-2.23H5.58A3.37,3.37,0,0,1,2.23,57V22.33H64.77v19a1.12,1.12,0,0,0,2.23,0v-29A5.58,5.58,0,0,0,61.42,6.7ZM49.13,4.47a2.24,2.24,0,1,1,4.47,0v6.7a2.24,2.24,0,0,1-4.47,0Zm-17.86,0a2.23,2.23,0,1,1,4.46,0v6.7a2.23,2.23,0,1,1-4.46,0Zm-17.87,0a2.24,2.24,0,1,1,4.47,0v6.7a2.24,2.24,0,0,1-4.47,0ZM64.77,20.1H2.23V12.28A3.38,3.38,0,0,1,5.58,8.93h5.59v2.24a4.47,4.47,0,0,0,8.93,0V8.93H29v2.24a4.47,4.47,0,0,0,8.94,0V8.93H46.9v2.24a4.47,4.47,0,0,0,8.93,0V8.93h5.59a3.38,3.38,0,0,1,3.35,3.35Z"/><path class="a" d="M31.27,30.15A2.23,2.23,0,0,0,29,27.92H24.57a2.23,2.23,0,0,0-2.24,2.23V33.5a2.23,2.23,0,0,0,2.24,2.23H29a2.23,2.23,0,0,0,2.24-2.23Zm-6.7,3.35V30.15H29V33.5Z"/><path class="a" d="M17.87,30.15a2.23,2.23,0,0,0-2.24-2.23H11.17a2.23,2.23,0,0,0-2.24,2.23V33.5a2.23,2.23,0,0,0,2.24,2.23h4.46a2.23,2.23,0,0,0,2.24-2.23Zm-6.7,3.35V30.15h4.46V33.5Z"/><path class="a" d="M55.83,35.73a2.23,2.23,0,0,0,2.24-2.23V30.15a2.23,2.23,0,0,0-2.24-2.23H51.37a2.23,2.23,0,0,0-2.24,2.23V33.5a2.23,2.23,0,0,0,2.24,2.23Zm-4.46-5.58h4.46V33.5H51.37Z"/><path class="a" d="M31.27,40.2A2.23,2.23,0,0,0,29,38H24.57a2.23,2.23,0,0,0-2.24,2.23v3.35a2.23,2.23,0,0,0,2.24,2.23H29a2.23,2.23,0,0,0,2.24-2.23Zm-6.7,3.35V40.2H29v3.35Z"/><path class="a" d="M17.87,40.2A2.23,2.23,0,0,0,15.63,38H11.17A2.23,2.23,0,0,0,8.93,40.2v3.35a2.23,2.23,0,0,0,2.24,2.23h4.46a2.23,2.23,0,0,0,2.24-2.23Zm-6.7,3.35V40.2h4.46v3.35Z"/><path class="a" d="M29,48H24.57a2.23,2.23,0,0,0-2.24,2.23V53.6a2.23,2.23,0,0,0,2.24,2.23H29a2.23,2.23,0,0,0,2.24-2.23V50.25A2.23,2.23,0,0,0,29,48ZM24.57,53.6V50.25H29V53.6Z"/><path class="a" d="M38,35.73h4.46a2.23,2.23,0,0,0,2.24-2.23V30.15a2.23,2.23,0,0,0-2.24-2.23H38a2.23,2.23,0,0,0-2.24,2.23V33.5A2.23,2.23,0,0,0,38,35.73Zm0-5.58h4.46V33.5H38Z"/><path class="a" d="M35.73,43.55A2.23,2.23,0,0,0,38,45.78a1.12,1.12,0,0,0,0-2.23V40.2h4.46a1.12,1.12,0,1,0,0-2.23H38a2.23,2.23,0,0,0-2.24,2.23Z"/><path class="a" d="M15.63,48H11.17a2.23,2.23,0,0,0-2.24,2.23V53.6a2.23,2.23,0,0,0,2.24,2.23h4.46a2.23,2.23,0,0,0,2.24-2.23V50.25A2.23,2.23,0,0,0,15.63,48ZM11.17,53.6V50.25h4.46V53.6Z"/><path class="a" d="M52.48,38A14.52,14.52,0,1,0,67,52.48,14.51,14.51,0,0,0,52.48,38Zm0,26.8A12.29,12.29,0,1,1,64.77,52.48,12.28,12.28,0,0,1,52.48,64.77Z"/><path class="a" d="M58.94,47.8l-8.69,8.69-4-4a1.11,1.11,0,0,0-1.58,0,1.13,1.13,0,0,0,0,1.55l4.74,4.74a1.13,1.13,0,0,0,1.58,0l9.47-9.48a1.11,1.11,0,0,0-1.57-1.58Z"/></svg>