<svg xmlns="http://www.w3.org/2000/svg" viewBox="0 0 112.43 116.31"><defs><style>.a{fill:aqua;}</style></defs><path class="a" d="M111,77.21l-6.08-1.52a26,26,0,0,0-2-4.85l3.23-5.38a1.92,1.92,0,0,0-.29-2.36l-6-6.06a1.94,1.94,0,0,0-2.37-.29L92,60c-.69-.37-1.41-.72-2.14-1a25.91,25.91,0,0,0-2.72-1l-1.52-6.08a1.93,1.93,0,0,0-1.88-1.47H75.21a1.93,1.93,0,0,0-1.88,1.47L71.81,58A26.67,26.67,0,0,0,67,60l-5.37-3.22a1.94,1.94,0,0,0-2.37.29l-6.06,6.05a1.94,1.94,0,0,0-.29,2.37l3.23,5.37a26,26,0,0,0-2,4.85L48,77.2a2,2,0,0,0-1.47,1.88v8.56A2,2,0,0,0,48,89.52L54.08,91a26,26,0,0,0,2,4.85l-3.23,5.37a1.94,1.94,0,0,0,.29,2.37l6.05,6.05a1.94,1.94,0,0,0,2.37.29L67,106.75a26.67,26.67,0,0,0,4.85,2l1.52,6.08a2,2,0,0,0,1.88,1.47h8.56a1.94,1.94,0,0,0,1.88-1.47l1.52-6.08a26.67,26.67,0,0,0,4.85-2L97.39,110a1.92,1.92,0,0,0,2.36-.29l6-6.05a2,2,0,0,0,.3-2.37l-3.23-5.37a26,26,0,0,0,2-4.85L111,89.52a1.93,1.93,0,0,0,1.47-1.88V79.09A1.92,1.92,0,0,0,111,77.21Zm-2.41,8.92-5.7,1.43a1.94,1.94,0,0,0-1.42,1.4,22.35,22.35,0,0,1-2.47,6,1.92,1.92,0,0,0,0,2l3,5-3.9,3.92-5-3a1.92,1.92,0,0,0-2,0,22.64,22.64,0,0,1-6,2.48,1.92,1.92,0,0,0-1.41,1.41l-1.44,5.7H76.72l-1.42-5.71a1.94,1.94,0,0,0-1.41-1.41,22.31,22.31,0,0,1-6-2.48,2,2,0,0,0-2,0l-5,3L57,102l3-5a1.92,1.92,0,0,0,0-2,22.37,22.37,0,0,1-2.48-6,1.93,1.93,0,0,0-1.41-1.4l-5.7-1.44V80.6l5.7-1.42a2,2,0,0,0,1.42-1.41,22.28,22.28,0,0,1,2.47-6,1.92,1.92,0,0,0,0-2l-3-5,3.91-3.92,5,3a2,2,0,0,0,2,0,22.31,22.31,0,0,1,6-2.48A2,2,0,0,0,75.29,60l1.43-5.7h5.53L83.68,60a1.93,1.93,0,0,0,1.4,1.41,22.24,22.24,0,0,1,6,2.48,1.92,1.92,0,0,0,2,0l5-3L102,64.76l-3,5a1.9,1.9,0,0,0,0,2,22.84,22.84,0,0,1,2.48,6,1.93,1.93,0,0,0,1.41,1.4l5.7,1.44Z"/><path class="a" d="M79.49,67.86A15.51,15.51,0,1,0,95,83.37,15.5,15.5,0,0,0,79.49,67.86Zm0,27.14A11.64,11.64,0,1,1,91.12,83.37,11.63,11.63,0,0,1,79.49,95Z"/><rect class="a" x="89.18" y="23.27" width="3.88" height="31.02" rx="1.94"/><path class="a" d="M7.75,98.88v7.75a1.94,1.94,0,0,0,1.94,1.94H48.47a1.94,1.94,0,0,0,1.94-1.94h0a1.94,1.94,0,0,0-1.94-1.94H11.63V98.88H34.9a2,2,0,0,0,.86-.2l7.76-3.87a1.94,1.94,0,0,0,0-3.47l-7.76-3.88a2,2,0,0,0-.86-.22H11.63V21.33H85.31a7.76,7.76,0,0,0,7.75-7.76V9.69a1.93,1.93,0,0,0-1.94-1.93H87.25a1.93,1.93,0,0,0-1.94,1.93h0a1.94,1.94,0,0,0,1.94,1.94h1.93v1.83a3.94,3.94,0,0,1-3.69,4,3.87,3.87,0,0,1-4.06-3.87V7.76a3.88,3.88,0,0,1,3.88-3.88h7.75a3.88,3.88,0,0,1,3.88,3.88V50.41a1.94,1.94,0,0,0,1.94,1.94h0a1.94,1.94,0,0,0,1.94-1.94V7.76A7.76,7.76,0,0,0,93.06,0H7.76A7.75,7.75,0,0,0,0,7.76v5.81a7.76,7.76,0,0,0,7.75,7.76V87.24H6A5.93,5.93,0,0,0,0,93.17a5.82,5.82,0,0,0,5.82,5.71ZM3.88,13.57V7.76A3.87,3.87,0,0,1,7.75,3.88H78.63a7.66,7.66,0,0,0-1.08,3.88v5.81a7.69,7.69,0,0,0,1.08,3.88H7.75a3.88,3.88,0,0,1-3.87-3.88ZM38.32,93.06,34.44,95H33V91.12h1.48Zm-34.44,0a1.94,1.94,0,0,1,1.94-1.94H29.08V95H5.82a1.94,1.94,0,0,1-1.94-1.94Z"/><rect class="a" y="29.08" width="3.88" height="38.78" rx="1.94"/><path class="a" d="M75.61,29.08h0a1.94,1.94,0,0,0-1.94-1.94H50.41a1.94,1.94,0,0,0-1.37.57L45.5,31.25a21.26,21.26,0,0,0-27.62,2.14,1.93,1.93,0,0,0,0,2.74L31.59,49.84a1.94,1.94,0,0,0,1.37.57H52.35a1.94,1.94,0,0,0,1.94-1.94,21.28,21.28,0,0,0-5.87-14.65L51.21,31H73.67A1.94,1.94,0,0,0,75.61,29.08ZM50.3,46.53H33.76L22.07,34.84A17.39,17.39,0,0,1,42.72,34L38.78,38a1.93,1.93,0,0,0,0,2.74h0a1.93,1.93,0,0,0,2.74,0l4.16-4.16a17.38,17.38,0,0,1,4.62,10Z"/><rect class="a" x="79.49" y="27.14" width="3.88" height="3.88" rx="1.94"/><rect class="a" x="21.33" y="56.22" width="3.88" height="3.88" rx="1.94"/><rect class="a" x="29.08" y="56.22" width="19.39" height="3.88" rx="1.94"/><rect class="a" x="17.45" y="63.98" width="31.02" height="3.88" rx="1.94"/><rect class="a" x="60.1" y="34.9" width="3.88" height="3.88" rx="1.94"/><rect class="a" x="67.86" y="34.9" width="15.51" height="3.88" rx="1.94"/><rect class="a" x="60.1" y="42.65" width="23.27" height="3.88" rx="1.94"/><rect class="a" x="17.45" y="71.73" width="25.2" height="3.88" rx="1.94"/></svg>