<svg xmlns="http://www.w3.org/2000/svg" viewBox="0 0 133.47 96.19"><defs><style>.a{fill:aqua;}</style></defs><path class="a" d="M123.69,0h-6.84a2,2,0,1,0,0,3.91h6.84a5.87,5.87,0,0,1,5.87,5.87v9H3.91v-9A5.87,5.87,0,0,1,9.78,3.91h98.48a2,2,0,1,0,0-3.91H9.78A9.79,9.79,0,0,0,0,9.78V31.33a2,2,0,0,0,3.91,0V22.68H129.56V73.09a2,2,0,0,0,3.91,0V9.78A9.79,9.79,0,0,0,123.69,0Z"/><path class="a" d="M131.51,79.38a2,2,0,0,0-1.95,2v5.09a5.87,5.87,0,0,1-5.87,5.86H9.78a5.87,5.87,0,0,1-5.87-5.86V39.72a2,2,0,1,0-3.91,0v46.7a9.79,9.79,0,0,0,9.78,9.77H123.69a9.79,9.79,0,0,0,9.78-9.77V81.33A2,2,0,0,0,131.51,79.38Z"/><path class="a" d="M28.28,42.48a2,2,0,0,0-2.77,0L13.77,54.23a1.93,1.93,0,0,0,0,2.76l11.59,11.6a2,2,0,1,0,2.76-2.77L17.91,55.61,28.28,45.25a2,2,0,0,0,0-2.77Z"/><path class="a" d="M54.57,68.59a2,2,0,0,0,1.38.57,2,2,0,0,0,1.39-.57L68.93,57a2,2,0,0,0,0-2.76L57.18,42.48a2,2,0,1,0-2.76,2.76L64.78,55.61,54.57,65.82a2,2,0,0,0,0,2.77Z"/><path class="a" d="M34.41,75.79a2,2,0,0,0,1.83-1.26l13.89-36.6a2,2,0,0,0-3.66-1.39L32.58,73.14a2,2,0,0,0,1.13,2.52,1.93,1.93,0,0,0,.7.13Z"/><path class="a" d="M8.6,11.44a5.87,5.87,0,1,0,5.87-5.87A5.88,5.88,0,0,0,8.6,11.44Zm7.82,0a2,2,0,1,1-2-2A2,2,0,0,1,16.42,11.44Z"/><path class="a" d="M23.77,11.44a5.87,5.87,0,1,0,5.86-5.87A5.87,5.87,0,0,0,23.77,11.44Zm7.82,0a2,2,0,1,1-2-2A2,2,0,0,1,31.59,11.44Z"/><path class="a" d="M38.93,11.44a5.87,5.87,0,1,0,5.86-5.87A5.87,5.87,0,0,0,38.93,11.44Zm7.82,0a2,2,0,1,1-2-2A2,2,0,0,1,46.75,11.44Z"/><path class="a" d="M87.46,44.54H99.71a5.87,5.87,0,1,0,0-11.73H87.46a5.87,5.87,0,1,0,0,11.73Zm0-7.82H99.71a2,2,0,1,1,0,3.91H87.46a2,2,0,1,1,0-3.91Z"/><path class="a" d="M87.46,60.18h32.32a5.87,5.87,0,1,0,0-11.73H87.46a5.87,5.87,0,1,0,0,11.73Zm0-7.82h32.32a2,2,0,1,1,0,3.91H87.46a2,2,0,1,1,0-3.91Z"/><path class="a" d="M87.46,75.82h22.72a5.87,5.87,0,1,0,0-11.73H87.46a5.87,5.87,0,1,0,0,11.73Zm0-7.82h22.72a2,2,0,1,1,0,3.91H87.46a2,2,0,1,1,0-3.91Z"/></svg>