<svg xmlns="http://www.w3.org/2000/svg" viewBox="0 0 124.85 124.85"><defs><style>.a{fill:aqua;}</style></defs><path class="a" d="M38,95.1a2.44,2.44,0,1,0-2.44-2.43A2.43,2.43,0,0,0,38,95.1Z"/><path class="a" d="M15.46,46.71l-9.3,15.5a2.47,2.47,0,0,0-.2,2.1,2.44,2.44,0,0,0,1.52,1.47L21,70.28v37.5a2.45,2.45,0,0,0,1.58,2.29c8.25,3.09,38.9,14.59,39.07,14.64a2.44,2.44,0,0,0,1.56,0h0l43.89-14.63a2.44,2.44,0,0,0,1.67-2.32V69.27l14.39-4.52A2.41,2.41,0,0,0,124.78,63a2.44,2.44,0,0,0-.64-2.31L109.77,46.33,124.14,32a2.44,2.44,0,0,0-1-4.05l-35-10.8a24.39,24.39,0,0,0-45.9-1.84L1.71,27.91A2.44,2.44,0,0,0,.71,32Zm4.16,2.55L58.77,62.32,51.06,75.17,11.91,62.12ZM46,39.77A24.39,24.39,0,0,0,82.69,41l15.92,5.3L62.43,58.39,26.24,46.33ZM25.85,71.9c26.86,8.91,25.55,8.64,26.3,8.64a2.45,2.45,0,0,0,2.09-1.19L60,69.77V118.9L25.85,106.09Zm78,34.13-39,13V67.92l8.64,10.8a2.44,2.44,0,0,0,2.64.8l27.73-8.71Zm14-44.72L76.28,74.37l-9.76-12.2,39.14-13.05ZM105.66,43.54,85.78,36.92a24.5,24.5,0,0,0,3.47-12.53c0-.62,0-1.24-.07-1.86l28.65,8.85ZM64.87,4.88a19.48,19.48,0,0,1,19.5,19.51,19.49,19.49,0,0,1-19.5,19.5,19.51,19.51,0,0,1-16-8.39A19.56,19.56,0,0,1,46.41,18,19.53,19.53,0,0,1,64.87,4.88Zm-24.13,16a24.37,24.37,0,0,0,2.44,14.7l-24,8L7,31.37Z"/><path class="a" d="M46.39,98.17l5.43,2a2.44,2.44,0,0,0,1.71-4.57l-5.42-2a2.44,2.44,0,0,0-1.72,4.56Z"/><path class="a" d="M53.53,106.06,38.9,100.57a2.44,2.44,0,1,0-1.71,4.57l14.63,5.48a2.33,2.33,0,0,0,.85.16,2.44,2.44,0,0,0,.86-4.72Z"/><path class="a" d="M60.7,33.43a2.44,2.44,0,0,0,3.45,0L78.78,18.79a2.44,2.44,0,1,0-3.45-3.44l-12.9,12.9L59.27,25.1a2.44,2.44,0,1,0-3.44,3.45Z"/></svg>