<svg xmlns="http://www.w3.org/2000/svg" xmlns:xlink="http://www.w3.org/1999/xlink" viewBox="0 0 125.79 176.03"><defs><style>.a{fill:url(#a);}</style><linearGradient id="a" x1="108.13" y1="13454.79" x2="19.5" y2="13366.16" gradientTransform="matrix(1, 0, 0, -1, 0, 13498.6)" gradientUnits="userSpaceOnUse"><stop offset="0" stop-color="#2af3ff"/><stop offset="1" stop-color="#7c1dc6"/></linearGradient></defs><path class="a" d="M64.33,0l61.46,61.46-7.68,7.68-7.68,7.68L100,87.37,91.36,93.8l-8.18-8.18-9-8.8L64.33,66.71,48.2,82.64,23.67,107.17l-6.88-6.46L42.61,74.9l21.72-22L75,63.7,85.33,74l6.47,6.5L97,74.9l13.45-13.44L87.59,38.62,64.33,15.36,10.56,69.14v37.31L63.5,159.68l46.93-46.75L91.36,93.8,100,87.37l25.82,25.56L63.5,176,0,112.93V64.33l33.61-33.6L49,15.36l7.68-7.68Z"/></svg>