<svg xmlns="http://www.w3.org/2000/svg" xmlns:xlink="http://www.w3.org/1999/xlink" viewBox="0 0 363.62 805.12"><defs><style>.cls-1{fill:url(#Безымянный_градиент_2);}.cls-2{fill:url(#Безымянный_градиент_2-2);}.cls-3{fill:url(#Безымянный_градиент_2-3);}.cls-4{fill:url(#Безымянный_градиент_2-4);}.cls-5{fill:url(#Безымянный_градиент_2-5);}.cls-6{fill:url(#Безымянный_градиент_2-6);}.cls-7{fill:url(#Безымянный_градиент_2-7);}.cls-8{fill:url(#Безымянный_градиент_2-8);}.cls-9{fill:url(#Безымянный_градиент_2-9);}.cls-10{fill:url(#Безымянный_градиент_2-10);}.cls-11{fill:url(#Безымянный_градиент_2-11);}.cls-12{fill:url(#Безымянный_градиент_2-12);}.cls-13{fill:url(#Безымянный_градиент_2-13);}.cls-14{fill:url(#Безымянный_градиент_2-14);}.cls-15{fill:url(#Безымянный_градиент_2-15);}.cls-16{fill:url(#Безымянный_градиент_2-16);}.cls-17{fill:url(#Безымянный_градиент_2-17);}.cls-18{fill:url(#Безымянный_градиент_2-18);}.cls-19{fill:url(#Безымянный_градиент_2-19);}.cls-20{fill:url(#Безымянный_градиент_2-20);}.cls-21{fill:url(#Безымянный_градиент_2-21);}.cls-22{fill:url(#Безымянный_градиент_2-22);}.cls-23{fill:url(#Безымянный_градиент_2-23);}.cls-24{fill:url(#Безымянный_градиент_2-24);}.cls-25{fill:url(#Безымянный_градиент_2-25);}.cls-26{fill:url(#Безымянный_градиент_2-26);}.cls-27{fill:url(#Безымянный_градиент_2-27);}.cls-28{fill:url(#Безымянный_градиент_2-28);}.cls-29{fill:url(#Безымянный_градиент_2-29);}.cls-30{fill:url(#Безымянный_градиент_2-30);}.cls-31{fill:url(#Безымянный_градиент_2-31);}.cls-32{fill:url(#Безымянный_градиент_2-32);}.cls-33{fill:url(#Безымянный_градиент_2-33);}.cls-34{fill:url(#Безымянный_градиент_2-34);}.cls-35{fill:url(#Безымянный_градиент_2-35);}.cls-36{fill:url(#Безымянный_градиент_2-36);}.cls-37{fill:url(#Безымянный_градиент_2-37);}.cls-38{fill:url(#Безымянный_градиент_2-38);}.cls-39{fill:url(#Безымянный_градиент_2-39);}.cls-40{fill:url(#Безымянный_градиент_2-40);}.cls-41{fill:url(#Безымянный_градиент_2-41);}.cls-42{fill:url(#Безымянный_градиент_2-42);}.cls-43{fill:url(#Безымянный_градиент_2-43);}.cls-44{fill:url(#Безымянный_градиент_2-44);}.cls-45{fill:url(#Безымянный_градиент_2-45);}.cls-46{fill:url(#Безымянный_градиент_2-46);}.cls-47{fill:url(#Безымянный_градиент_2-47);}.cls-48{fill:url(#Безымянный_градиент_2-48);}.cls-49{fill:url(#Безымянный_градиент_2-49);}.cls-50{fill:url(#Безымянный_градиент_2-50);}.cls-51{fill:url(#Безымянный_градиент_2-51);}.cls-52{fill:url(#Безымянный_градиент_2-52);}.cls-53{fill:url(#Безымянный_градиент_2-53);}.cls-54{fill:url(#Безымянный_градиент_2-54);}.cls-55{fill:url(#Безымянный_градиент_2-55);}.cls-56{fill:url(#Безымянный_градиент_2-56);}.cls-57{fill:url(#Безымянный_градиент_2-57);}.cls-58{fill:url(#Безымянный_градиент_2-58);}.cls-59{fill:url(#Безымянный_градиент_2-59);}.cls-60{fill:url(#Безымянный_градиент_2-60);}.cls-61{fill:url(#Безымянный_градиент_2-61);}.cls-62{fill:url(#Безымянный_градиент_2-62);}.cls-63{fill:url(#Безымянный_градиент_2-63);}.cls-64{fill:url(#Безымянный_градиент_2-64);}.cls-65{fill:url(#Безымянный_градиент_2-65);}.cls-66{fill:url(#Безымянный_градиент_2-66);}.cls-67{fill:url(#Безымянный_градиент_2-67);}.cls-68{fill:url(#Безымянный_градиент_2-68);}.cls-69{fill:url(#Безымянный_градиент_2-69);}.cls-70{fill:url(#Безымянный_градиент_2-70);}.cls-71{fill:url(#Безымянный_градиент_2-71);}.cls-72{fill:url(#Безымянный_градиент_2-72);}.cls-73{fill:url(#Безымянный_градиент_2-73);}.cls-74{fill:url(#Безымянный_градиент_2-74);}.cls-75{fill:url(#Безымянный_градиент_2-75);}.cls-76{fill:url(#Безымянный_градиент_2-76);}.cls-77{fill:url(#Безымянный_градиент_2-77);}.cls-78{fill:url(#Безымянный_градиент_2-78);}.cls-79{fill:url(#Безымянный_градиент_2-79);}.cls-80{fill:url(#Безымянный_градиент_2-80);}.cls-81{fill:url(#Безымянный_градиент_2-81);}.cls-82{fill:url(#Безымянный_градиент_2-82);}.cls-83{fill:url(#Безымянный_градиент_2-83);}.cls-84{fill:url(#Безымянный_градиент_2-84);}.cls-85{fill:url(#Безымянный_градиент_2-85);}.cls-86{fill:url(#Безымянный_градиент_2-86);}.cls-87{fill:url(#Безымянный_градиент_2-87);}.cls-88{fill:url(#Безымянный_градиент_2-88);}.cls-89{fill:url(#Безымянный_градиент_2-89);}.cls-90{fill:url(#Безымянный_градиент_2-90);}.cls-91{fill:url(#Безымянный_градиент_2-91);}.cls-92{fill:url(#Безымянный_градиент_2-92);}.cls-93{fill:url(#Безымянный_градиент_2-93);}.cls-94{fill:url(#Безымянный_градиент_2-94);}.cls-95{fill:url(#Безымянный_градиент_2-95);}.cls-96{fill:url(#Безымянный_градиент_2-96);}.cls-97{fill:url(#Безымянный_градиент_2-97);}.cls-98{fill:url(#Безымянный_градиент_2-98);}.cls-99{fill:url(#Безымянный_градиент_2-99);}.cls-100{fill:url(#Безымянный_градиент_2-100);}.cls-101{fill:url(#Безымянный_градиент_2-101);}.cls-102{fill:url(#Безымянный_градиент_2-102);}.cls-103{fill:url(#Безымянный_градиент_2-103);}.cls-104{fill:url(#Безымянный_градиент_2-104);}.cls-105{fill:url(#Безымянный_градиент_2-105);}.cls-106{fill:url(#Безымянный_градиент_2-106);}.cls-107{fill:url(#Безымянный_градиент_2-107);}.cls-108{fill:url(#Безымянный_градиент_2-108);}.cls-109{fill:url(#Безымянный_градиент_2-109);}.cls-110{fill:url(#Безымянный_градиент_2-110);}.cls-111{fill:url(#Безымянный_градиент_2-111);}.cls-112{fill:url(#Безымянный_градиент_2-112);}.cls-113{fill:url(#Безымянный_градиент_2-113);}.cls-114{fill:url(#Безымянный_градиент_2-114);}.cls-115{fill:url(#Безымянный_градиент_2-115);}.cls-116{fill:url(#Безымянный_градиент_2-116);}.cls-117{fill:url(#Безымянный_градиент_2-117);}.cls-118{fill:url(#Безымянный_градиент_2-118);}.cls-119{fill:url(#Безымянный_градиент_2-119);}.cls-120{fill:url(#Безымянный_градиент_2-120);}.cls-121{fill:url(#Безымянный_градиент_2-121);}.cls-122{fill:url(#Безымянный_градиент_2-122);}.cls-123{fill:url(#Безымянный_градиент_2-123);}.cls-124{fill:url(#Безымянный_градиент_2-124);}.cls-125{fill:url(#Безымянный_градиент_2-125);}.cls-126{fill:url(#Безымянный_градиент_2-126);}.cls-127{fill:url(#Безымянный_градиент_2-127);}.cls-128{fill:url(#Безымянный_градиент_2-128);}.cls-129{fill:url(#Безымянный_градиент_2-129);}.cls-130{fill:url(#Безымянный_градиент_2-130);}.cls-131{fill:url(#Безымянный_градиент_2-131);}.cls-132{fill:url(#Безымянный_градиент_2-132);}.cls-133{fill:url(#Безымянный_градиент_2-133);}.cls-134{fill:url(#Безымянный_градиент_2-134);}.cls-135{fill:url(#Безымянный_градиент_2-135);}.cls-136{fill:url(#Безымянный_градиент_2-136);}.cls-137{fill:url(#Безымянный_градиент_2-137);}.cls-138{fill:url(#Безымянный_градиент_2-138);}.cls-139{fill:url(#Безымянный_градиент_2-139);}.cls-140{fill:url(#Безымянный_градиент_2-140);}.cls-141{fill:url(#Безымянный_градиент_2-141);}.cls-142{fill:url(#Безымянный_градиент_2-142);}.cls-143{fill:url(#Безымянный_градиент_2-143);}.cls-144{fill:url(#Безымянный_градиент_2-144);}.cls-145{fill:url(#Безымянный_градиент_2-145);}.cls-146{fill:url(#Безымянный_градиент_2-146);}.cls-147{fill:url(#Безымянный_градиент_2-147);}.cls-148{fill:url(#Безымянный_градиент_2-148);}.cls-149{fill:url(#Безымянный_градиент_2-149);}.cls-150{fill:url(#Безымянный_градиент_2-150);}.cls-151{fill:url(#Безымянный_градиент_2-151);}.cls-152{fill:url(#Безымянный_градиент_2-152);}.cls-153{fill:url(#Безымянный_градиент_2-153);}.cls-154{fill:url(#Безымянный_градиент_2-154);}.cls-155{fill:url(#Безымянный_градиент_2-155);}.cls-156{fill:url(#Безымянный_градиент_2-156);}.cls-157{fill:url(#Безымянный_градиент_2-157);}.cls-158{fill:url(#Безымянный_градиент_2-158);}.cls-159{fill:url(#Безымянный_градиент_2-159);}.cls-160{fill:url(#Безымянный_градиент_2-160);}.cls-161{fill:url(#Безымянный_градиент_2-161);}.cls-162{fill:url(#Безымянный_градиент_2-162);}.cls-163{fill:url(#Безымянный_градиент_2-163);}.cls-164{fill:url(#Безымянный_градиент_2-164);}.cls-165{fill:url(#Безымянный_градиент_2-165);}.cls-166{fill:url(#Безымянный_градиент_2-166);}.cls-167{fill:url(#Безымянный_градиент_2-167);}.cls-168{fill:url(#Безымянный_градиент_2-168);}.cls-169{fill:url(#Безымянный_градиент_2-169);}.cls-170{fill:url(#Безымянный_градиент_2-170);}.cls-171{fill:url(#Безымянный_градиент_2-171);}.cls-172{fill:url(#Безымянный_градиент_2-172);}.cls-173{fill:url(#Безымянный_градиент_2-173);}.cls-174{fill:url(#Безымянный_градиент_2-174);}.cls-175{fill:url(#Безымянный_градиент_2-175);}.cls-176{fill:url(#Безымянный_градиент_2-176);}.cls-177{fill:url(#Безымянный_градиент_2-177);}.cls-178{fill:url(#Безымянный_градиент_2-178);}.cls-179{fill:url(#Безымянный_градиент_2-179);}.cls-180{fill:url(#Безымянный_градиент_2-180);}.cls-181{fill:url(#Безымянный_градиент_2-181);}.cls-182{fill:url(#Безымянный_градиент_2-182);}.cls-183{fill:url(#Безымянный_градиент_2-183);}.cls-184{fill:url(#Безымянный_градиент_2-184);}.cls-185{fill:url(#Безымянный_градиент_2-185);}.cls-186{fill:url(#Безымянный_градиент_2-186);}.cls-187{fill:url(#Безымянный_градиент_2-187);}.cls-188{fill:url(#Безымянный_градиент_2-188);}.cls-189{fill:url(#Безымянный_градиент_2-189);}.cls-190{fill:url(#Безымянный_градиент_2-190);}.cls-191{fill:url(#Безымянный_градиент_2-191);}.cls-192{fill:url(#Безымянный_градиент_2-192);}.cls-193{fill:url(#Безымянный_градиент_2-193);}.cls-194{fill:url(#Безымянный_градиент_2-194);}.cls-195{fill:url(#Безымянный_градиент_2-195);}.cls-196{fill:url(#Безымянный_градиент_2-196);}.cls-197{fill:url(#Безымянный_градиент_2-197);}.cls-198{fill:url(#Безымянный_градиент_2-198);}.cls-199{fill:url(#Безымянный_градиент_2-199);}.cls-200{fill:url(#Безымянный_градиент_2-200);}.cls-201{fill:url(#Безымянный_градиент_2-201);}.cls-202{fill:url(#Безымянный_градиент_2-202);}.cls-203{fill:url(#Безымянный_градиент_2-203);}.cls-204{fill:url(#Безымянный_градиент_2-204);}.cls-205{fill:url(#Безымянный_градиент_2-205);}.cls-206{fill:url(#Безымянный_градиент_2-206);}.cls-207{fill:url(#Безымянный_градиент_2-207);}.cls-208{fill:url(#Безымянный_градиент_2-208);}.cls-209{fill:url(#Безымянный_градиент_2-209);}.cls-210{fill:url(#Безымянный_градиент_2-210);}.cls-211{fill:url(#Безымянный_градиент_2-211);}.cls-212{fill:url(#Безымянный_градиент_2-212);}.cls-213{fill:url(#Безымянный_градиент_2-213);}.cls-214{fill:url(#Безымянный_градиент_2-214);}.cls-215{fill:url(#Безымянный_градиент_2-215);}.cls-216{fill:url(#Безымянный_градиент_2-216);}.cls-217{fill:url(#Безымянный_градиент_2-217);}.cls-218{fill:url(#Безымянный_градиент_2-218);}.cls-219{fill:url(#Безымянный_градиент_2-219);}.cls-220{fill:url(#Безымянный_градиент_2-220);}.cls-221{fill:url(#Безымянный_градиент_2-221);}.cls-222{fill:url(#Безымянный_градиент_2-222);}.cls-223{fill:url(#Безымянный_градиент_2-223);}.cls-224{fill:url(#Безымянный_градиент_2-224);}.cls-225{fill:url(#Безымянный_градиент_2-225);}.cls-226{fill:url(#Безымянный_градиент_2-226);}.cls-227{fill:url(#Безымянный_градиент_2-227);}.cls-228{fill:url(#Безымянный_градиент_2-228);}.cls-229{fill:url(#Безымянный_градиент_2-229);}.cls-230{fill:url(#Безымянный_градиент_2-230);}.cls-231{fill:url(#Безымянный_градиент_2-231);}.cls-232{fill:url(#Безымянный_градиент_2-232);}.cls-233{fill:url(#Безымянный_градиент_2-233);}.cls-234{fill:url(#Безымянный_градиент_2-234);}.cls-235{fill:url(#Безымянный_градиент_2-235);}.cls-236{fill:url(#Безымянный_градиент_2-236);}.cls-237{fill:url(#Безымянный_градиент_2-237);}.cls-238{fill:url(#Безымянный_градиент_2-238);}.cls-239{fill:url(#Безымянный_градиент_2-239);}.cls-240{fill:url(#Безымянный_градиент_2-240);}.cls-241{fill:url(#Безымянный_градиент_2-241);}.cls-242{fill:url(#Безымянный_градиент_2-242);}.cls-243{fill:url(#Безымянный_градиент_2-243);}.cls-244{fill:url(#Безымянный_градиент_2-244);}.cls-245{fill:url(#Безымянный_градиент_2-245);}.cls-246{fill:url(#Безымянный_градиент_2-246);}.cls-247{fill:url(#Безымянный_градиент_2-247);}.cls-248{fill:url(#Безымянный_градиент_2-248);}.cls-249{fill:url(#Безымянный_градиент_2-249);}.cls-250{fill:url(#Безымянный_градиент_2-250);}.cls-251{fill:url(#Безымянный_градиент_2-251);}.cls-252{fill:url(#Безымянный_градиент_2-252);}.cls-253{fill:url(#Безымянный_градиент_2-253);}.cls-254{fill:url(#Безымянный_градиент_2-254);}.cls-255{fill:url(#Безымянный_градиент_2-255);}.cls-256{fill:url(#Безымянный_градиент_2-256);}.cls-257{fill:url(#Безымянный_градиент_2-257);}.cls-258{fill:url(#Безымянный_градиент_2-258);}</style><linearGradient id="Безымянный_градиент_2" x1="-470.86" y1="-181.36" x2="761.24" y2="681.34" gradientUnits="userSpaceOnUse"><stop offset="0" stop-color="#2d0098"/><stop offset="0.97" stop-color="#3900b1"/><stop offset="1" stop-color="#3900b2"/></linearGradient><linearGradient id="Безымянный_градиент_2-2" x1="-560.48" y1="-53.37" x2="671.62" y2="809.33" xlink:href="#Безымянный_градиент_2"/><linearGradient id="Безымянный_градиент_2-3" x1="-650.11" y1="74.63" x2="582" y2="937.33" xlink:href="#Безымянный_градиент_2"/><linearGradient id="Безымянный_градиент_2-4" x1="-739.96" y1="202.97" x2="492.14" y2="1065.66" xlink:href="#Безымянный_градиент_2"/><linearGradient id="Безымянный_градиент_2-5" x1="-694.91" y1="138.63" x2="537.19" y2="1001.33" xlink:href="#Безымянный_градиент_2"/><linearGradient id="Безымянный_градиент_2-6" x1="-605.29" y1="10.64" x2="626.81" y2="873.33" xlink:href="#Безымянный_градиент_2"/><linearGradient id="Безымянный_градиент_2-7" x1="-515.67" y1="-117.37" x2="716.44" y2="745.33" xlink:href="#Безымянный_градиент_2"/><linearGradient id="Безымянный_градиент_2-8" x1="-425.93" y1="-245.53" x2="806.17" y2="617.17" xlink:href="#Безымянный_градиент_2"/><linearGradient id="Безымянный_градиент_2-9" x1="-403.56" y1="-277.48" x2="828.54" y2="585.22" xlink:href="#Безымянный_градиент_2"/><linearGradient id="Безымянный_градиент_2-10" x1="-448.37" y1="-213.48" x2="783.73" y2="649.22" xlink:href="#Безымянный_градиент_2"/><linearGradient id="Безымянный_градиент_2-11" x1="-493.18" y1="-149.48" x2="738.92" y2="713.22" xlink:href="#Безымянный_градиент_2"/><linearGradient id="Безымянный_градиент_2-12" x1="-537.99" y1="-85.48" x2="694.11" y2="777.22" xlink:href="#Безымянный_градиент_2"/><linearGradient id="Безымянный_градиент_2-13" x1="-582.81" y1="-21.48" x2="649.3" y2="841.22" xlink:href="#Безымянный_градиент_2"/><linearGradient id="Безымянный_градиент_2-14" x1="-627.62" y1="42.52" x2="604.49" y2="905.22" xlink:href="#Безымянный_градиент_2"/><linearGradient id="Безымянный_градиент_2-15" x1="-672.43" y1="106.52" x2="559.68" y2="969.21" xlink:href="#Безымянный_градиент_2"/><linearGradient id="Безымянный_градиент_2-16" x1="-717.24" y1="170.51" x2="514.87" y2="1033.21" xlink:href="#Безымянный_градиент_2"/><linearGradient id="Безымянный_градиент_2-17" x1="-762.05" y1="234.51" x2="470.06" y2="1097.21" xlink:href="#Безымянный_градиент_2"/><linearGradient id="Безымянный_градиент_2-18" x1="-387.59" y1="-300.29" x2="844.51" y2="562.41" xlink:href="#Безымянный_градиент_2"/><linearGradient id="Безымянный_градиент_2-19" x1="-383.89" y1="-305.57" x2="848.21" y2="557.13" xlink:href="#Безымянный_градиент_2"/><linearGradient id="Безымянный_градиент_2-20" x1="-382.72" y1="-307.25" x2="849.39" y2="555.45" xlink:href="#Безымянный_градиент_2"/><linearGradient id="Безымянный_градиент_2-21" x1="-378.86" y1="-312.76" x2="853.25" y2="549.94" xlink:href="#Безымянный_градиент_2"/><linearGradient id="Безымянный_градиент_2-22" x1="-374.39" y1="-319.14" x2="857.71" y2="543.56" xlink:href="#Безымянный_градиент_2"/><linearGradient id="Безымянный_градиент_2-23" x1="-371.5" y1="-323.27" x2="860.6" y2="539.43" xlink:href="#Безымянный_градиент_2"/><linearGradient id="Безымянный_градиент_2-24" x1="-367.33" y1="-329.22" x2="864.77" y2="533.48" xlink:href="#Безымянный_градиент_2"/><linearGradient id="Безымянный_градиент_2-25" x1="-363.69" y1="-334.42" x2="868.41" y2="528.28" xlink:href="#Безымянный_градиент_2"/><linearGradient id="Безымянный_градиент_2-26" x1="-361.15" y1="-338.04" x2="870.95" y2="524.65" xlink:href="#Безымянный_градиент_2"/><linearGradient id="Безымянный_градиент_2-27" x1="-357.3" y1="-343.55" x2="874.81" y2="519.15" xlink:href="#Безымянный_градиент_2"/><linearGradient id="Безымянный_градиент_2-28" x1="-352.83" y1="-349.93" x2="879.27" y2="512.77" xlink:href="#Безымянный_градиент_2"/><linearGradient id="Безымянный_градиент_2-29" x1="-398.39" y1="-284.86" x2="833.71" y2="577.84" xlink:href="#Безымянный_градиент_2"/><linearGradient id="Безымянный_градиент_2-30" x1="-394.45" y1="-290.5" x2="837.66" y2="572.2" xlink:href="#Безымянный_градиент_2"/><linearGradient id="Безымянный_градиент_2-31" x1="-389.39" y1="-297.72" x2="842.71" y2="564.98" xlink:href="#Безымянный_градиент_2"/><linearGradient id="Безымянный_градиент_2-32" x1="-386.28" y1="-302.17" x2="845.83" y2="560.53" xlink:href="#Безымянный_градиент_2"/><linearGradient id="Безымянный_градиент_2-33" x1="-381.99" y1="-308.28" x2="850.11" y2="554.42" xlink:href="#Безымянный_градиент_2"/><linearGradient id="Безымянный_градиент_2-34" x1="-377.02" y1="-315.38" x2="855.08" y2="547.32" xlink:href="#Безымянный_градиент_2"/><linearGradient id="Безымянный_градиент_2-35" x1="-371.53" y1="-323.23" x2="860.58" y2="539.47" xlink:href="#Безымянный_градиент_2"/><linearGradient id="Безымянный_градиент_2-36" x1="-367.29" y1="-329.29" x2="864.82" y2="533.41" xlink:href="#Безымянный_градиент_2"/><linearGradient id="Безымянный_градиент_2-37" x1="-364.34" y1="-333.49" x2="867.76" y2="529.21" xlink:href="#Безымянный_градиент_2"/><linearGradient id="Безымянный_градиент_2-38" x1="-358.78" y1="-341.44" x2="873.33" y2="521.26" xlink:href="#Безымянный_градиент_2"/><linearGradient id="Безымянный_градиент_2-39" x1="-354.68" y1="-347.29" x2="877.43" y2="515.41" xlink:href="#Безымянный_градиент_2"/><linearGradient id="Безымянный_градиент_2-40" x1="-352.29" y1="-350.7" x2="879.81" y2="512" xlink:href="#Безымянный_градиент_2"/><linearGradient id="Безымянный_градиент_2-41" x1="-347.68" y1="-357.28" x2="884.42" y2="505.41" xlink:href="#Безымянный_градиент_2"/><linearGradient id="Безымянный_градиент_2-42" x1="-432.7" y1="-235.87" x2="799.41" y2="626.83" xlink:href="#Безымянный_градиент_2"/><linearGradient id="Безымянный_градиент_2-43" x1="-428.4" y1="-242" x2="803.7" y2="620.7" xlink:href="#Безымянный_градиент_2"/><linearGradient id="Безымянный_градиент_2-44" x1="-426.45" y1="-244.8" x2="805.66" y2="617.9" xlink:href="#Безымянный_градиент_2"/><linearGradient id="Безымянный_градиент_2-45" x1="-422.59" y1="-250.3" x2="809.52" y2="612.4" xlink:href="#Безымянный_градиент_2"/><linearGradient id="Безымянный_градиент_2-46" x1="-418.12" y1="-256.68" x2="813.98" y2="606.02" xlink:href="#Безымянный_градиент_2"/><linearGradient id="Безымянный_градиент_2-47" x1="-415.23" y1="-260.81" x2="816.87" y2="601.89" xlink:href="#Безымянный_градиент_2"/><linearGradient id="Безымянный_градиент_2-48" x1="-411.06" y1="-266.77" x2="821.04" y2="595.93" xlink:href="#Безымянный_градиент_2"/><linearGradient id="Безымянный_градиент_2-49" x1="-406.32" y1="-273.54" x2="825.79" y2="589.16" xlink:href="#Безымянный_градиент_2"/><linearGradient id="Безымянный_градиент_2-50" x1="-404.54" y1="-276.09" x2="827.57" y2="586.61" xlink:href="#Безымянный_градиент_2"/><linearGradient id="Безымянный_градиент_2-51" x1="-400.68" y1="-281.59" x2="831.42" y2="581.1" xlink:href="#Безымянный_градиент_2"/><linearGradient id="Безымянный_градиент_2-52" x1="-396.21" y1="-287.97" x2="835.89" y2="574.72" xlink:href="#Безымянный_градиент_2"/><linearGradient id="Безымянный_градиент_2-53" x1="-443.64" y1="-220.24" x2="788.47" y2="642.46" xlink:href="#Безымянный_градиент_2"/><linearGradient id="Безымянный_градиент_2-54" x1="-440.59" y1="-224.6" x2="791.52" y2="638.1" xlink:href="#Безымянный_градиент_2"/><linearGradient id="Безымянный_градиент_2-55" x1="-435.86" y1="-231.35" x2="796.24" y2="631.35" xlink:href="#Безымянный_градиент_2"/><linearGradient id="Безымянный_градиент_2-56" x1="-431.42" y1="-237.68" x2="800.68" y2="625.01" xlink:href="#Безымянный_градиент_2"/><linearGradient id="Безымянный_градиент_2-57" x1="-425.58" y1="-246.03" x2="806.53" y2="616.67" xlink:href="#Безымянный_градиент_2"/><linearGradient id="Безымянный_градиент_2-58" x1="-424.16" y1="-248.05" x2="807.94" y2="614.64" xlink:href="#Безымянный_градиент_2"/><linearGradient id="Безымянный_градиент_2-59" x1="-418.6" y1="-256" x2="813.5" y2="606.7" xlink:href="#Безымянный_градиент_2"/><linearGradient id="Безымянный_градиент_2-60" x1="-413.73" y1="-262.95" x2="818.37" y2="599.75" xlink:href="#Безымянный_градиент_2"/><linearGradient id="Безымянный_градиент_2-61" x1="-410.01" y1="-268.26" x2="822.09" y2="594.44" xlink:href="#Безымянный_градиент_2"/><linearGradient id="Безымянный_градиент_2-62" x1="-477.33" y1="-172.12" x2="754.77" y2="690.58" xlink:href="#Безымянный_градиент_2"/><linearGradient id="Безымянный_градиент_2-63" x1="-473.41" y1="-177.73" x2="758.7" y2="684.97" xlink:href="#Безымянный_градиент_2"/><linearGradient id="Безымянный_градиент_2-64" x1="-470.8" y1="-181.44" x2="761.3" y2="681.25" xlink:href="#Безымянный_градиент_2"/><linearGradient id="Безымянный_градиент_2-65" x1="-466.95" y1="-186.95" x2="765.16" y2="675.75" xlink:href="#Безымянный_градиент_2"/><linearGradient id="Безымянный_градиент_2-66" x1="-462.48" y1="-193.33" x2="769.62" y2="669.37" xlink:href="#Безымянный_градиент_2"/><linearGradient id="Безымянный_градиент_2-67" x1="-459.59" y1="-197.46" x2="772.52" y2="665.24" xlink:href="#Безымянный_градиент_2"/><linearGradient id="Безымянный_градиент_2-68" x1="-456.32" y1="-202.13" x2="775.79" y2="660.57" xlink:href="#Безымянный_градиент_2"/><linearGradient id="Безымянный_градиент_2-69" x1="-453.01" y1="-206.86" x2="779.1" y2="655.84" xlink:href="#Безымянный_градиент_2"/><linearGradient id="Безымянный_градиент_2-70" x1="-450.67" y1="-210.2" x2="781.43" y2="652.5" xlink:href="#Безымянный_градиент_2"/><linearGradient id="Безымянный_градиент_2-71" x1="-446.82" y1="-215.7" x2="785.29" y2="646.99" xlink:href="#Безымянный_градиент_2"/><linearGradient id="Безымянный_градиент_2-72" x1="-442.35" y1="-222.08" x2="789.76" y2="640.61" xlink:href="#Безымянный_градиент_2"/><linearGradient id="Безымянный_градиент_2-73" x1="-489.01" y1="-155.45" x2="743.1" y2="707.25" xlink:href="#Безымянный_градиент_2"/><linearGradient id="Безымянный_градиент_2-74" x1="-485.78" y1="-160.05" x2="746.32" y2="702.65" xlink:href="#Безымянный_градиент_2"/><linearGradient id="Безымянный_градиент_2-75" x1="-482" y1="-165.45" x2="750.1" y2="697.25" xlink:href="#Безымянный_градиент_2"/><linearGradient id="Безымянный_градиент_2-76" x1="-477.59" y1="-171.74" x2="754.51" y2="690.95" xlink:href="#Безымянный_градиент_2"/><linearGradient id="Безымянный_градиент_2-77" x1="-475.8" y1="-174.31" x2="756.31" y2="688.39" xlink:href="#Безымянный_градиент_2"/><linearGradient id="Безымянный_градиент_2-78" x1="-470.54" y1="-181.82" x2="761.57" y2="680.88" xlink:href="#Безымянный_градиент_2"/><linearGradient id="Безымянный_градиент_2-79" x1="-466.36" y1="-187.79" x2="765.74" y2="674.91" xlink:href="#Безымянный_градиент_2"/><linearGradient id="Безымянный_градиент_2-80" x1="-522.7" y1="-107.33" x2="709.41" y2="755.37" xlink:href="#Безымянный_градиент_2"/><linearGradient id="Безымянный_градиент_2-81" x1="-519.39" y1="-112.06" x2="712.72" y2="750.64" xlink:href="#Безымянный_градиент_2"/><linearGradient id="Безымянный_градиент_2-82" x1="-517.05" y1="-115.39" x2="715.05" y2="747.3" xlink:href="#Безымянный_градиент_2"/><linearGradient id="Безымянный_градиент_2-83" x1="-513.19" y1="-120.9" x2="718.91" y2="741.8" xlink:href="#Безымянный_градиент_2"/><linearGradient id="Безымянный_градиент_2-84" x1="-508.73" y1="-127.28" x2="723.38" y2="735.42" xlink:href="#Безымянный_градиент_2"/><linearGradient id="Безымянный_градиент_2-85" x1="-505.84" y1="-131.41" x2="726.27" y2="731.29" xlink:href="#Безымянный_градиент_2"/><linearGradient id="Безымянный_градиент_2-86" x1="-502.56" y1="-136.08" x2="729.54" y2="726.62" xlink:href="#Безымянный_градиент_2"/><linearGradient id="Безымянный_градиент_2-87" x1="-499.47" y1="-140.5" x2="732.64" y2="722.19" xlink:href="#Безымянный_градиент_2"/><linearGradient id="Безымянный_градиент_2-88" x1="-497.49" y1="-143.33" x2="734.62" y2="719.37" xlink:href="#Безымянный_градиент_2"/><linearGradient id="Безымянный_градиент_2-89" x1="-493.63" y1="-148.84" x2="738.47" y2="713.86" xlink:href="#Безымянный_градиент_2"/><linearGradient id="Безымянный_градиент_2-90" x1="-489.17" y1="-155.22" x2="742.94" y2="707.48" xlink:href="#Безымянный_градиент_2"/><linearGradient id="Безымянный_градиент_2-91" x1="-532.91" y1="-92.75" x2="699.2" y2="769.95" xlink:href="#Безымянный_градиент_2"/><linearGradient id="Безымянный_градиент_2-92" x1="-529.86" y1="-97.11" x2="702.25" y2="765.59" xlink:href="#Безымянный_градиент_2"/><linearGradient id="Безымянный_градиент_2-93" x1="-525.57" y1="-103.22" x2="706.53" y2="759.48" xlink:href="#Безымянный_градиент_2"/><linearGradient id="Безымянный_градиент_2-94" x1="-521.28" y1="-109.35" x2="710.82" y2="753.35" xlink:href="#Безымянный_градиент_2"/><linearGradient id="Безымянный_градиент_2-95" x1="-518.8" y1="-112.9" x2="713.31" y2="749.8" xlink:href="#Безымянный_градиент_2"/><linearGradient id="Безымянный_градиент_2-96" x1="-514.58" y1="-118.93" x2="717.53" y2="743.77" xlink:href="#Безымянный_градиент_2"/><linearGradient id="Безымянный_градиент_2-97" x1="-511.31" y1="-123.59" x2="720.79" y2="739.11" xlink:href="#Безымянный_градиент_2"/><linearGradient id="Безымянный_градиент_2-98" x1="-506.74" y1="-130.13" x2="725.37" y2="732.57" xlink:href="#Безымянный_градиент_2"/><linearGradient id="Безымянный_градиент_2-99" x1="-504.17" y1="-133.8" x2="727.94" y2="728.9" xlink:href="#Безымянный_градиент_2"/><linearGradient id="Безымянный_градиент_2-100" x1="-499.93" y1="-139.84" x2="732.17" y2="722.86" xlink:href="#Безымянный_градиент_2"/><linearGradient id="Безымянный_градиент_2-101" x1="-495.4" y1="-146.32" x2="736.71" y2="716.38" xlink:href="#Безымянный_градиент_2"/><linearGradient id="Безымянный_градиент_2-102" x1="-490.91" y1="-152.73" x2="741.19" y2="709.97" xlink:href="#Безымянный_градиент_2"/><linearGradient id="Безымянный_градиент_2-103" x1="-484.89" y1="-161.32" x2="747.21" y2="701.38" xlink:href="#Безымянный_градиент_2"/><linearGradient id="Безымянный_градиент_2-104" x1="-480.08" y1="-168.2" x2="752.03" y2="694.5" xlink:href="#Безымянный_градиент_2"/><linearGradient id="Безымянный_градиент_2-105" x1="-475.76" y1="-174.36" x2="756.34" y2="688.34" xlink:href="#Безымянный_градиент_2"/><linearGradient id="Безымянный_градиент_2-106" x1="-472.19" y1="-179.47" x2="759.92" y2="683.23" xlink:href="#Безымянный_градиент_2"/><linearGradient id="Безымянный_градиент_2-107" x1="-468.4" y1="-184.88" x2="763.71" y2="677.82" xlink:href="#Безымянный_градиент_2"/><linearGradient id="Безымянный_градиент_2-108" x1="-464.16" y1="-190.94" x2="767.95" y2="671.76" xlink:href="#Безымянный_градиент_2"/><linearGradient id="Безымянный_градиент_2-109" x1="-461.21" y1="-195.14" x2="770.89" y2="667.56" xlink:href="#Безымянный_градиент_2"/><linearGradient id="Безымянный_градиент_2-110" x1="-455.64" y1="-203.1" x2="776.47" y2="659.6" xlink:href="#Безымянный_градиент_2"/><linearGradient id="Безымянный_градиент_2-111" x1="-453.07" y1="-206.77" x2="779.03" y2="655.93" xlink:href="#Безымянный_градиент_2"/><linearGradient id="Безымянный_градиент_2-112" x1="-448.43" y1="-213.39" x2="783.67" y2="649.31" xlink:href="#Безымянный_градиент_2"/><linearGradient id="Безымянный_градиент_2-113" x1="-443.61" y1="-220.28" x2="788.49" y2="642.42" xlink:href="#Безымянный_градиент_2"/><linearGradient id="Безымянный_градиент_2-114" x1="-567.8" y1="-42.91" x2="664.3" y2="819.79" xlink:href="#Безымянный_градиент_2"/><linearGradient id="Безымянный_градиент_2-115" x1="-564.18" y1="-48.08" x2="667.92" y2="814.62" xlink:href="#Безымянный_градиент_2"/><linearGradient id="Безымянный_градиент_2-116" x1="-562.04" y1="-51.15" x2="670.07" y2="811.55" xlink:href="#Безымянный_градиент_2"/><linearGradient id="Безымянный_градиент_2-117" x1="-558.18" y1="-56.65" x2="673.92" y2="806.05" xlink:href="#Безымянный_градиент_2"/><linearGradient id="Безымянный_градиент_2-118" x1="-553.71" y1="-63.03" x2="678.39" y2="799.67" xlink:href="#Безымянный_градиент_2"/><linearGradient id="Безымянный_градиент_2-119" x1="-550.82" y1="-67.16" x2="681.28" y2="795.54" xlink:href="#Безымянный_градиент_2"/><linearGradient id="Безымянный_градиент_2-120" x1="-547.55" y1="-71.83" x2="684.55" y2="790.86" xlink:href="#Безымянный_градиент_2"/><linearGradient id="Безымянный_градиент_2-121" x1="-544.42" y1="-76.31" x2="687.69" y2="786.39" xlink:href="#Безымянный_градиент_2"/><linearGradient id="Безымянный_градиент_2-122" x1="-542.46" y1="-79.11" x2="689.65" y2="783.59" xlink:href="#Безымянный_градиент_2"/><linearGradient id="Безымянный_градиент_2-123" x1="-538.6" y1="-84.62" x2="693.5" y2="778.08" xlink:href="#Безымянный_градиент_2"/><linearGradient id="Безымянный_градиент_2-124" x1="-534.13" y1="-91" x2="697.97" y2="771.7" xlink:href="#Безымянный_градиент_2"/><linearGradient id="Безымянный_градиент_2-125" x1="-577.84" y1="-28.58" x2="654.27" y2="834.12" xlink:href="#Безымянный_градиент_2"/><linearGradient id="Безымянный_градиент_2-126" x1="-575.17" y1="-32.38" x2="656.93" y2="830.32" xlink:href="#Безымянный_градиент_2"/><linearGradient id="Безымянный_градиент_2-127" x1="-572.42" y1="-36.31" x2="659.68" y2="826.39" xlink:href="#Безымянный_градиент_2"/><linearGradient id="Безымянный_градиент_2-128" x1="-568.77" y1="-41.52" x2="663.33" y2="821.18" xlink:href="#Безымянный_градиент_2"/><linearGradient id="Безымянный_градиент_2-129" x1="-565.29" y1="-46.49" x2="666.81" y2="816.21" xlink:href="#Безымянный_градиент_2"/><linearGradient id="Безымянный_градиент_2-130" x1="-561.44" y1="-52" x2="670.67" y2="810.7" xlink:href="#Безымянный_градиент_2"/><linearGradient id="Безымянный_градиент_2-131" x1="-558.25" y1="-56.55" x2="673.85" y2="806.15" xlink:href="#Безымянный_градиент_2"/><linearGradient id="Безымянный_градиент_2-132" x1="-555.55" y1="-60.4" x2="676.55" y2="802.3" xlink:href="#Безымянный_градиент_2"/><linearGradient id="Безымянный_градиент_2-133" x1="-551.5" y1="-66.21" x2="680.61" y2="796.49" xlink:href="#Безымянный_градиент_2"/><linearGradient id="Безымянный_градиент_2-134" x1="-547.82" y1="-71.45" x2="684.29" y2="791.25" xlink:href="#Безымянный_градиент_2"/><linearGradient id="Безымянный_градиент_2-135" x1="-543.06" y1="-78.25" x2="689.05" y2="784.45" xlink:href="#Безымянный_градиент_2"/><linearGradient id="Безымянный_градиент_2-136" x1="-539.7" y1="-83.05" x2="692.41" y2="779.65" xlink:href="#Безымянный_градиент_2"/><linearGradient id="Безымянный_градиент_2-137" x1="-534.58" y1="-90.36" x2="697.53" y2="772.34" xlink:href="#Безымянный_градиент_2"/><linearGradient id="Безымянный_градиент_2-138" x1="-529.71" y1="-97.31" x2="702.4" y2="765.38" xlink:href="#Безымянный_градиент_2"/><linearGradient id="Безымянный_градиент_2-139" x1="-612.44" y1="20.84" x2="619.67" y2="883.54" xlink:href="#Безымянный_градиент_2"/><linearGradient id="Безымянный_градиент_2-140" x1="-609.3" y1="16.36" x2="622.8" y2="879.06" xlink:href="#Безымянный_градиент_2"/><linearGradient id="Безымянный_градиент_2-141" x1="-607.34" y1="13.56" x2="624.76" y2="876.26" xlink:href="#Безымянный_градиент_2"/><linearGradient id="Безымянный_градиент_2-142" x1="-603.49" y1="8.05" x2="628.62" y2="870.75" xlink:href="#Безымянный_градиент_2"/><linearGradient id="Безымянный_градиент_2-143" x1="-599.02" y1="1.67" x2="633.09" y2="864.37" xlink:href="#Безымянный_градиент_2"/><linearGradient id="Безымянный_градиент_2-144" x1="-596.13" y1="-2.45" x2="635.98" y2="860.24" xlink:href="#Безымянный_градиент_2"/><linearGradient id="Безымянный_градиент_2-145" x1="-592.86" y1="-7.13" x2="639.25" y2="855.57" xlink:href="#Безымянный_градиент_2"/><linearGradient id="Безымянный_градиент_2-146" x1="-589.35" y1="-12.14" x2="642.76" y2="850.56" xlink:href="#Безымянный_градиент_2"/><linearGradient id="Безымянный_градиент_2-147" x1="-587.73" y1="-14.45" x2="644.38" y2="848.25" xlink:href="#Безымянный_градиент_2"/><linearGradient id="Безымянный_градиент_2-148" x1="-583.87" y1="-19.96" x2="648.23" y2="842.74" xlink:href="#Безымянный_градиент_2"/><linearGradient id="Безымянный_градиент_2-149" x1="-579.41" y1="-26.34" x2="652.7" y2="836.36" xlink:href="#Безымянный_градиент_2"/><linearGradient id="Безымянный_градиент_2-150" x1="-622.65" y1="35.42" x2="609.46" y2="898.12" xlink:href="#Безымянный_градиент_2"/><linearGradient id="Безымянный_градиент_2-151" x1="-619.59" y1="31.06" x2="612.51" y2="893.76" xlink:href="#Безымянный_градиент_2"/><linearGradient id="Безымянный_градиент_2-152" x1="-615.31" y1="24.94" x2="616.79" y2="887.64" xlink:href="#Безымянный_градиент_2"/><linearGradient id="Безымянный_градиент_2-153" x1="-611.02" y1="18.82" x2="621.08" y2="881.52" xlink:href="#Безымянный_градиент_2"/><linearGradient id="Безымянный_градиент_2-154" x1="-608.54" y1="15.26" x2="623.57" y2="877.96" xlink:href="#Безымянный_градиент_2"/><linearGradient id="Безымянный_градиент_2-155" x1="-604.32" y1="9.24" x2="627.79" y2="871.94" xlink:href="#Безымянный_градиент_2"/><linearGradient id="Безымянный_градиент_2-156" x1="-601.05" y1="4.58" x2="631.05" y2="867.28" xlink:href="#Безымянный_градиент_2"/><linearGradient id="Безымянный_градиент_2-157" x1="-596.47" y1="-1.96" x2="635.63" y2="860.74" xlink:href="#Безымянный_градиент_2"/><linearGradient id="Безымянный_градиент_2-158" x1="-593.91" y1="-5.63" x2="638.2" y2="857.07" xlink:href="#Безымянный_градиент_2"/><linearGradient id="Безымянный_градиент_2-159" x1="-589.67" y1="-11.68" x2="642.43" y2="851.02" xlink:href="#Безымянный_градиент_2"/><linearGradient id="Безымянный_градиент_2-160" x1="-585.14" y1="-18.15" x2="646.97" y2="844.55" xlink:href="#Безымянный_градиент_2"/><linearGradient id="Безымянный_градиент_2-161" x1="-580.65" y1="-24.56" x2="651.45" y2="838.14" xlink:href="#Безымянный_градиент_2"/><linearGradient id="Безымянный_градиент_2-162" x1="-574.63" y1="-33.16" x2="657.47" y2="829.54" xlink:href="#Безымянный_градиент_2"/><linearGradient id="Безымянный_градиент_2-163" x1="-569.81" y1="-40.04" x2="662.29" y2="822.66" xlink:href="#Безымянный_градиент_2"/><linearGradient id="Безымянный_градиент_2-164" x1="-565.5" y1="-46.2" x2="666.6" y2="816.5" xlink:href="#Безымянный_градиент_2"/><linearGradient id="Безымянный_градиент_2-165" x1="-561.93" y1="-51.3" x2="670.18" y2="811.4" xlink:href="#Безымянный_градиент_2"/><linearGradient id="Безымянный_градиент_2-166" x1="-558.14" y1="-56.72" x2="673.97" y2="805.98" xlink:href="#Безымянный_градиент_2"/><linearGradient id="Безымянный_градиент_2-167" x1="-553.9" y1="-62.77" x2="678.21" y2="799.93" xlink:href="#Безымянный_градиент_2"/><linearGradient id="Безымянный_градиент_2-168" x1="-550.95" y1="-66.98" x2="681.15" y2="795.72" xlink:href="#Безымянный_градиент_2"/><linearGradient id="Безымянный_градиент_2-169" x1="-545.38" y1="-74.94" x2="686.73" y2="787.76" xlink:href="#Безымянный_градиент_2"/><linearGradient id="Безымянный_градиент_2-170" x1="-542.81" y1="-78.6" x2="689.3" y2="784.09" xlink:href="#Безымянный_градиент_2"/><linearGradient id="Безымянный_градиент_2-171" x1="-538.17" y1="-85.23" x2="693.93" y2="777.47" xlink:href="#Безымянный_градиент_2"/><linearGradient id="Безымянный_градиент_2-172" x1="-533.35" y1="-92.11" x2="698.75" y2="770.59" xlink:href="#Безымянный_градиент_2"/><linearGradient id="Безымянный_градиент_2-173" x1="-657.54" y1="85.25" x2="574.56" y2="947.95" xlink:href="#Безымянный_градиент_2"/><linearGradient id="Безымянный_градиент_2-174" x1="-654.34" y1="80.68" x2="577.77" y2="943.38" xlink:href="#Безымянный_градиент_2"/><linearGradient id="Безымянный_градиент_2-175" x1="-652.02" y1="77.37" x2="580.09" y2="940.07" xlink:href="#Безымянный_градиент_2"/><linearGradient id="Безымянный_градиент_2-176" x1="-648.16" y1="71.86" x2="583.94" y2="934.56" xlink:href="#Безымянный_градиент_2"/><linearGradient id="Безымянный_градиент_2-177" x1="-643.7" y1="65.48" x2="588.41" y2="928.18" xlink:href="#Безымянный_градиент_2"/><linearGradient id="Безымянный_градиент_2-178" x1="-640.81" y1="61.35" x2="591.3" y2="924.05" xlink:href="#Безымянный_градиент_2"/><linearGradient id="Безымянный_градиент_2-179" x1="-637.53" y1="56.68" x2="594.57" y2="919.38" xlink:href="#Безымянный_градиент_2"/><linearGradient id="Безымянный_градиент_2-180" x1="-634.77" y1="52.73" x2="597.34" y2="915.43" xlink:href="#Безымянный_градиент_2"/><linearGradient id="Безымянный_градиент_2-181" x1="-632.16" y1="49.01" x2="599.94" y2="911.71" xlink:href="#Безымянный_градиент_2"/><linearGradient id="Безымянный_градиент_2-182" x1="-628.31" y1="43.5" x2="603.8" y2="906.2" xlink:href="#Безымянный_градиент_2"/><linearGradient id="Безымянный_градиент_2-183" x1="-623.84" y1="37.12" x2="608.26" y2="899.82" xlink:href="#Безымянный_градиент_2"/><linearGradient id="Безымянный_градиент_2-184" x1="-668.21" y1="100.49" x2="563.89" y2="963.19" xlink:href="#Безымянный_градиент_2"/><linearGradient id="Безымянный_градиент_2-185" x1="-664.14" y1="94.67" x2="567.97" y2="957.37" xlink:href="#Безымянный_градиент_2"/><linearGradient id="Безымянный_градиент_2-186" x1="-660.46" y1="89.43" x2="571.64" y2="952.13" xlink:href="#Безымянный_градиент_2"/><linearGradient id="Безымянный_градиент_2-187" x1="-658.67" y1="86.86" x2="573.44" y2="949.56" xlink:href="#Безымянный_градиент_2"/><linearGradient id="Безымянный_градиент_2-188" x1="-653.1" y1="78.92" x2="579" y2="941.62" xlink:href="#Безымянный_градиент_2"/><linearGradient id="Безымянный_градиент_2-189" x1="-648.15" y1="71.84" x2="583.96" y2="934.54" xlink:href="#Безымянный_градиент_2"/><linearGradient id="Безымянный_градиент_2-190" x1="-645.5" y1="68.05" x2="586.61" y2="930.75" xlink:href="#Безымянный_градиент_2"/><linearGradient id="Безымянный_градиент_2-191" x1="-639.67" y1="59.73" x2="592.44" y2="922.42" xlink:href="#Безымянный_градиент_2"/><linearGradient id="Безымянный_градиент_2-192" x1="-635.43" y1="53.67" x2="596.68" y2="916.37" xlink:href="#Безымянный_градиент_2"/><linearGradient id="Безымянный_градиент_2-193" x1="-630.82" y1="47.09" x2="601.29" y2="909.79" xlink:href="#Безымянный_градиент_2"/><linearGradient id="Безымянный_градиент_2-194" x1="-627.03" y1="41.67" x2="605.08" y2="904.37" xlink:href="#Безымянный_градиент_2"/><linearGradient id="Безымянный_градиент_2-195" x1="-622.79" y1="35.62" x2="609.32" y2="898.32" xlink:href="#Безымянный_градиент_2"/><linearGradient id="Безымянный_градиент_2-196" x1="-617.79" y1="28.48" x2="614.32" y2="891.18" xlink:href="#Безымянный_градиент_2"/><linearGradient id="Безымянный_градиент_2-197" x1="-612.56" y1="21.02" x2="619.54" y2="883.72" xlink:href="#Безымянный_градиент_2"/><linearGradient id="Безымянный_градиент_2-198" x1="-607.84" y1="14.27" x2="624.27" y2="876.97" xlink:href="#Безымянный_градиент_2"/><linearGradient id="Безымянный_градиент_2-199" x1="-602.74" y1="6.99" x2="629.36" y2="869.69" xlink:href="#Безымянный_градиент_2"/><linearGradient id="Безымянный_градиент_2-200" x1="-596.26" y1="-2.27" x2="635.84" y2="860.43" xlink:href="#Безымянный_градиент_2"/><linearGradient id="Безымянный_градиент_2-201" x1="-593.08" y1="-6.8" x2="639.02" y2="855.89" xlink:href="#Безымянный_градиент_2"/><linearGradient id="Безымянный_градиент_2-202" x1="-587.47" y1="-14.82" x2="644.63" y2="847.88" xlink:href="#Безымянный_градиент_2"/><linearGradient id="Безымянный_градиент_2-203" x1="-583.36" y1="-20.69" x2="648.74" y2="842.01" xlink:href="#Безымянный_градиент_2"/><linearGradient id="Безымянный_градиент_2-204" x1="-579.26" y1="-26.54" x2="652.84" y2="836.16" xlink:href="#Безымянный_градиент_2"/><linearGradient id="Безымянный_градиент_2-205" x1="-575.56" y1="-31.83" x2="656.54" y2="830.87" xlink:href="#Безымянный_градиент_2"/><linearGradient id="Безымянный_градиент_2-206" x1="-572.81" y1="-35.76" x2="659.29" y2="826.94" xlink:href="#Безымянный_градиент_2"/><linearGradient id="Безымянный_градиент_2-207" x1="-568.15" y1="-42.41" x2="663.95" y2="820.29" xlink:href="#Безымянный_градиент_2"/><linearGradient id="Безымянный_градиент_2-208" x1="-702.23" y1="149.08" x2="529.87" y2="1011.78" xlink:href="#Безымянный_градиент_2"/><linearGradient id="Безымянный_градиент_2-209" x1="-697.58" y1="142.43" x2="534.53" y2="1005.13" xlink:href="#Безымянный_градиент_2"/><linearGradient id="Безымянный_градиент_2-210" x1="-695.24" y1="139.1" x2="536.87" y2="1001.79" xlink:href="#Безымянный_градиент_2"/><linearGradient id="Безымянный_градиент_2-211" x1="-691.38" y1="133.59" x2="540.72" y2="996.29" xlink:href="#Безымянный_градиент_2"/><linearGradient id="Безымянный_градиент_2-212" x1="-686.92" y1="127.21" x2="545.19" y2="989.91" xlink:href="#Безымянный_градиент_2"/><linearGradient id="Безымянный_градиент_2-213" x1="-684.03" y1="123.08" x2="548.08" y2="985.78" xlink:href="#Безымянный_градиент_2"/><linearGradient id="Безымянный_градиент_2-214" x1="-680.78" y1="118.44" x2="551.33" y2="981.14" xlink:href="#Безымянный_градиент_2"/><linearGradient id="Безымянный_градиент_2-215" x1="-676.84" y1="112.82" x2="555.27" y2="975.51" xlink:href="#Безымянный_градиент_2"/><linearGradient id="Безымянный_градиент_2-216" x1="-675.66" y1="111.13" x2="556.45" y2="973.83" xlink:href="#Безымянный_градиент_2"/><linearGradient id="Безымянный_градиент_2-217" x1="-671.8" y1="105.62" x2="560.3" y2="968.32" xlink:href="#Безымянный_градиент_2"/><linearGradient id="Безымянный_градиент_2-218" x1="-667.34" y1="99.24" x2="564.77" y2="961.94" xlink:href="#Безымянный_градиент_2"/><linearGradient id="Безымянный_градиент_2-219" x1="-712.47" y1="163.71" x2="519.63" y2="1026.41" xlink:href="#Безымянный_градиент_2"/><linearGradient id="Безымянный_градиент_2-220" x1="-709" y1="158.74" x2="523.11" y2="1021.44" xlink:href="#Безымянный_градиент_2"/><linearGradient id="Безымянный_градиент_2-221" x1="-704.04" y1="151.67" x2="528.06" y2="1014.37" xlink:href="#Безымянный_градиент_2"/><linearGradient id="Безымянный_градиент_2-222" x1="-699.6" y1="145.32" x2="532.51" y2="1008.02" xlink:href="#Безымянный_градиент_2"/><linearGradient id="Безымянный_градиент_2-223" x1="-746.87" y1="212.83" x2="485.24" y2="1075.53" xlink:href="#Безымянный_градиент_2"/><linearGradient id="Безымянный_градиент_2-224" x1="-742.93" y1="207.21" x2="489.18" y2="1069.9" xlink:href="#Безымянный_градиент_2"/><linearGradient id="Безымянный_градиент_2-225" x1="-741.75" y1="205.52" x2="490.36" y2="1068.22" xlink:href="#Безымянный_градиент_2"/><linearGradient id="Безымянный_градиент_2-226" x1="-737.89" y1="200.01" x2="494.21" y2="1062.71" xlink:href="#Безымянный_градиент_2"/><linearGradient id="Безымянный_градиент_2-227" x1="-733.43" y1="193.63" x2="498.68" y2="1056.33" xlink:href="#Безымянный_градиент_2"/><linearGradient id="Безымянный_градиент_2-228" x1="-730.54" y1="189.51" x2="501.57" y2="1052.2" xlink:href="#Безымянный_градиент_2"/><linearGradient id="Безымянный_градиент_2-229" x1="-727.29" y1="184.87" x2="504.82" y2="1047.57" xlink:href="#Безымянный_градиент_2"/><linearGradient id="Безымянный_градиент_2-230" x1="-722.83" y1="178.5" x2="509.27" y2="1041.2" xlink:href="#Безымянный_градиент_2"/><linearGradient id="Безымянный_градиент_2-231" x1="-720.85" y1="175.68" x2="511.25" y2="1038.38" xlink:href="#Безымянный_градиент_2"/><linearGradient id="Безымянный_градиент_2-232" x1="-717" y1="170.17" x2="515.11" y2="1032.87" xlink:href="#Безымянный_градиент_2"/><linearGradient id="Безымянный_градиент_2-233" x1="-712.53" y1="163.79" x2="519.57" y2="1026.49" xlink:href="#Безымянный_градиент_2"/><linearGradient id="Безымянный_градиент_2-234" x1="-756.87" y1="227.11" x2="475.24" y2="1089.81" xlink:href="#Безымянный_градиент_2"/><linearGradient id="Безымянный_градиент_2-235" x1="-754.97" y1="224.41" x2="477.13" y2="1087.11" xlink:href="#Безымянный_градиент_2"/><linearGradient id="Безымянный_градиент_2-236" x1="-750.42" y1="217.9" x2="481.69" y2="1080.6" xlink:href="#Безымянный_градиент_2"/><linearGradient id="Безымянный_градиент_2-237" x1="-746.1" y1="211.73" x2="486.01" y2="1074.43" xlink:href="#Безымянный_градиент_2"/><linearGradient id="Безымянный_градиент_2-238" x1="-741.87" y1="205.69" x2="490.24" y2="1068.39" xlink:href="#Безымянный_градиент_2"/><linearGradient id="Безымянный_градиент_2-239" x1="-738.8" y1="201.3" x2="493.31" y2="1064" xlink:href="#Безымянный_градиент_2"/><linearGradient id="Безымянный_градиент_2-240" x1="-733.58" y1="193.85" x2="498.53" y2="1056.55" xlink:href="#Безымянный_градиент_2"/><linearGradient id="Безымянный_градиент_2-241" x1="-730.64" y1="189.65" x2="501.47" y2="1052.35" xlink:href="#Безымянный_градиент_2"/><linearGradient id="Безымянный_градиент_2-242" x1="-726.57" y1="183.85" x2="505.53" y2="1046.55" xlink:href="#Безымянный_градиент_2"/><linearGradient id="Безымянный_градиент_2-243" x1="-722.87" y1="178.56" x2="509.23" y2="1041.26" xlink:href="#Безымянный_градиент_2"/><linearGradient id="Безымянный_градиент_2-244" x1="-719.01" y1="173.05" x2="513.09" y2="1035.75" xlink:href="#Безымянный_градиент_2"/><linearGradient id="Безымянный_градиент_2-245" x1="-714.74" y1="166.95" x2="517.36" y2="1029.65" xlink:href="#Безымянный_градиент_2"/><linearGradient id="Безымянный_градиент_2-246" x1="-708.49" y1="158.02" x2="523.61" y2="1020.72" xlink:href="#Безымянный_градиент_2"/><linearGradient id="Безымянный_градиент_2-247" x1="-704.17" y1="151.85" x2="527.93" y2="1014.55" xlink:href="#Безымянный_градиент_2"/><linearGradient id="Безымянный_градиент_2-248" x1="-700.03" y1="145.94" x2="532.07" y2="1008.64" xlink:href="#Безымянный_градиент_2"/><linearGradient id="Безымянный_градиент_2-249" x1="-696.36" y1="140.69" x2="535.75" y2="1003.39" xlink:href="#Безымянный_градиент_2"/><linearGradient id="Безымянный_градиент_2-250" x1="-693.66" y1="136.84" x2="538.45" y2="999.54" xlink:href="#Безымянный_градиент_2"/><linearGradient id="Безымянный_градиент_2-251" x1="-690.72" y1="132.63" x2="541.39" y2="995.33" xlink:href="#Безымянный_градиент_2"/><linearGradient id="Безымянный_градиент_2-252" x1="-685.79" y1="125.6" x2="546.31" y2="988.3" xlink:href="#Безымянный_градиент_2"/><linearGradient id="Безымянный_градиент_2-253" x1="-682.49" y1="120.88" x2="549.62" y2="983.58" xlink:href="#Безымянный_градиент_2"/><linearGradient id="Безымянный_градиент_2-254" x1="-679.15" y1="116.12" x2="552.95" y2="978.82" xlink:href="#Безымянный_градиент_2"/><linearGradient id="Безымянный_градиент_2-255" x1="-675.03" y1="110.23" x2="557.08" y2="972.93" xlink:href="#Безымянный_градиент_2"/><linearGradient id="Безымянный_градиент_2-256" x1="-670.89" y1="104.31" x2="561.22" y2="967.01" xlink:href="#Безымянный_градиент_2"/><linearGradient id="Безымянный_градиент_2-257" x1="-667.28" y1="99.16" x2="564.82" y2="961.86" xlink:href="#Безымянный_градиент_2"/><linearGradient id="Безымянный_градиент_2-258" x1="-663.18" y1="93.3" x2="568.93" y2="956" xlink:href="#Безымянный_градиент_2"/></defs><g id="Слой_2" data-name="Слой 2"><g id="Слой_1-2" data-name="Слой 1"><rect class="cls-1" x="10.75" y="120.92" width="5" height="73.37"/><rect class="cls-2" x="10.75" y="311.66" width="5" height="73.38"/><rect class="cls-3" x="10.75" y="502.42" width="5" height="73.37"/><rect class="cls-4" x="10.75" y="693.16" width="5" height="74.38"/><rect class="cls-5" x="10.75" y="597.79" width="5" height="73.37"/><rect class="cls-6" x="10.75" y="407.04" width="5" height="73.38"/><rect class="cls-7" x="10.75" y="216.29" width="5" height="73.37"/><rect class="cls-8" x="10.75" y="25.04" width="5" height="73.88"/><path class="cls-9" d="M13.5,28A13.5,13.5,0,1,1,27,14.54,13.52,13.52,0,0,1,13.5,28Zm0-22a8.5,8.5,0,1,0,8.5,8.5A8.51,8.51,0,0,0,13.5,6Z"/><path class="cls-10" d="M13.5,123.42A13.5,13.5,0,1,1,27,109.92,13.52,13.52,0,0,1,13.5,123.42Zm0-22a8.5,8.5,0,1,0,8.5,8.5A8.51,8.51,0,0,0,13.5,101.42Z"/><path class="cls-11" d="M13.5,218.79A13.5,13.5,0,1,1,27,205.29,13.52,13.52,0,0,1,13.5,218.79Zm0-22a8.5,8.5,0,1,0,8.5,8.5A8.51,8.51,0,0,0,13.5,196.79Z"/><path class="cls-12" d="M13.5,314.17A13.5,13.5,0,1,1,27,300.67,13.52,13.52,0,0,1,13.5,314.17Zm0-22a8.5,8.5,0,1,0,8.5,8.5A8.51,8.51,0,0,0,13.5,292.17Z"/><path class="cls-13" d="M13.5,409.54A13.5,13.5,0,1,1,27,396,13.52,13.52,0,0,1,13.5,409.54Zm0-22A8.5,8.5,0,1,0,22,396,8.51,8.51,0,0,0,13.5,387.54Z"/><path class="cls-14" d="M13.5,504.92A13.5,13.5,0,1,1,27,491.42,13.52,13.52,0,0,1,13.5,504.92Zm0-22a8.5,8.5,0,1,0,8.5,8.5A8.51,8.51,0,0,0,13.5,482.92Z"/><path class="cls-15" d="M13.5,600.29A13.5,13.5,0,1,1,27,586.79,13.52,13.52,0,0,1,13.5,600.29Zm0-22a8.5,8.5,0,1,0,8.5,8.5A8.51,8.51,0,0,0,13.5,578.29Z"/><path class="cls-16" d="M13.5,695.67A13.5,13.5,0,1,1,27,682.17,13.52,13.52,0,0,1,13.5,695.67Zm0-22a8.5,8.5,0,1,0,8.5,8.5A8.51,8.51,0,0,0,13.5,673.67Z"/><path class="cls-17" d="M13.5,791A13.5,13.5,0,1,1,27,777.54,13.52,13.52,0,0,1,13.5,791Zm0-22a8.5,8.5,0,1,0,8.5,8.5A8.51,8.51,0,0,0,13.5,769Z"/><path class="cls-18" d="M45.62,7.24c0-4.62,2.56-7.24,6-7.24s6,2.62,6,7.24-2.54,7.24-6,7.24S45.62,11.86,45.62,7.24Zm8.74,0c0-3.18-1.12-4.5-2.74-4.5S48.9,4.06,48.9,7.24s1.12,4.5,2.72,4.5S54.36,10.42,54.36,7.24Z"/><path class="cls-19" d="M64.48.24v14H61.24V2.84h-2.8V.24Z"/><path class="cls-20" d="M66.82,5.26a1.94,1.94,0,0,1,3.88,0,1.94,1.94,0,1,1-3.88,0Zm0,7.18a1.94,1.94,0,0,1,3.88,0,1.94,1.94,0,1,1-3.88,0Z"/><path class="cls-21" d="M72.16,7.24c0-4.62,2.56-7.24,6-7.24s6,2.62,6,7.24-2.54,7.24-6,7.24S72.16,11.86,72.16,7.24Zm8.74,0c0-3.18-1.12-4.5-2.74-4.5s-2.72,1.32-2.72,4.5,1.12,4.5,2.72,4.5S80.9,10.42,80.9,7.24Z"/><path class="cls-22" d="M85.74,7.24c0-4.62,2.56-7.24,6-7.24s6,2.62,6,7.24-2.54,7.24-6,7.24S85.74,11.86,85.74,7.24Zm8.74,0c0-3.18-1.12-4.5-2.74-4.5S89,4.06,89,7.24s1.12,4.5,2.72,4.5S94.48,10.42,94.48,7.24Z"/><path class="cls-23" d="M99.66,7.36h5.66v2.5H99.66Z"/><path class="cls-24" d="M107.2,7.24c0-4.62,2.56-7.24,6-7.24s6,2.62,6,7.24-2.54,7.24-6,7.24S107.2,11.86,107.2,7.24Zm8.74,0c0-3.18-1.12-4.5-2.74-4.5s-2.72,1.32-2.72,4.5,1.12,4.5,2.72,4.5S115.94,10.42,115.94,7.24Z"/><path class="cls-25" d="M131.12,11.6v2.64H120.54v-2.1l5.4-5.1c1.24-1.18,1.46-1.9,1.46-2.58,0-1.1-.76-1.74-2.24-1.74a3.42,3.42,0,0,0-2.9,1.4L119.9,2.6A6.5,6.5,0,0,1,125.46,0c3.12,0,5.2,1.6,5.2,4.14,0,1.36-.38,2.6-2.34,4.42l-3.22,3Z"/><path class="cls-26" d="M132.36,5.26a1.94,1.94,0,0,1,3.88,0,1.94,1.94,0,1,1-3.88,0Zm0,7.18a1.94,1.94,0,0,1,3.88,0,1.94,1.94,0,1,1-3.88,0Z"/><path class="cls-27" d="M137.7,7.24c0-4.62,2.56-7.24,6-7.24s6,2.62,6,7.24-2.54,7.24-6,7.24S137.7,11.86,137.7,7.24Zm8.74,0c0-3.18-1.12-4.5-2.74-4.5S141,4.06,141,7.24s1.12,4.5,2.72,4.5S146.44,10.42,146.44,7.24Z"/><path class="cls-28" d="M151.28,7.24c0-4.62,2.56-7.24,6-7.24s6,2.62,6,7.24-2.54,7.24-6,7.24S151.28,11.86,151.28,7.24Zm8.74,0c0-3.18-1.12-4.5-2.74-4.5s-2.72,1.32-2.72,4.5,1.12,4.5,2.72,4.5S160,10.42,160,7.24Z"/><path class="cls-29" d="M58.76,24.24v14h-1V31.58H48.38v6.66h-1v-14h1v6.44h9.36V24.24Z"/><path class="cls-30" d="M62.38,33a5.22,5.22,0,1,1,10.44,0,5.22,5.22,0,1,1-10.44,0Zm9.42,0a4.2,4.2,0,1,0-8.4,0,4.2,4.2,0,1,0,8.4,0Z"/><path class="cls-31" d="M83.58,27.8V38.24h-1v-4.5a9,9,0,0,1-3.72.86c-2.38,0-3.94-1.08-3.94-3.32V27.8h1v3.42c0,1.66,1.2,2.54,3.08,2.54a9.47,9.47,0,0,0,3.58-.82V27.8Z"/><path class="cls-32" d="M87.9,27.8h1v4.76H96V27.8h1V38.24H96v-4.8H88.9v4.8h-1Z"/><path class="cls-33" d="M100.24,33a5.22,5.22,0,1,1,10.44,0,5.22,5.22,0,1,1-10.44,0Zm9.42,0a4.2,4.2,0,1,0-8.4,0,4.2,4.2,0,1,0,8.4,0Z"/><path class="cls-34" d="M113.94,27.8h1v8.9l7.44-8.9h.88V38.24h-1v-8.9l-7.44,8.9h-.88Zm1.78-4.06h.74a1.9,1.9,0,0,0,2.1,1.78,1.87,1.87,0,0,0,2.08-1.78h.76a2.87,2.87,0,0,1-5.68,0Z"/><path class="cls-35" d="M141.84,27.8V38.24h-1V28.7h-7.12v9.54h-1V27.8Z"/><path class="cls-36" d="M155.06,33.26h-9a4.47,4.47,0,0,0,7.76,2.7l.58.66a5,5,0,0,1-3.94,1.7A5.13,5.13,0,0,1,145.1,33a5,5,0,1,1,10,0C155.08,33.06,155.06,33.16,155.06,33.26Zm-9-.78h8a4,4,0,0,0-8,0Z"/><path class="cls-37" d="M168.76,33a5,5,0,0,1-5.16,5.3,4.67,4.67,0,0,1-4.24-2.46v6.26h-1V27.8h1v2.46a4.67,4.67,0,0,1,4.28-2.54A5.06,5.06,0,0,1,168.76,33Zm-1,0a4.21,4.21,0,1,0-8.42,0,4.21,4.21,0,1,0,8.42,0Z"/><path class="cls-38" d="M180.92,33.26h-9A4.47,4.47,0,0,0,179.7,36l.58.66a5,5,0,0,1-3.94,1.7A5.13,5.13,0,0,1,171,33a5,5,0,1,1,10,0C180.94,33.06,180.92,33.16,180.92,33.26Zm-9-.78h8a4,4,0,0,0-8,0Z"/><path class="cls-39" d="M187.74,33.4H185.2v4.84h-1V27.8h1v4.74h2.54l3.94-4.74h1.1l-4.24,5.06,4.56,5.38h-1.2Z"/><path class="cls-40" d="M203.46,27.8,198.1,39.66c-.84,1.92-1.88,2.54-3.26,2.54a3.33,3.33,0,0,1-2.42-.94l.5-.76a2.54,2.54,0,0,0,1.94.82c1,0,1.66-.44,2.3-1.86l.56-1.26L193,27.8h1.06l4.18,9.34,4.18-9.34Z"/><path class="cls-41" d="M204.52,33a5.09,5.09,0,0,1,5.28-5.3,4.58,4.58,0,0,1,4,1.92l-.74.54a3.81,3.81,0,0,0-3.22-1.56,4.14,4.14,0,0,0-4.26,4.4,4.14,4.14,0,0,0,4.26,4.4A3.81,3.81,0,0,0,213,35.86l.74.54a4.63,4.63,0,0,1-4,1.92A5.1,5.1,0,0,1,204.52,33Z"/><path class="cls-42" d="M45.62,103.24c0-4.62,2.56-7.24,6-7.24s6,2.62,6,7.24-2.54,7.24-6,7.24S45.62,107.86,45.62,103.24Zm8.74,0c0-3.18-1.12-4.5-2.74-4.5s-2.72,1.32-2.72,4.5,1.12,4.5,2.72,4.5S54.36,106.42,54.36,103.24Z"/><path class="cls-43" d="M69.78,105.84c0,2.48-1.82,4.64-5.82,4.64a9.67,9.67,0,0,1-5.34-1.5l1.28-2.48a6.74,6.74,0,0,0,4,1.26c1.62,0,2.62-.68,2.62-1.82s-.72-1.82-3.26-1.82H59.66l.72-7.88h8.54v2.6H63.08l-.22,2.66H64C68.14,101.5,69.78,103.36,69.78,105.84Z"/><path class="cls-44" d="M71,101.26a1.94,1.94,0,0,1,3.88,0,1.94,1.94,0,1,1-3.88,0Zm0,7.18a1.94,1.94,0,0,1,3.88,0,1.94,1.94,0,1,1-3.88,0Z"/><path class="cls-45" d="M76.34,103.24c0-4.62,2.56-7.24,6-7.24s6,2.62,6,7.24-2.54,7.24-6,7.24S76.34,107.86,76.34,103.24Zm8.74,0c0-3.18-1.12-4.5-2.74-4.5s-2.72,1.32-2.72,4.5,1.12,4.5,2.72,4.5S85.08,106.42,85.08,103.24Z"/><path class="cls-46" d="M89.92,103.24c0-4.62,2.56-7.24,6-7.24s6,2.62,6,7.24-2.54,7.24-6,7.24S89.92,107.86,89.92,103.24Zm8.74,0c0-3.18-1.12-4.5-2.74-4.5s-2.72,1.32-2.72,4.5,1.12,4.5,2.72,4.5S98.66,106.42,98.66,103.24Z"/><path class="cls-47" d="M103.84,103.36h5.66v2.5h-5.66Z"/><path class="cls-48" d="M111.38,103.24c0-4.62,2.56-7.24,6-7.24s6,2.62,6,7.24-2.54,7.24-6,7.24S111.38,107.86,111.38,103.24Zm8.74,0c0-3.18-1.12-4.5-2.74-4.5s-2.72,1.32-2.72,4.5,1.12,4.5,2.72,4.5S120.12,106.42,120.12,103.24Z"/><path class="cls-49" d="M136.52,105.82c0,2.86-2.34,4.66-5.3,4.66-3.86,0-6.26-2.42-6.26-6.94,0-4.84,2.92-7.54,7.14-7.54a7.56,7.56,0,0,1,3.9,1l-1.2,2.38a4.61,4.61,0,0,0-2.62-.7c-2.34,0-3.84,1.38-3.94,4.06a4.73,4.73,0,0,1,3.46-1.24C134.4,101.46,136.52,103.18,136.52,105.82Zm-3.14.16a2.11,2.11,0,0,0-2.38-2.1,2.19,2.19,0,0,0-2.42,2.1c0,1.2.9,2.08,2.46,2.08A2.09,2.09,0,0,0,133.38,106Z"/><path class="cls-50" d="M137.6,101.26a1.94,1.94,0,0,1,3.88,0,1.94,1.94,0,1,1-3.88,0Zm0,7.18a1.94,1.94,0,0,1,3.88,0,1.94,1.94,0,1,1-3.88,0Z"/><path class="cls-51" d="M142.94,103.24c0-4.62,2.56-7.24,6-7.24s6,2.62,6,7.24-2.54,7.24-6,7.24S142.94,107.86,142.94,103.24Zm8.74,0c0-3.18-1.12-4.5-2.74-4.5s-2.72,1.32-2.72,4.5,1.12,4.5,2.72,4.5S151.68,106.42,151.68,103.24Z"/><path class="cls-52" d="M156.52,103.24c0-4.62,2.56-7.24,6-7.24s6,2.62,6,7.24-2.54,7.24-6,7.24S156.52,107.86,156.52,103.24Zm8.74,0c0-3.18-1.12-4.5-2.74-4.5s-2.72,1.32-2.72,4.5,1.12,4.5,2.72,4.5S165.26,106.42,165.26,103.24Z"/><path class="cls-53" d="M51.74,127.6H48.38v6.64h-1v-14h1v6.44h3.38l5-6.44h1.14l-5.36,6.82,5.72,7.18h-1.2Z"/><path class="cls-54" d="M59.24,129a5.22,5.22,0,1,1,5.22,5.3A5.09,5.09,0,0,1,59.24,129Zm9.42,0a4.2,4.2,0,1,0-4.2,4.4A4.14,4.14,0,0,0,68.66,129Z"/><path class="cls-55" d="M78.94,134.34v3.78H78v-3.78c-3.88-.12-6.12-2.06-6.12-5.34s2.26-5.16,6.12-5.28V119.4h1v4.32c3.88.12,6.12,2,6.12,5.28S82.82,134.2,78.94,134.34Zm-1-.9v-8.82c-3.32.14-5.12,1.72-5.12,4.38S74.66,133.3,78,133.44ZM84.08,129c0-2.68-1.84-4.24-5.14-4.38v8.82C82.24,133.3,84.08,131.72,84.08,129Z"/><path class="cls-56" d="M97.2,129.26h-9A4.47,4.47,0,0,0,96,132l.58.66a5,5,0,0,1-3.94,1.7,5.13,5.13,0,0,1-5.38-5.3,5,5,0,1,1,10,0C97.22,129.06,97.2,129.16,97.2,129.26Zm-9-.78h8a4,4,0,0,0-8,0Z"/><path class="cls-57" d="M110.32,129.1a5,5,0,0,1-5.14,5.24c-3.48,0-5.4-2.7-5.4-6.82,0-4.74,1.72-6.8,5.24-7.64l4.62-1.12.16.94-4.4,1c-3.16.74-4.6,2.38-4.66,6.32a4.67,4.67,0,0,1,4.58-3.1A4.84,4.84,0,0,1,110.32,129.1Zm-1,0a4.11,4.11,0,1,0-8.22,0,4.12,4.12,0,1,0,8.22,0Z"/><path class="cls-58" d="M124,129a5,5,0,0,1-5.16,5.3,4.67,4.67,0,0,1-4.24-2.46v6.26h-1V123.8h1v2.46a4.67,4.67,0,0,1,4.28-2.54A5.06,5.06,0,0,1,124,129Zm-1,0a4.21,4.21,0,1,0-4.22,4.4A4.16,4.16,0,0,0,123,129Z"/><path class="cls-59" d="M136.18,129.26h-9A4.47,4.47,0,0,0,135,132l.58.66a5,5,0,0,1-3.94,1.7,5.13,5.13,0,0,1-5.38-5.3,5,5,0,1,1,10,0C136.2,129.06,136.18,129.16,136.18,129.26Zm-9-.78h8a4,4,0,0,0-8,0Z"/><path class="cls-60" d="M139.46,123.8h1v8.9l7.44-8.9h.88v10.44h-1v-8.9l-7.44,8.9h-.88Zm1.78-4.06H142a1.9,1.9,0,0,0,2.1,1.78,1.87,1.87,0,0,0,2.08-1.78h.76a2.87,2.87,0,0,1-5.68,0Z"/><path class="cls-61" d="M156.64,129.4H154.1v4.84h-1V123.8h1v4.74h2.54l3.94-4.74h1.1l-4.24,5.06,4.56,5.38h-1.2Z"/><path class="cls-62" d="M45.62,198.24c0-4.62,2.56-7.24,6-7.24s6,2.62,6,7.24-2.54,7.24-6,7.24S45.62,202.86,45.62,198.24Zm8.74,0c0-3.18-1.12-4.5-2.74-4.5s-2.72,1.32-2.72,4.5,1.12,4.5,2.72,4.5S54.36,201.42,54.36,198.24Z"/><path class="cls-63" d="M70.38,197.94c0,4.84-2.9,7.54-7.14,7.54a7.48,7.48,0,0,1-3.88-1l1.2-2.38a4.53,4.53,0,0,0,2.62.7c2.32,0,3.84-1.38,3.94-4.08A4.78,4.78,0,0,1,63.64,200c-2.7,0-4.82-1.72-4.82-4.36,0-2.86,2.34-4.66,5.3-4.66C68,191,70.38,193.42,70.38,197.94Zm-3.62-2.44c0-1.2-.9-2.08-2.44-2.08a2.11,2.11,0,1,0,0,4.18A2.17,2.17,0,0,0,66.76,195.5Z"/><path class="cls-64" d="M71.84,196.26a1.94,1.94,0,0,1,3.88,0,1.94,1.94,0,1,1-3.88,0Zm0,7.18a1.94,1.94,0,0,1,3.88,0,1.94,1.94,0,1,1-3.88,0Z"/><path class="cls-65" d="M77.18,198.24c0-4.62,2.56-7.24,6-7.24s6,2.62,6,7.24-2.54,7.24-6,7.24S77.18,202.86,77.18,198.24Zm8.74,0c0-3.18-1.12-4.5-2.74-4.5s-2.72,1.32-2.72,4.5,1.12,4.5,2.72,4.5S85.92,201.42,85.92,198.24Z"/><path class="cls-66" d="M90.76,198.24c0-4.62,2.56-7.24,6-7.24s6,2.62,6,7.24-2.54,7.24-6,7.24S90.76,202.86,90.76,198.24Zm8.74,0c0-3.18-1.12-4.5-2.74-4.5S94,195.06,94,198.24s1.12,4.5,2.72,4.5S99.5,201.42,99.5,198.24Z"/><path class="cls-67" d="M104.68,198.36h5.66v2.5h-5.66Z"/><path class="cls-68" d="M117.12,191.24v14h-3.24v-11.4h-2.8v-2.6Z"/><path class="cls-69" d="M119.56,198.24c0-4.62,2.56-7.24,6-7.24s6,2.62,6,7.24-2.54,7.24-6,7.24S119.56,202.86,119.56,198.24Zm8.74,0c0-3.18-1.12-4.5-2.74-4.5s-2.72,1.32-2.72,4.5,1.12,4.5,2.72,4.5S128.3,201.42,128.3,198.24Z"/><path class="cls-70" d="M133,196.26a1.94,1.94,0,0,1,3.88,0,1.94,1.94,0,1,1-3.88,0Zm0,7.18a1.94,1.94,0,0,1,3.88,0,1.94,1.94,0,1,1-3.88,0Z"/><path class="cls-71" d="M138.38,198.24c0-4.62,2.56-7.24,6-7.24s6,2.62,6,7.24-2.54,7.24-6,7.24S138.38,202.86,138.38,198.24Zm8.74,0c0-3.18-1.12-4.5-2.74-4.5s-2.72,1.32-2.72,4.5,1.12,4.5,2.72,4.5S147.12,201.42,147.12,198.24Z"/><path class="cls-72" d="M152,198.24c0-4.62,2.56-7.24,6-7.24s6,2.62,6,7.24-2.54,7.24-6,7.24S152,202.86,152,198.24Zm8.74,0c0-3.18-1.12-4.5-2.74-4.5s-2.72,1.32-2.72,4.5,1.12,4.5,2.72,4.5S160.7,201.42,160.7,198.24Z"/><path class="cls-73" d="M56,225.32c0,2.54-2.54,4-5.34,4a7.55,7.55,0,0,1-5.08-1.9l.42-.72a6.68,6.68,0,0,0,4.54,1.72c2.34,0,4.42-1.18,4.42-3.24,0-1.8-1.46-2.8-4-2.8H48.12v-.88H51c2.14,0,3.4-1,3.4-2.6,0-1.86-1.78-2.94-3.94-2.94a7.41,7.41,0,0,0-4,1.22l-.38-.86a8.44,8.44,0,0,1,4.42-1.28c2.7,0,5,1.4,5,3.74A3.14,3.14,0,0,1,53,221.92,3.46,3.46,0,0,1,56,225.32Z"/><path class="cls-74" d="M67.1,222.62v6.62h-1v-1.86a4,4,0,0,1-3.76,1.94c-2.34,0-3.76-1.2-3.76-3,0-1.58,1-2.92,3.9-2.92H66.1v-.84c0-1.94-1.06-3-3.1-3a5.42,5.42,0,0,0-3.6,1.32l-.5-.72a6.37,6.37,0,0,1,4.18-1.48C65.66,218.72,67.1,220,67.1,222.62Zm-1,3.54v-2H62.54c-2.16,0-2.92.9-2.92,2.1,0,1.36,1.06,2.2,2.9,2.2A3.58,3.58,0,0,0,66.1,226.16Z"/><path class="cls-75" d="M79.64,226.44c0,1.8-1.28,2.8-4,2.8H71.16V218.8h4.4c2.3,0,3.72.92,3.72,2.66a2.4,2.4,0,0,1-1.94,2.4A2.42,2.42,0,0,1,79.64,226.44Zm-7.5-2.88H75.5c1.78,0,2.78-.68,2.78-2s-1-2-2.78-2H72.14Zm6.5,2.84c0-1.42-.86-2.06-2.82-2.06H72.14v4.08h3.52C77.6,228.42,78.64,227.8,78.64,226.4Z"/><path class="cls-76" d="M90.18,219.7H86.1v9.54h-1V219.7H81v-.9h9.16Z"/><path class="cls-77" d="M102.74,224a5,5,0,0,1-5.16,5.3,4.67,4.67,0,0,1-4.24-2.46v6.26h-1V218.8h1v2.46a4.67,4.67,0,0,1,4.28-2.54A5.06,5.06,0,0,1,102.74,224Zm-1,0a4.21,4.21,0,1,0-4.22,4.4A4.16,4.16,0,0,0,101.74,224Z"/><path class="cls-78" d="M113.44,222.62v6.62h-1v-1.86a4,4,0,0,1-3.76,1.94c-2.34,0-3.76-1.2-3.76-3,0-1.58,1-2.92,3.9-2.92h3.58v-.84c0-1.94-1.06-3-3.1-3a5.42,5.42,0,0,0-3.6,1.32l-.5-.72a6.37,6.37,0,0,1,4.18-1.48C112,218.72,113.44,220,113.44,222.62Zm-1,3.54v-2h-3.56c-2.16,0-2.92.9-2.92,2.1,0,1.36,1.06,2.2,2.9,2.2A3.58,3.58,0,0,0,112.44,226.16Z"/><path class="cls-79" d="M121,224.4H118.5v4.84h-1V218.8h1v4.74H121L125,218.8h1.1l-4.24,5.06,4.56,5.38h-1.2Z"/><path class="cls-80" d="M51,286.24v14H47.78v-11.4H45v-2.6Z"/><path class="cls-81" d="M53.46,293.24c0-4.62,2.56-7.24,6-7.24s6,2.62,6,7.24-2.54,7.24-6,7.24S53.46,297.86,53.46,293.24Zm8.74,0c0-3.18-1.12-4.5-2.74-4.5s-2.72,1.32-2.72,4.5,1.12,4.5,2.72,4.5S62.2,296.42,62.2,293.24Z"/><path class="cls-82" d="M66.94,291.26a1.94,1.94,0,0,1,3.88,0,1.94,1.94,0,1,1-3.88,0Zm0,7.18a1.94,1.94,0,0,1,3.88,0,1.94,1.94,0,1,1-3.88,0Z"/><path class="cls-83" d="M72.28,293.24c0-4.62,2.56-7.24,6-7.24s6,2.62,6,7.24-2.54,7.24-6,7.24S72.28,297.86,72.28,293.24Zm8.74,0c0-3.18-1.12-4.5-2.74-4.5s-2.72,1.32-2.72,4.5,1.12,4.5,2.72,4.5S81,296.42,81,293.24Z"/><path class="cls-84" d="M85.86,293.24c0-4.62,2.56-7.24,6-7.24s6,2.62,6,7.24-2.54,7.24-6,7.24S85.86,297.86,85.86,293.24Zm8.74,0c0-3.18-1.12-4.5-2.74-4.5s-2.72,1.32-2.72,4.5,1.12,4.5,2.72,4.5S94.6,296.42,94.6,293.24Z"/><path class="cls-85" d="M99.78,293.36h5.66v2.5H99.78Z"/><path class="cls-86" d="M112.22,286.24v14H109v-11.4h-2.8v-2.6Z"/><path class="cls-87" d="M125,296c0,2.36-1.82,4.52-5.8,4.52a9.63,9.63,0,0,1-5.34-1.5l1.26-2.48a6.8,6.8,0,0,0,4,1.26c1.62,0,2.62-.66,2.62-1.8s-.78-1.72-2.62-1.72h-1.48V292.1l2.88-3.26h-6v-2.6h9.8v2.1l-3.16,3.6C123.72,292.34,125,293.9,125,296Z"/><path class="cls-88" d="M126.4,291.26a1.94,1.94,0,0,1,3.88,0,1.94,1.94,0,1,1-3.88,0Zm0,7.18a1.94,1.94,0,0,1,3.88,0,1.94,1.94,0,1,1-3.88,0Z"/><path class="cls-89" d="M131.74,293.24c0-4.62,2.56-7.24,6-7.24s6,2.62,6,7.24-2.54,7.24-6,7.24S131.74,297.86,131.74,293.24Zm8.74,0c0-3.18-1.12-4.5-2.74-4.5s-2.72,1.32-2.72,4.5,1.12,4.5,2.72,4.5S140.48,296.42,140.48,293.24Z"/><path class="cls-90" d="M145.32,293.24c0-4.62,2.56-7.24,6-7.24s6,2.62,6,7.24-2.54,7.24-6,7.24S145.32,297.86,145.32,293.24Zm8.74,0c0-3.18-1.12-4.5-2.74-4.5s-2.72,1.32-2.72,4.5,1.12,4.5,2.72,4.5S154.06,296.42,154.06,293.24Z"/><path class="cls-91" d="M51.74,317.6H48.38v6.64h-1v-14h1v6.44h3.38l5-6.44h1.14l-5.36,6.82,5.72,7.18h-1.2Z"/><path class="cls-92" d="M59.24,319a5.22,5.22,0,1,1,5.22,5.3A5.09,5.09,0,0,1,59.24,319Zm9.42,0a4.2,4.2,0,1,0-4.2,4.4A4.14,4.14,0,0,0,68.66,319Z"/><path class="cls-93" d="M72.94,313.8h1v4.76H81V313.8h1v10.44H81v-4.8H73.94v4.8h-1Z"/><path class="cls-94" d="M85.28,319a5.09,5.09,0,0,1,5.28-5.3,4.58,4.58,0,0,1,4,1.92l-.74.54a3.81,3.81,0,0,0-3.22-1.56,4.4,4.4,0,0,0,0,8.8,3.81,3.81,0,0,0,3.22-1.56l.74.54a4.63,4.63,0,0,1-4,1.92A5.1,5.1,0,0,1,85.28,319Z"/><path class="cls-95" d="M105.8,313.8l-5.36,11.86c-.84,1.92-1.88,2.54-3.26,2.54a3.33,3.33,0,0,1-2.42-.94l.5-.76a2.54,2.54,0,0,0,1.94.82c1,0,1.66-.44,2.3-1.86l.56-1.26-4.7-10.4h1.06l4.18,9.34,4.18-9.34Z"/><path class="cls-96" d="M116,313.8v10.44h-1V314.7h-5.44l-.14,2.78c-.2,3.66-.6,6.88-2.78,6.88a3.65,3.65,0,0,1-.86-.14l.1-.86a2.19,2.19,0,0,0,.48.08c1.78,0,2-3,2.14-6l.18-3.6Z"/><path class="cls-97" d="M128.48,320.88c0,2.22-1.48,3.42-4.22,3.4l-3.94,0V313.8h1v3.76l3.18,0C127.1,317.62,128.48,318.76,128.48,320.88Zm-1,0c0-1.7-1.08-2.48-3.22-2.52l-2.92,0v5.1l2.92,0C126.36,323.52,127.46,322.6,127.46,320.88Z"/><path class="cls-98" d="M137.28,314.7H133.2v9.54h-1V314.7h-4.08v-.9h9.16Z"/><path class="cls-99" d="M146.9,317.62v6.62h-1v-1.86a4,4,0,0,1-3.76,1.94c-2.34,0-3.76-1.2-3.76-3,0-1.58,1-2.92,3.9-2.92h3.58v-.84c0-1.94-1.06-3-3.1-3a5.42,5.42,0,0,0-3.6,1.32l-.5-.72a6.37,6.37,0,0,1,4.18-1.48C145.46,313.72,146.9,315,146.9,317.62Zm-1,3.54v-2h-3.56c-2.16,0-2.92.9-2.92,2.1,0,1.36,1.06,2.2,2.9,2.2A3.58,3.58,0,0,0,145.9,321.16Z"/><path class="cls-100" d="M161.62,323.36V327h-1v-2.72H151V313.8h1v9.56h6.92V313.8h1v9.56Z"/><path class="cls-101" d="M164.54,313.8h1v8.9l7.44-8.9h.88v10.44h-1v-8.9l-7.44,8.9h-.88Z"/><path class="cls-102" d="M178.18,313.8h1v8.9l7.44-8.9h.88v10.44h-1v-8.9l-7.44,8.9h-.88Z"/><path class="cls-103" d="M195.9,319a5.09,5.09,0,0,1,5.28-5.3,4.58,4.58,0,0,1,4,1.92l-.74.54a3.81,3.81,0,0,0-3.22-1.56,4.4,4.4,0,0,0,0,8.8,3.81,3.81,0,0,0,3.22-1.56l.74.54a4.63,4.63,0,0,1-4,1.92A5.1,5.1,0,0,1,195.9,319Z"/><path class="cls-104" d="M221.38,319a5.26,5.26,0,0,1-5.46,5.32,5.67,5.67,0,0,1-4.12-1.5l.58-.6a5,5,0,0,0,3.5,1.24,4.45,4.45,0,0,0,4.56-4.16h-5.9v-.78h5.88a4.42,4.42,0,0,0-4.54-4,5,5,0,0,0-3.5,1.26l-.58-.58a5.69,5.69,0,0,1,4.12-1.52A5.25,5.25,0,0,1,221.38,319Z"/><path class="cls-105" d="M228.14,319.4H225.6v4.84h-1V313.8h1v4.74h2.54l3.94-4.74h1.1l-4.24,5.06,4.56,5.38h-1.2Z"/><path class="cls-106" d="M234.52,319a5.09,5.09,0,0,1,5.28-5.3,4.58,4.58,0,0,1,4,1.92l-.74.54a3.81,3.81,0,0,0-3.22-1.56,4.4,4.4,0,0,0,0,8.8,3.81,3.81,0,0,0,3.22-1.56l.74.54a4.63,4.63,0,0,1-4,1.92A5.1,5.1,0,0,1,234.52,319Z"/><path class="cls-107" d="M255.84,313.8v10.44h-1V314.7h-7.12v9.54h-1V313.8Z"/><path class="cls-108" d="M269.06,319.26h-9a4.47,4.47,0,0,0,7.76,2.7l.58.66a5,5,0,0,1-3.94,1.7,5.13,5.13,0,0,1-5.38-5.3,5,5,0,1,1,10,0C269.08,319.06,269.06,319.16,269.06,319.26Zm-9-.78h8a4,4,0,0,0-8,0Z"/><path class="cls-109" d="M282.76,319a5,5,0,0,1-5.16,5.3,4.67,4.67,0,0,1-4.24-2.46v6.26h-1V313.8h1v2.46a4.67,4.67,0,0,1,4.28-2.54A5.06,5.06,0,0,1,282.76,319Zm-1,0a4.21,4.21,0,1,0-4.22,4.4A4.16,4.16,0,0,0,281.76,319Z"/><path class="cls-110" d="M292.6,314.7h-4.08v9.54h-1V314.7h-4.08v-.9h9.16Z"/><path class="cls-111" d="M302.22,317.62v6.62h-1v-1.86a4,4,0,0,1-3.76,1.94c-2.34,0-3.77-1.2-3.77-3,0-1.58,1-2.92,3.91-2.92h3.58v-.84c0-1.94-1.06-3-3.1-3a5.42,5.42,0,0,0-3.6,1.32l-.5-.72a6.37,6.37,0,0,1,4.18-1.48C300.78,313.72,302.22,315,302.22,317.62Zm-1,3.54v-2h-3.56c-2.16,0-2.92.9-2.92,2.1,0,1.36,1.06,2.2,2.9,2.2A3.58,3.58,0,0,0,301.22,321.16Z"/><path class="cls-112" d="M317.64,313.8v10.44h-.92V315.4l-4.54,7.5h-.46l-4.52-7.48v8.82h-.92V313.8h1l4.72,7.9,4.74-7.9Z"/><path class="cls-113" d="M322,313.8h1v8.9l7.44-8.9h.88v10.44h-1v-8.9l-7.44,8.9H322Z"/><path class="cls-114" d="M51,382.24v14H47.78v-11.4H45v-2.6Z"/><path class="cls-115" d="M66.28,393.3H64v2.94H60.84V393.3H53.3v-2.18l6.6-8.88h3.4l-6.12,8.42h3.76V388H64v2.62h2.28Z"/><path class="cls-116" d="M67.3,387.26a1.94,1.94,0,0,1,3.88,0,1.94,1.94,0,1,1-3.88,0Zm0,7.18a1.94,1.94,0,0,1,3.88,0,1.94,1.94,0,1,1-3.88,0Z"/><path class="cls-117" d="M72.64,389.24c0-4.62,2.56-7.24,6-7.24s6,2.62,6,7.24-2.54,7.24-6,7.24S72.64,393.86,72.64,389.24Zm8.74,0c0-3.18-1.12-4.5-2.74-4.5s-2.72,1.32-2.72,4.5,1.12,4.5,2.72,4.5S81.38,392.42,81.38,389.24Z"/><path class="cls-118" d="M86.22,389.24c0-4.62,2.56-7.24,6-7.24s6,2.62,6,7.24-2.54,7.24-6,7.24S86.22,393.86,86.22,389.24Zm8.74,0c0-3.18-1.12-4.5-2.74-4.5s-2.72,1.32-2.72,4.5,1.12,4.5,2.72,4.5S95,392.42,95,389.24Z"/><path class="cls-119" d="M100.14,389.36h5.66v2.5h-5.66Z"/><path class="cls-120" d="M112.58,382.24v14h-3.24v-11.4h-2.8v-2.6Z"/><path class="cls-121" d="M125.6,391.84c0,2.48-1.82,4.64-5.82,4.64a9.67,9.67,0,0,1-5.34-1.5l1.28-2.48a6.74,6.74,0,0,0,4,1.26c1.62,0,2.62-.68,2.62-1.82s-.72-1.82-3.26-1.82h-3.58l.72-7.88h8.54v2.6H118.9l-.22,2.66h1.14C124,387.5,125.6,389.36,125.6,391.84Z"/><path class="cls-122" d="M126.82,387.26a1.94,1.94,0,0,1,3.88,0,1.94,1.94,0,1,1-3.88,0Zm0,7.18a1.94,1.94,0,0,1,3.88,0,1.94,1.94,0,1,1-3.88,0Z"/><path class="cls-123" d="M132.16,389.24c0-4.62,2.56-7.24,6-7.24s6,2.62,6,7.24-2.54,7.24-6,7.24S132.16,393.86,132.16,389.24Zm8.74,0c0-3.18-1.12-4.5-2.74-4.5s-2.72,1.32-2.72,4.5,1.12,4.5,2.72,4.5S140.9,392.42,140.9,389.24Z"/><path class="cls-124" d="M145.74,389.24c0-4.62,2.56-7.24,6-7.24s6,2.62,6,7.24-2.54,7.24-6,7.24S145.74,393.86,145.74,389.24Zm8.74,0c0-3.18-1.12-4.5-2.74-4.5s-2.72,1.32-2.72,4.5,1.12,4.5,2.72,4.5S154.48,392.42,154.48,389.24Z"/><path class="cls-125" d="M45.94,413.24a7,7,0,0,1,7.26-7.1,6.67,6.67,0,0,1,5,1.94l-.64.66a5.86,5.86,0,0,0-4.3-1.66,6.16,6.16,0,1,0,0,12.32,5.88,5.88,0,0,0,4.3-1.68l.64.66a6.69,6.69,0,0,1-5,2A7,7,0,0,1,45.94,413.24Z"/><path class="cls-126" d="M66.22,409.72v1l-.24,0c-2.32,0-3.7,1.54-3.7,4.12v5.44h-1V409.8h1v2.28A4,4,0,0,1,66.22,409.72Z"/><path class="cls-127" d="M76.52,413.62v6.62h-1v-1.86a4,4,0,0,1-3.76,1.94c-2.34,0-3.76-1.2-3.76-3,0-1.58,1-2.92,3.9-2.92h3.58v-.84c0-1.94-1.06-3-3.1-3a5.42,5.42,0,0,0-3.6,1.32l-.5-.72a6.37,6.37,0,0,1,4.18-1.48C75.08,409.72,76.52,411,76.52,413.62Zm-1,3.54v-2H72c-2.16,0-2.92.9-2.92,2.1,0,1.36,1.06,2.2,2.9,2.2A3.58,3.58,0,0,0,75.52,417.16Z"/><path class="cls-128" d="M79.1,419l.46-.8a6.07,6.07,0,0,0,3.76,1.26c2.2,0,3.08-.78,3.08-2,0-3-6.92-.8-6.92-4.9,0-1.58,1.32-2.86,4-2.86a6.41,6.41,0,0,1,3.58,1l-.46.8a5.38,5.38,0,0,0-3.14-.94c-2,0-2.94.84-2.94,2,0,3.14,6.92.92,6.92,4.9,0,1.7-1.46,2.86-4.12,2.86A6.55,6.55,0,0,1,79.1,419Z"/><path class="cls-129" d="M99.54,414.14v6.1h-1v-6c0-2.36-1.26-3.6-3.38-3.6a3.72,3.72,0,0,0-4,4.06v5.56h-1V405.4h1V412a4.32,4.32,0,0,1,4.1-2.26C97.84,409.72,99.54,411.22,99.54,414.14Z"/><path class="cls-130" d="M102.78,414.42h5.14v.9h-5.14Z"/><path class="cls-131" d="M117.78,410.7H113.7v9.54h-1V410.7h-4.08v-.9h9.16Z"/><path class="cls-132" d="M128.34,415.26h-9a4.47,4.47,0,0,0,7.76,2.7l.58.66a5,5,0,0,1-3.94,1.7,5.13,5.13,0,0,1-5.38-5.3,5,5,0,1,1,10,0C128.36,415.06,128.34,415.16,128.34,415.26Zm-9-.78h8a4,4,0,0,0-8,0Z"/><path class="cls-133" d="M130.56,415a5.09,5.09,0,0,1,5.28-5.3,4.58,4.58,0,0,1,4,1.92l-.74.54a3.81,3.81,0,0,0-3.22-1.56,4.4,4.4,0,0,0,0,8.8,3.81,3.81,0,0,0,3.22-1.56l.74.54a4.63,4.63,0,0,1-4,1.92A5.1,5.1,0,0,1,130.56,415Z"/><path class="cls-134" d="M149.5,410.7h-4.08v9.54h-1V410.7h-4.08v-.9h9.16Z"/><path class="cls-135" d="M156.78,409.8h1v8.9l7.44-8.9h.88v10.44h-1v-8.9l-7.44,8.9h-.88Z"/><path class="cls-136" d="M180.24,419.36v3.48h-.94v-2.6h-9.88v2.6h-1v-3.48h.62c1.58-.1,1.84-3.12,2-6.12l.14-3.44h7.34v9.56Zm-9.72,0h7V410.7h-5.44l-.12,2.6C171.9,415.86,171.66,418.58,170.52,419.36Z"/><path class="cls-137" d="M192.1,415.26h-9a4.47,4.47,0,0,0,7.76,2.7l.58.66a5,5,0,0,1-3.94,1.7,5.13,5.13,0,0,1-5.38-5.3,5,5,0,1,1,10,0C192.12,415.06,192.1,415.16,192.1,415.26Zm-9-.78h8a4,4,0,0,0-8,0Z"/><path class="cls-138" d="M195.38,409.8h1v8.9l7.44-8.9h.88v10.44h-1v-8.9l-7.44,8.9h-.88Zm1.78-4.06h.74a1.9,1.9,0,0,0,2.1,1.78,1.87,1.87,0,0,0,2.08-1.78h.76a2.87,2.87,0,0,1-5.68,0Z"/><path class="cls-139" d="M51,477.24v14H47.78v-11.4H45v-2.6Z"/><path class="cls-140" d="M64,486.84c0,2.48-1.82,4.64-5.82,4.64a9.67,9.67,0,0,1-5.34-1.5l1.28-2.48a6.74,6.74,0,0,0,4,1.26c1.62,0,2.62-.68,2.62-1.82s-.72-1.82-3.26-1.82H53.92l.72-7.88h8.54v2.6H57.34l-.22,2.66h1.14C62.4,482.5,64,484.36,64,486.84Z"/><path class="cls-141" d="M65.26,482.26a1.94,1.94,0,0,1,3.88,0,1.94,1.94,0,1,1-3.88,0Zm0,7.18a1.94,1.94,0,0,1,3.88,0,1.94,1.94,0,1,1-3.88,0Z"/><path class="cls-142" d="M70.6,484.24c0-4.62,2.56-7.24,6-7.24s6,2.62,6,7.24-2.54,7.24-6,7.24S70.6,488.86,70.6,484.24Zm8.74,0c0-3.18-1.12-4.5-2.74-4.5s-2.72,1.32-2.72,4.5,1.12,4.5,2.72,4.5S79.34,487.42,79.34,484.24Z"/><path class="cls-143" d="M84.18,484.24c0-4.62,2.56-7.24,6-7.24s6,2.62,6,7.24-2.54,7.24-6,7.24S84.18,488.86,84.18,484.24Zm8.74,0c0-3.18-1.12-4.5-2.74-4.5s-2.72,1.32-2.72,4.5,1.12,4.5,2.72,4.5S92.92,487.42,92.92,484.24Z"/><path class="cls-144" d="M98.1,484.36h5.66v2.5H98.1Z"/><path class="cls-145" d="M110.54,477.24v14H107.3v-11.4h-2.8v-2.6Z"/><path class="cls-146" d="M123.94,477.24v2.1l-5.2,11.9h-3.52l5-11.36H115.6v2.28h-2.88v-4.92Z"/><path class="cls-147" d="M124.88,482.26a1.94,1.94,0,0,1,3.88,0,1.94,1.94,0,1,1-3.88,0Zm0,7.18a1.94,1.94,0,0,1,3.88,0,1.94,1.94,0,1,1-3.88,0Z"/><path class="cls-148" d="M130.22,484.24c0-4.62,2.56-7.24,6-7.24s6,2.62,6,7.24-2.54,7.24-6,7.24S130.22,488.86,130.22,484.24Zm8.74,0c0-3.18-1.12-4.5-2.74-4.5s-2.72,1.32-2.72,4.5,1.12,4.5,2.72,4.5S139,487.42,139,484.24Z"/><path class="cls-149" d="M143.8,484.24c0-4.62,2.56-7.24,6-7.24s6,2.62,6,7.24-2.54,7.24-6,7.24S143.8,488.86,143.8,484.24Zm8.74,0c0-3.18-1.12-4.5-2.74-4.5s-2.72,1.32-2.72,4.5,1.12,4.5,2.72,4.5S152.54,487.42,152.54,484.24Z"/><path class="cls-150" d="M51.74,508.6H48.38v6.64h-1v-14h1v6.44h3.38l5-6.44h1.14l-5.36,6.82,5.72,7.18h-1.2Z"/><path class="cls-151" d="M59.24,510a5.22,5.22,0,1,1,5.22,5.3A5.09,5.09,0,0,1,59.24,510Zm9.42,0a4.2,4.2,0,1,0-4.2,4.4A4.14,4.14,0,0,0,68.66,510Z"/><path class="cls-152" d="M72.94,504.8h1v4.76H81V504.8h1v10.44H81v-4.8H73.94v4.8h-1Z"/><path class="cls-153" d="M85.28,510a5.09,5.09,0,0,1,5.28-5.3,4.58,4.58,0,0,1,4,1.92l-.74.54a3.81,3.81,0,0,0-3.22-1.56,4.4,4.4,0,0,0,0,8.8,3.81,3.81,0,0,0,3.22-1.56l.74.54a4.63,4.63,0,0,1-4,1.92A5.1,5.1,0,0,1,85.28,510Z"/><path class="cls-154" d="M105.8,504.8l-5.36,11.86c-.84,1.92-1.88,2.54-3.26,2.54a3.33,3.33,0,0,1-2.42-.94l.5-.76a2.54,2.54,0,0,0,1.94.82c1,0,1.66-.44,2.3-1.86l.56-1.26-4.7-10.4h1.06l4.18,9.34,4.18-9.34Z"/><path class="cls-155" d="M116,504.8v10.44h-1V505.7h-5.44l-.14,2.78c-.2,3.66-.6,6.88-2.78,6.88a3.65,3.65,0,0,1-.86-.14l.1-.86a2.19,2.19,0,0,0,.48.08c1.78,0,2-3,2.14-6l.18-3.6Z"/><path class="cls-156" d="M128.48,511.88c0,2.22-1.48,3.42-4.22,3.4l-3.94,0V504.8h1v3.76l3.18,0C127.1,508.62,128.48,509.76,128.48,511.88Zm-1,0c0-1.7-1.08-2.48-3.22-2.52l-2.92,0v5.1l2.92,0C126.36,514.52,127.46,513.6,127.46,511.88Z"/><path class="cls-157" d="M137.28,505.7H133.2v9.54h-1V505.7h-4.08v-.9h9.16Z"/><path class="cls-158" d="M146.9,508.62v6.62h-1v-1.86a4,4,0,0,1-3.76,1.94c-2.34,0-3.76-1.2-3.76-3,0-1.58,1-2.92,3.9-2.92h3.58v-.84c0-1.94-1.06-3-3.1-3a5.42,5.42,0,0,0-3.6,1.32l-.5-.72a6.37,6.37,0,0,1,4.18-1.48C145.46,504.72,146.9,506,146.9,508.62Zm-1,3.54v-2h-3.56c-2.16,0-2.92.9-2.92,2.1,0,1.36,1.06,2.2,2.9,2.2A3.58,3.58,0,0,0,145.9,512.16Z"/><path class="cls-159" d="M161.62,514.36V518h-1v-2.72H151V504.8h1v9.56h6.92V504.8h1v9.56Z"/><path class="cls-160" d="M164.54,504.8h1v8.9l7.44-8.9h.88v10.44h-1v-8.9l-7.44,8.9h-.88Z"/><path class="cls-161" d="M178.18,504.8h1v8.9l7.44-8.9h.88v10.44h-1v-8.9l-7.44,8.9h-.88Z"/><path class="cls-162" d="M195.9,510a5.09,5.09,0,0,1,5.28-5.3,4.58,4.58,0,0,1,4,1.92l-.74.54a3.81,3.81,0,0,0-3.22-1.56,4.4,4.4,0,0,0,0,8.8,3.81,3.81,0,0,0,3.22-1.56l.74.54a4.63,4.63,0,0,1-4,1.92A5.1,5.1,0,0,1,195.9,510Z"/><path class="cls-163" d="M221.38,510a5.26,5.26,0,0,1-5.46,5.32,5.67,5.67,0,0,1-4.12-1.5l.58-.6a5,5,0,0,0,3.5,1.24,4.45,4.45,0,0,0,4.56-4.16h-5.9v-.78h5.88a4.42,4.42,0,0,0-4.54-4,5,5,0,0,0-3.5,1.26l-.58-.58a5.69,5.69,0,0,1,4.12-1.52A5.25,5.25,0,0,1,221.38,510Z"/><path class="cls-164" d="M228.14,510.4H225.6v4.84h-1V504.8h1v4.74h2.54l3.94-4.74h1.1l-4.24,5.06,4.56,5.38h-1.2Z"/><path class="cls-165" d="M234.52,510a5.09,5.09,0,0,1,5.28-5.3,4.58,4.58,0,0,1,4,1.92l-.74.54a3.81,3.81,0,0,0-3.22-1.56,4.4,4.4,0,0,0,0,8.8,3.81,3.81,0,0,0,3.22-1.56l.74.54a4.63,4.63,0,0,1-4,1.92A5.1,5.1,0,0,1,234.52,510Z"/><path class="cls-166" d="M255.84,504.8v10.44h-1V505.7h-7.12v9.54h-1V504.8Z"/><path class="cls-167" d="M269.06,510.26h-9a4.47,4.47,0,0,0,7.76,2.7l.58.66a5,5,0,0,1-3.94,1.7,5.13,5.13,0,0,1-5.38-5.3,5,5,0,1,1,10,0C269.08,510.06,269.06,510.16,269.06,510.26Zm-9-.78h8a4,4,0,0,0-8,0Z"/><path class="cls-168" d="M282.76,510a5,5,0,0,1-5.16,5.3,4.67,4.67,0,0,1-4.24-2.46v6.26h-1V504.8h1v2.46a4.67,4.67,0,0,1,4.28-2.54A5.06,5.06,0,0,1,282.76,510Zm-1,0a4.21,4.21,0,1,0-4.22,4.4A4.16,4.16,0,0,0,281.76,510Z"/><path class="cls-169" d="M292.6,505.7h-4.08v9.54h-1V505.7h-4.08v-.9h9.16Z"/><path class="cls-170" d="M302.22,508.62v6.62h-1v-1.86a4,4,0,0,1-3.76,1.94c-2.34,0-3.77-1.2-3.77-3,0-1.58,1-2.92,3.91-2.92h3.58v-.84c0-1.94-1.06-3-3.1-3a5.42,5.42,0,0,0-3.6,1.32l-.5-.72a6.37,6.37,0,0,1,4.18-1.48C300.78,504.72,302.22,506,302.22,508.62Zm-1,3.54v-2h-3.56c-2.16,0-2.92.9-2.92,2.1,0,1.36,1.06,2.2,2.9,2.2A3.58,3.58,0,0,0,301.22,512.16Z"/><path class="cls-171" d="M317.64,504.8v10.44h-.92V506.4l-4.54,7.5h-.46l-4.52-7.48v8.82h-.92V504.8h1l4.72,7.9,4.74-7.9Z"/><path class="cls-172" d="M322,504.8h1v8.9l7.44-8.9h.88v10.44h-1v-8.9l-7.44,8.9H322Z"/><path class="cls-173" d="M51,573.24v14H47.78v-11.4H45v-2.6Z"/><path class="cls-174" d="M65.18,583.18c0,2.64-2.36,4.3-5.92,4.3s-5.88-1.66-5.88-4.3a3.56,3.56,0,0,1,2.12-3.3A3.23,3.23,0,0,1,53.88,577c0-2.46,2.2-4,5.38-4s5.42,1.54,5.42,4A3.25,3.25,0,0,1,63,579.88,3.55,3.55,0,0,1,65.18,583.18Zm-3.28-.1c0-1.24-1-2-2.64-2s-2.6.76-2.6,2,1,2,2.6,2S61.9,584.32,61.9,583.08Zm-4.8-5.94c0,1.06.84,1.72,2.16,1.72s2.2-.66,2.2-1.72-.88-1.76-2.2-1.76S57.1,576,57.1,577.14Z"/><path class="cls-175" d="M66.56,578.26a1.94,1.94,0,0,1,3.88,0,1.94,1.94,0,1,1-3.88,0Zm0,7.18a1.94,1.94,0,0,1,3.88,0,1.94,1.94,0,1,1-3.88,0Z"/><path class="cls-176" d="M71.9,580.24c0-4.62,2.56-7.24,6-7.24s6,2.62,6,7.24-2.54,7.24-6,7.24S71.9,584.86,71.9,580.24Zm8.74,0c0-3.18-1.12-4.5-2.74-4.5s-2.72,1.32-2.72,4.5,1.12,4.5,2.72,4.5S80.64,583.42,80.64,580.24Z"/><path class="cls-177" d="M85.48,580.24c0-4.62,2.56-7.24,6-7.24s6,2.62,6,7.24-2.54,7.24-6,7.24S85.48,584.86,85.48,580.24Zm8.74,0c0-3.18-1.12-4.5-2.74-4.5s-2.72,1.32-2.72,4.5,1.12,4.5,2.72,4.5S94.22,583.42,94.22,580.24Z"/><path class="cls-178" d="M99.4,580.36h5.66v2.5H99.4Z"/><path class="cls-179" d="M111.84,573.24v14H108.6v-11.4h-2.8v-2.6Z"/><path class="cls-180" d="M125.46,579.94c0,4.84-2.9,7.54-7.14,7.54a7.48,7.48,0,0,1-3.88-1l1.2-2.38a4.53,4.53,0,0,0,2.62.7c2.32,0,3.84-1.38,3.94-4.08a4.78,4.78,0,0,1-3.48,1.26c-2.7,0-4.82-1.72-4.82-4.36,0-2.86,2.34-4.66,5.3-4.66C123.08,573,125.46,575.42,125.46,579.94Zm-3.62-2.44c0-1.2-.9-2.08-2.44-2.08a2.11,2.11,0,1,0,0,4.18A2.17,2.17,0,0,0,121.84,577.5Z"/><path class="cls-181" d="M126.92,578.26a1.94,1.94,0,0,1,3.88,0,1.94,1.94,0,1,1-3.88,0Zm0,7.18a1.94,1.94,0,0,1,3.88,0,1.94,1.94,0,1,1-3.88,0Z"/><path class="cls-182" d="M132.26,580.24c0-4.62,2.56-7.24,6-7.24s6,2.62,6,7.24-2.54,7.24-6,7.24S132.26,584.86,132.26,580.24Zm8.74,0c0-3.18-1.12-4.5-2.74-4.5s-2.72,1.32-2.72,4.5,1.12,4.5,2.72,4.5S141,583.42,141,580.24Z"/><path class="cls-183" d="M145.84,580.24c0-4.62,2.56-7.24,6-7.24s6,2.62,6,7.24-2.54,7.24-6,7.24S145.84,584.86,145.84,580.24Zm8.74,0c0-3.18-1.12-4.5-2.74-4.5s-2.72,1.32-2.72,4.5,1.12,4.5,2.72,4.5S154.58,583.42,154.58,580.24Z"/><path class="cls-184" d="M58.38,607.52c0,2.38-1.66,3.72-5,3.72h-6v-14H53c2.88,0,4.66,1.22,4.66,3.56A3.22,3.22,0,0,1,55.24,604C57.32,604.4,58.38,605.58,58.38,607.52Zm-10-3.8H53c2.32,0,3.64-1,3.64-2.8S55.3,598.1,53,598.1h-4.6Zm9,3.74c0-2-1.38-2.9-4-2.9h-5v5.82h5C56,610.38,57.36,609.46,57.36,607.46Z"/><path class="cls-185" d="M60.94,606a5.09,5.09,0,0,1,5.28-5.3,4.58,4.58,0,0,1,4,1.92l-.74.54a3.81,3.81,0,0,0-3.22-1.56,4.4,4.4,0,0,0,0,8.8,3.81,3.81,0,0,0,3.22-1.56l.74.54a4.63,4.63,0,0,1-4,1.92A5.1,5.1,0,0,1,60.94,606Z"/><path class="cls-186" d="M79.88,601.7H75.8v9.54h-1V601.7H70.72v-.9h9.16Z"/><path class="cls-187" d="M92.44,606a5,5,0,0,1-5.16,5.3A4.67,4.67,0,0,1,83,608.86v6.26H82V600.8h1v2.46a4.67,4.67,0,0,1,4.28-2.54A5.06,5.06,0,0,1,92.44,606Zm-1,0a4.21,4.21,0,1,0-4.22,4.4A4.16,4.16,0,0,0,91.44,606Z"/><path class="cls-188" d="M104.6,606.26h-9a4.47,4.47,0,0,0,7.76,2.7l.58.66a5,5,0,0,1-3.94,1.7,5.13,5.13,0,0,1-5.38-5.3,5,5,0,1,1,10,0C104.62,606.06,104.6,606.16,104.6,606.26Zm-9-.78h8a4,4,0,0,0-8,0Z"/><path class="cls-189" d="M115.38,600.8v10.44h-1v-4.5a9,9,0,0,1-3.72.86c-2.38,0-3.94-1.08-3.94-3.32V600.8h1v3.42c0,1.66,1.2,2.54,3.08,2.54a9.47,9.47,0,0,0,3.58-.82V600.8Z"/><path class="cls-190" d="M127.18,604.62v6.62h-1v-1.86a4,4,0,0,1-3.76,1.94c-2.34,0-3.76-1.2-3.76-3,0-1.58,1-2.92,3.9-2.92h3.58v-.84c0-1.94-1.06-3-3.1-3a5.42,5.42,0,0,0-3.6,1.32l-.5-.72a6.37,6.37,0,0,1,4.18-1.48C125.74,600.72,127.18,602,127.18,604.62Zm-1,3.54v-2h-3.56c-2.16,0-2.92.9-2.92,2.1,0,1.36,1.06,2.2,2.9,2.2A3.58,3.58,0,0,0,126.18,608.16Z"/><path class="cls-191" d="M135.32,606a5.09,5.09,0,0,1,5.28-5.3,4.58,4.58,0,0,1,4,1.92l-.74.54a3.81,3.81,0,0,0-3.22-1.56,4.4,4.4,0,0,0,0,8.8,3.81,3.81,0,0,0,3.22-1.56l.74.54a4.63,4.63,0,0,1-4,1.92A5.1,5.1,0,0,1,135.32,606Z"/><path class="cls-192" d="M161.16,600.8l-5.36,11.86c-.84,1.92-1.88,2.54-3.26,2.54a3.33,3.33,0,0,1-2.42-.94l.5-.76a2.54,2.54,0,0,0,1.94.82c1,0,1.66-.44,2.3-1.86l.56-1.26-4.7-10.4h1.06l4.18,9.34,4.18-9.34Z"/><path class="cls-193" d="M162.22,606a5.09,5.09,0,0,1,5.28-5.3,4.58,4.58,0,0,1,4,1.92l-.74.54a3.81,3.81,0,0,0-3.22-1.56,4.4,4.4,0,0,0,0,8.8,3.81,3.81,0,0,0,3.22-1.56l.74.54a4.63,4.63,0,0,1-4,1.92A5.1,5.1,0,0,1,162.22,606Z"/><path class="cls-194" d="M183.54,600.8v10.44h-1V601.7h-7.12v9.54h-1V600.8Z"/><path class="cls-195" d="M196.76,606.26h-9a4.47,4.47,0,0,0,7.76,2.7l.58.66a5,5,0,0,1-3.94,1.7,5.13,5.13,0,0,1-5.38-5.3,5,5,0,1,1,10,0C196.78,606.06,196.76,606.16,196.76,606.26Zm-9-.78h8a4,4,0,0,0-8,0Z"/><path class="cls-196" d="M214.08,600.8v10.44H200V600.8h1v9.56h5.54V600.8h1v9.56h5.5V600.8Z"/><path class="cls-197" d="M218.4,600.8h1v4.76h7.08V600.8h1v10.44h-1v-4.8H219.4v4.8h-1Z"/><path class="cls-198" d="M239.9,607.88c0,2.22-1.48,3.42-4.2,3.4l-3.9,0V600.8h1v3.76l3.12,0C238.52,604.62,239.9,605.76,239.9,607.88Zm-1,0c0-1.7-1.08-2.48-3.24-2.52l-2.86,0v5.1l2.86,0C237.8,610.52,238.9,609.6,238.9,607.88Zm2.92-7.08h1v10.44h-1Z"/><path class="cls-199" d="M258.48,600.8v10.44h-.92V602.4L253,609.9h-.46L248,602.42v8.82h-.92V600.8h1l4.72,7.9,4.74-7.9Z"/><path class="cls-200" d="M277.06,600.8v10.44h-1V601.7h-7.12v9.54h-1V600.8Z"/><path class="cls-201" d="M291.8,606a5,5,0,0,1-5.16,5.3,4.67,4.67,0,0,1-4.24-2.46v6.26h-1V600.8h1v2.46a4.67,4.67,0,0,1,4.28-2.54A5.06,5.06,0,0,1,291.8,606Zm-1,0a4.21,4.21,0,1,0-4.22,4.4A4.16,4.16,0,0,0,290.8,606Z"/><path class="cls-202" d="M294,606a5.23,5.23,0,1,1,5.23,5.3A5.09,5.09,0,0,1,294,606Zm9.43,0a4.2,4.2,0,1,0-4.2,4.4A4.14,4.14,0,0,0,303.42,606Z"/><path class="cls-203" d="M316.6,606.26h-9a4.47,4.47,0,0,0,7.77,2.7l.58.66a5,5,0,0,1-3.94,1.7,5.13,5.13,0,0,1-5.39-5.3,5,5,0,0,1,5-5.3,4.94,4.94,0,0,1,5,5.26C316.62,606.06,316.6,606.16,316.6,606.26Zm-9-.78h8a4,4,0,0,0-8,0Z"/><path class="cls-204" d="M323.42,606.4h-2.55v4.84h-1V600.8h1v4.74h2.55l3.94-4.74h1.1l-4.24,5.06,4.56,5.38h-1.2Z"/><path class="cls-205" d="M338,601.7h-4.08v9.54h-1V601.7h-4.09v-.9H338Z"/><path class="cls-206" d="M338.55,606a5.23,5.23,0,1,1,5.23,5.3A5.09,5.09,0,0,1,338.55,606Zm9.43,0a4.2,4.2,0,1,0-4.2,4.4A4.14,4.14,0,0,0,348,606Z"/><path class="cls-207" d="M363.62,600.8v10.44h-.92V602.4l-4.54,7.5h-.46l-4.53-7.48v8.82h-.92V600.8h1l4.73,7.9,4.74-7.9Z"/><path class="cls-208" d="M56.08,679.6v2.64H45.5v-2.1l5.4-5.1c1.24-1.18,1.46-1.9,1.46-2.58,0-1.1-.76-1.74-2.24-1.74a3.42,3.42,0,0,0-2.9,1.4l-2.36-1.52a6.5,6.5,0,0,1,5.56-2.6c3.12,0,5.2,1.6,5.2,4.14,0,1.36-.38,2.6-2.34,4.42l-3.22,3Z"/><path class="cls-209" d="M57.38,675.24c0-4.62,2.56-7.24,6-7.24s6,2.62,6,7.24-2.54,7.24-6,7.24S57.38,679.86,57.38,675.24Zm8.74,0c0-3.18-1.12-4.5-2.74-4.5s-2.72,1.32-2.72,4.5,1.12,4.5,2.72,4.5S66.12,678.42,66.12,675.24Z"/><path class="cls-210" d="M70.86,673.26a1.94,1.94,0,0,1,3.88,0,1.94,1.94,0,1,1-3.88,0Zm0,7.18a1.94,1.94,0,0,1,3.88,0,1.94,1.94,0,1,1-3.88,0Z"/><path class="cls-211" d="M76.2,675.24c0-4.62,2.56-7.24,6-7.24s6,2.62,6,7.24-2.54,7.24-6,7.24S76.2,679.86,76.2,675.24Zm8.74,0c0-3.18-1.12-4.5-2.74-4.5s-2.72,1.32-2.72,4.5,1.12,4.5,2.72,4.5S84.94,678.42,84.94,675.24Z"/><path class="cls-212" d="M89.78,675.24c0-4.62,2.56-7.24,6-7.24s6,2.62,6,7.24-2.54,7.24-6,7.24S89.78,679.86,89.78,675.24Zm8.74,0c0-3.18-1.12-4.5-2.74-4.5s-2.72,1.32-2.72,4.5,1.12,4.5,2.72,4.5S98.52,678.42,98.52,675.24Z"/><path class="cls-213" d="M103.7,675.36h5.66v2.5H103.7Z"/><path class="cls-214" d="M121.3,679.6v2.64H110.72v-2.1l5.4-5.1c1.24-1.18,1.46-1.9,1.46-2.58,0-1.1-.76-1.74-2.24-1.74a3.42,3.42,0,0,0-2.9,1.4l-2.36-1.52a6.5,6.5,0,0,1,5.56-2.6c3.12,0,5.2,1.6,5.2,4.14,0,1.36-.38,2.6-2.34,4.42l-3.22,3Z"/><path class="cls-215" d="M128,668.24v14H124.8v-11.4H122v-2.6Z"/><path class="cls-216" d="M130.38,673.26a1.94,1.94,0,0,1,3.88,0,1.94,1.94,0,1,1-3.88,0Zm0,7.18a1.94,1.94,0,0,1,3.88,0,1.94,1.94,0,1,1-3.88,0Z"/><path class="cls-217" d="M135.72,675.24c0-4.62,2.56-7.24,6-7.24s6,2.62,6,7.24-2.54,7.24-6,7.24S135.72,679.86,135.72,675.24Zm8.74,0c0-3.18-1.12-4.5-2.74-4.5s-2.72,1.32-2.72,4.5,1.12,4.5,2.72,4.5S144.46,678.42,144.46,675.24Z"/><path class="cls-218" d="M149.3,675.24c0-4.62,2.56-7.24,6-7.24s6,2.62,6,7.24-2.54,7.24-6,7.24S149.3,679.86,149.3,675.24Zm8.74,0c0-3.18-1.12-4.5-2.74-4.5s-2.72,1.32-2.72,4.5,1.12,4.5,2.72,4.5S158,678.42,158,675.24Z"/><path class="cls-219" d="M58,692.24l-6.46,12a3.72,3.72,0,0,1-3.28,2.28,4.13,4.13,0,0,1-1.6-.36l.32-.84a3.36,3.36,0,0,0,1.28.28A2.71,2.71,0,0,0,50.58,704l.48-.82-5.74-10.92h1.12l5.18,10,5.28-10Z"/><path class="cls-220" d="M68.6,701.4H66.14v4.84h-1V701.4H62.7l-3.48,4.84H58l3.9-5.36-3.58-5.08h1.1l3.28,4.74h2.44V695.8h1v4.74H68.6l3.28-4.74H73l-3.58,5.08,3.88,5.36h-1.2Z"/><path class="cls-221" d="M75.88,695.8h1v8.9l7.44-8.9h.88v10.44h-1v-8.9l-7.44,8.9h-.88Z"/><path class="cls-222" d="M89.52,695.8h1v4.76H97.6V695.8h1v10.44h-1v-4.8H90.52v4.8h-1Z"/><path class="cls-223" d="M56.08,774.6v2.64H45.5v-2.1l5.4-5.1c1.24-1.18,1.46-1.9,1.46-2.58,0-1.1-.76-1.74-2.24-1.74a3.42,3.42,0,0,0-2.9,1.4l-2.36-1.52a6.5,6.5,0,0,1,5.56-2.6c3.12,0,5.2,1.6,5.2,4.14,0,1.36-.38,2.6-2.34,4.42l-3.22,3Z"/><path class="cls-224" d="M62.82,763.24v14H59.58v-11.4h-2.8v-2.6Z"/><path class="cls-225" d="M65.16,768.26a1.94,1.94,0,0,1,3.88,0,1.94,1.94,0,1,1-3.88,0Zm0,7.18a1.94,1.94,0,0,1,3.88,0,1.94,1.94,0,1,1-3.88,0Z"/><path class="cls-226" d="M70.5,770.24c0-4.62,2.56-7.24,6-7.24s6,2.62,6,7.24-2.54,7.24-6,7.24S70.5,774.86,70.5,770.24Zm8.74,0c0-3.18-1.12-4.5-2.74-4.5s-2.72,1.32-2.72,4.5,1.12,4.5,2.72,4.5S79.24,773.42,79.24,770.24Z"/><path class="cls-227" d="M84.08,770.24c0-4.62,2.56-7.24,6-7.24s6,2.62,6,7.24-2.54,7.24-6,7.24S84.08,774.86,84.08,770.24Zm8.74,0c0-3.18-1.12-4.5-2.74-4.5s-2.72,1.32-2.72,4.5,1.12,4.5,2.72,4.5S92.82,773.42,92.82,770.24Z"/><path class="cls-228" d="M98,770.36h5.66v2.5H98Z"/><path class="cls-229" d="M115.6,774.6v2.64H105v-2.1l5.4-5.1c1.24-1.18,1.46-1.9,1.46-2.58,0-1.1-.76-1.74-2.24-1.74a3.42,3.42,0,0,0-2.9,1.4l-2.36-1.52a6.5,6.5,0,0,1,5.56-2.6c3.12,0,5.2,1.6,5.2,4.14,0,1.36-.38,2.6-2.34,4.42l-3.22,3Z"/><path class="cls-230" d="M127.28,773c0,2.36-1.82,4.52-5.8,4.52a9.63,9.63,0,0,1-5.34-1.5l1.26-2.48a6.8,6.8,0,0,0,4,1.26c1.62,0,2.62-.66,2.62-1.8s-.78-1.72-2.62-1.72h-1.48V769.1l2.88-3.26h-6v-2.6h9.8v2.1l-3.16,3.6C126,769.34,127.28,770.9,127.28,773Z"/><path class="cls-231" d="M128.68,768.26a1.94,1.94,0,0,1,3.88,0,1.94,1.94,0,1,1-3.88,0Zm0,7.18a1.94,1.94,0,0,1,3.88,0,1.94,1.94,0,1,1-3.88,0Z"/><path class="cls-232" d="M134,770.24c0-4.62,2.56-7.24,6-7.24s6,2.62,6,7.24-2.54,7.24-6,7.24S134,774.86,134,770.24Zm8.74,0c0-3.18-1.12-4.5-2.74-4.5s-2.72,1.32-2.72,4.5,1.12,4.5,2.72,4.5S142.76,773.42,142.76,770.24Z"/><path class="cls-233" d="M147.6,770.24c0-4.62,2.56-7.24,6-7.24s6,2.62,6,7.24-2.54,7.24-6,7.24S147.6,774.86,147.6,770.24Zm8.74,0c0-3.18-1.12-4.5-2.74-4.5s-2.72,1.32-2.72,4.5,1.12,4.5,2.72,4.5S156.34,773.42,156.34,770.24Z"/><path class="cls-234" d="M56.14,788.16h-5v13.08h-1V788.16H45v-.92h11.1Z"/><path class="cls-235" d="M66.3,796.26h-9a4.47,4.47,0,0,0,7.76,2.7l.58.66a5,5,0,0,1-3.94,1.7,5.13,5.13,0,0,1-5.38-5.3,5,5,0,1,1,10,0C66.32,796.06,66.3,796.16,66.3,796.26Zm-9-.78h8a4,4,0,0,0-8,0Z"/><path class="cls-236" d="M80.94,790.8v10.44H80V792.4l-4.54,7.5H75l-4.52-7.48v8.82h-.92V790.8h1l4.72,7.9L80,790.8Z"/><path class="cls-237" d="M92.74,794.62v6.62h-1v-1.86A4,4,0,0,1,88,801.32c-2.34,0-3.76-1.2-3.76-3,0-1.58,1-2.92,3.9-2.92h3.58v-.84c0-1.94-1.06-3-3.1-3a5.42,5.42,0,0,0-3.6,1.32l-.5-.72a6.37,6.37,0,0,1,4.18-1.48C91.3,790.72,92.74,792,92.74,794.62Zm-1,3.54v-2H88.18c-2.16,0-2.92.9-2.92,2.1,0,1.36,1.06,2.2,2.9,2.2A3.58,3.58,0,0,0,91.74,798.16Z"/><path class="cls-238" d="M103.78,791.7H99.7v9.54h-1V791.7H94.62v-.9h9.16Z"/><path class="cls-239" d="M105.92,790.8h1v8.9l7.44-8.9h.88v10.44h-1v-8.9l-7.44,8.9h-.88Z"/><path class="cls-240" d="M127.06,790.8v10.44h-1v-4.5a9,9,0,0,1-3.72.86c-2.38,0-3.94-1.08-3.94-3.32V790.8h1v3.42c0,1.66,1.2,2.54,3.08,2.54a9.47,9.47,0,0,0,3.58-.82V790.8Z"/><path class="cls-241" d="M140.28,796.26h-9a4.47,4.47,0,0,0,7.76,2.7l.58.66a5,5,0,0,1-3.94,1.7,5.13,5.13,0,0,1-5.38-5.3,5,5,0,1,1,10,0C140.3,796.06,140.28,796.16,140.28,796.26Zm-9-.78h8a4,4,0,0,0-8,0Z"/><path class="cls-242" d="M142.5,796a5.09,5.09,0,0,1,5.28-5.3,4.58,4.58,0,0,1,4,1.92l-.74.54a3.81,3.81,0,0,0-3.22-1.56,4.4,4.4,0,0,0,0,8.8,3.81,3.81,0,0,0,3.22-1.56l.74.54a4.63,4.63,0,0,1-4,1.92A5.1,5.1,0,0,1,142.5,796Z"/><path class="cls-243" d="M158.24,796.4H155.7v4.84h-1V790.8h1v4.74h2.54l3.94-4.74h1.1L159,795.86l4.56,5.38h-1.2Z"/><path class="cls-244" d="M166.06,790.8h1v8.9l7.44-8.9h.88v10.44h-1v-8.9l-7.44,8.9h-.88Z"/><path class="cls-245" d="M188.6,796.26h-9a4.47,4.47,0,0,0,7.76,2.7l.58.66a5,5,0,0,1-3.94,1.7,5.13,5.13,0,0,1-5.38-5.3,5,5,0,1,1,10,0C188.62,796.06,188.6,796.16,188.6,796.26Zm-9-.78h8a4,4,0,0,0-8,0Z"/><path class="cls-246" d="M208.38,790.8v10.44h-.92V792.4l-4.54,7.5h-.46l-4.52-7.48v8.82H197V790.8h1l4.72,7.9,4.74-7.9Z"/><path class="cls-247" d="M220.18,794.62v6.62h-1v-1.86a4,4,0,0,1-3.76,1.94c-2.34,0-3.76-1.2-3.76-3,0-1.58,1-2.92,3.9-2.92h3.58v-.84c0-1.94-1.06-3-3.1-3a5.42,5.42,0,0,0-3.6,1.32l-.5-.72a6.37,6.37,0,0,1,4.18-1.48C218.74,790.72,220.18,792,220.18,794.62Zm-1,3.54v-2h-3.56c-2.16,0-2.92.9-2.92,2.1,0,1.36,1.06,2.2,2.9,2.2A3.58,3.58,0,0,0,219.18,798.16Z"/><path class="cls-248" d="M223.18,796a5.09,5.09,0,0,1,5.28-5.3,4.58,4.58,0,0,1,4,1.92l-.74.54a3.81,3.81,0,0,0-3.22-1.56,4.4,4.4,0,0,0,0,8.8,3.81,3.81,0,0,0,3.22-1.56l.74.54a4.63,4.63,0,0,1-4,1.92A5.1,5.1,0,0,1,223.18,796Z"/><path class="cls-249" d="M242.12,791.7H238v9.54h-1V791.7H233v-.9h9.16Z"/><path class="cls-250" d="M252.68,796.26h-9a4.47,4.47,0,0,0,7.76,2.7l.58.66a5,5,0,0,1-3.94,1.7,5.13,5.13,0,0,1-5.38-5.3,5,5,0,1,1,10,0C252.7,796.06,252.68,796.16,252.68,796.26Zm-9-.78h8a4,4,0,0,0-8,0Z"/><path class="cls-251" d="M266.38,796a5,5,0,0,1-5.16,5.3,4.67,4.67,0,0,1-4.24-2.46v6.26h-1V790.8h1v2.46a4.67,4.67,0,0,1,4.28-2.54A5.06,5.06,0,0,1,266.38,796Zm-1,0a4.21,4.21,0,1,0-4.22,4.4A4.16,4.16,0,0,0,265.38,796Z"/><path class="cls-252" d="M268.92,795.42h5.14v.9h-5.14Z"/><path class="cls-253" d="M281,796.4h-2.54v4.84h-1V790.8h1v4.74H281l3.94-4.74H286l-4.24,5.06,4.56,5.38h-1.2Z"/><path class="cls-254" d="M297,790.8v10.44h-1V791.7h-5.44l-.14,2.78c-.2,3.66-.6,6.88-2.78,6.88a3.65,3.65,0,0,1-.86-.14l.1-.86a2.19,2.19,0,0,0,.48.08c1.78,0,2-3,2.14-6l.18-3.6Z"/><path class="cls-255" d="M308.78,794.62v6.62h-1v-1.86a4,4,0,0,1-3.76,1.94c-2.34,0-3.77-1.2-3.77-3,0-1.58,1-2.92,3.91-2.92h3.58v-.84c0-1.94-1.06-3-3.1-3a5.42,5.42,0,0,0-3.6,1.32l-.5-.72a6.37,6.37,0,0,1,4.18-1.48C307.34,790.72,308.78,792,308.78,794.62Zm-1,3.54v-2h-3.56c-2.16,0-2.92.9-2.92,2.1,0,1.36,1.06,2.2,2.9,2.2A3.58,3.58,0,0,0,307.78,798.16Z"/><path class="cls-256" d="M311.77,796a5.1,5.1,0,0,1,5.29-5.3,4.58,4.58,0,0,1,4,1.92l-.74.54a3.81,3.81,0,0,0-3.22-1.56,4.4,4.4,0,0,0,0,8.8,3.81,3.81,0,0,0,3.22-1.56l.74.54a4.63,4.63,0,0,1-4,1.92A5.11,5.11,0,0,1,311.77,796Z"/><path class="cls-257" d="M322.73,796a5.1,5.1,0,0,1,5.29-5.3,4.58,4.58,0,0,1,4,1.92l-.74.54a3.81,3.81,0,0,0-3.22-1.56,4.4,4.4,0,0,0,0,8.8,3.81,3.81,0,0,0,3.22-1.56l.74.54a4.63,4.63,0,0,1-4,1.92A5.11,5.11,0,0,1,322.73,796Z"/><path class="cls-258" d="M343,797.88c0,2.22-1.48,3.42-4.2,3.4l-3.9,0V790.8h1v3.76l3.12,0C341.66,794.62,343,795.76,343,797.88Zm-1,0c0-1.7-1.08-2.48-3.24-2.52l-2.86,0v5.1l2.86,0C340.94,800.52,342,799.6,342,797.88ZM345,790.8h1v10.44h-1Z"/></g></g></svg>