<svg xmlns="http://www.w3.org/2000/svg" xmlns:xlink="http://www.w3.org/1999/xlink" viewBox="0 0 371.2 805.2"><defs><style>.cls-1{fill:url(#Безымянный_градиент_2);}.cls-2{fill:url(#Безымянный_градиент_2-2);}.cls-3{fill:url(#Безымянный_градиент_2-3);}.cls-4{fill:url(#Безымянный_градиент_2-4);}.cls-5{fill:url(#Безымянный_градиент_2-5);}.cls-6{fill:url(#Безымянный_градиент_2-6);}.cls-7{fill:url(#Безымянный_градиент_2-7);}.cls-8{fill:url(#Безымянный_градиент_2-8);}.cls-9{fill:url(#Безымянный_градиент_2-9);}.cls-10{fill:url(#Безымянный_градиент_2-10);}.cls-11{fill:url(#Безымянный_градиент_2-11);}.cls-12{fill:url(#Безымянный_градиент_2-12);}.cls-13{fill:url(#Безымянный_градиент_2-13);}.cls-14{fill:url(#Безымянный_градиент_2-14);}.cls-15{fill:url(#Безымянный_градиент_2-15);}.cls-16{fill:url(#Безымянный_градиент_2-16);}.cls-17{fill:url(#Безымянный_градиент_2-17);}.cls-18{fill:url(#Безымянный_градиент_2-18);}.cls-19{fill:url(#Безымянный_градиент_2-19);}.cls-20{fill:url(#Безымянный_градиент_2-20);}.cls-21{fill:url(#Безымянный_градиент_2-21);}.cls-22{fill:url(#Безымянный_градиент_2-22);}.cls-23{fill:url(#Безымянный_градиент_2-23);}.cls-24{fill:url(#Безымянный_градиент_2-24);}.cls-25{fill:url(#Безымянный_градиент_2-25);}.cls-26{fill:url(#Безымянный_градиент_2-26);}.cls-27{fill:url(#Безымянный_градиент_2-27);}.cls-28{fill:url(#Безымянный_градиент_2-28);}.cls-29{fill:url(#Безымянный_градиент_2-29);}.cls-30{fill:url(#Безымянный_градиент_2-30);}.cls-31{fill:url(#Безымянный_градиент_2-31);}.cls-32{fill:url(#Безымянный_градиент_2-32);}.cls-33{fill:url(#Безымянный_градиент_2-33);}.cls-34{fill:url(#Безымянный_градиент_2-34);}.cls-35{fill:url(#Безымянный_градиент_2-35);}.cls-36{fill:url(#Безымянный_градиент_2-36);}.cls-37{fill:url(#Безымянный_градиент_2-37);}.cls-38{fill:url(#Безымянный_градиент_2-38);}.cls-39{fill:url(#Безымянный_градиент_2-39);}.cls-40{fill:url(#Безымянный_градиент_2-40);}.cls-41{fill:url(#Безымянный_градиент_2-41);}.cls-42{fill:url(#Безымянный_градиент_2-42);}.cls-43{fill:url(#Безымянный_градиент_2-43);}.cls-44{fill:url(#Безымянный_градиент_2-44);}.cls-45{fill:url(#Безымянный_градиент_2-45);}.cls-46{fill:url(#Безымянный_градиент_2-46);}.cls-47{fill:url(#Безымянный_градиент_2-47);}.cls-48{fill:url(#Безымянный_градиент_2-48);}.cls-49{fill:url(#Безымянный_градиент_2-49);}.cls-50{fill:url(#Безымянный_градиент_2-50);}.cls-51{fill:url(#Безымянный_градиент_2-51);}.cls-52{fill:url(#Безымянный_градиент_2-52);}.cls-53{fill:url(#Безымянный_градиент_2-53);}.cls-54{fill:url(#Безымянный_градиент_2-54);}.cls-55{fill:url(#Безымянный_градиент_2-55);}.cls-56{fill:url(#Безымянный_градиент_2-56);}.cls-57{fill:url(#Безымянный_градиент_2-57);}.cls-58{fill:url(#Безымянный_градиент_2-58);}.cls-59{fill:url(#Безымянный_градиент_2-59);}.cls-60{fill:url(#Безымянный_градиент_2-60);}.cls-61{fill:url(#Безымянный_градиент_2-61);}.cls-62{fill:url(#Безымянный_градиент_2-62);}.cls-63{fill:url(#Безымянный_градиент_2-63);}.cls-64{fill:url(#Безымянный_градиент_2-64);}.cls-65{fill:url(#Безымянный_градиент_2-65);}.cls-66{fill:url(#Безымянный_градиент_2-66);}.cls-67{fill:url(#Безымянный_градиент_2-67);}.cls-68{fill:url(#Безымянный_градиент_2-68);}.cls-69{fill:url(#Безымянный_градиент_2-69);}.cls-70{fill:url(#Безымянный_градиент_2-70);}.cls-71{fill:url(#Безымянный_градиент_2-71);}.cls-72{fill:url(#Безымянный_градиент_2-72);}.cls-73{fill:url(#Безымянный_градиент_2-73);}.cls-74{fill:url(#Безымянный_градиент_2-74);}.cls-75{fill:url(#Безымянный_градиент_2-75);}.cls-76{fill:url(#Безымянный_градиент_2-76);}.cls-77{fill:url(#Безымянный_градиент_2-77);}.cls-78{fill:url(#Безымянный_градиент_2-78);}.cls-79{fill:url(#Безымянный_градиент_2-79);}.cls-80{fill:url(#Безымянный_градиент_2-80);}.cls-81{fill:url(#Безымянный_градиент_2-81);}.cls-82{fill:url(#Безымянный_градиент_2-82);}.cls-83{fill:url(#Безымянный_градиент_2-83);}.cls-84{fill:url(#Безымянный_градиент_2-84);}.cls-85{fill:url(#Безымянный_градиент_2-85);}.cls-86{fill:url(#Безымянный_градиент_2-86);}.cls-87{fill:url(#Безымянный_градиент_2-87);}.cls-88{fill:url(#Безымянный_градиент_2-88);}.cls-89{fill:url(#Безымянный_градиент_2-89);}.cls-90{fill:url(#Безымянный_градиент_2-90);}.cls-91{fill:url(#Безымянный_градиент_2-91);}.cls-92{fill:url(#Безымянный_градиент_2-92);}.cls-93{fill:url(#Безымянный_градиент_2-93);}.cls-94{fill:url(#Безымянный_градиент_2-94);}.cls-95{fill:url(#Безымянный_градиент_2-95);}.cls-96{fill:url(#Безымянный_градиент_2-96);}.cls-97{fill:url(#Безымянный_градиент_2-97);}.cls-98{fill:url(#Безымянный_градиент_2-98);}.cls-99{fill:url(#Безымянный_градиент_2-99);}.cls-100{fill:url(#Безымянный_градиент_2-100);}.cls-101{fill:url(#Безымянный_градиент_2-101);}.cls-102{fill:url(#Безымянный_градиент_2-102);}.cls-103{fill:url(#Безымянный_градиент_2-103);}.cls-104{fill:url(#Безымянный_градиент_2-104);}.cls-105{fill:url(#Безымянный_градиент_2-105);}.cls-106{fill:url(#Безымянный_градиент_2-106);}.cls-107{fill:url(#Безымянный_градиент_2-107);}.cls-108{fill:url(#Безымянный_градиент_2-108);}.cls-109{fill:url(#Безымянный_градиент_2-109);}.cls-110{fill:url(#Безымянный_градиент_2-110);}.cls-111{fill:url(#Безымянный_градиент_2-111);}.cls-112{fill:url(#Безымянный_градиент_2-112);}.cls-113{fill:url(#Безымянный_градиент_2-113);}.cls-114{fill:url(#Безымянный_градиент_2-114);}.cls-115{fill:url(#Безымянный_градиент_2-115);}.cls-116{fill:url(#Безымянный_градиент_2-116);}.cls-117{fill:url(#Безымянный_градиент_2-117);}.cls-118{fill:url(#Безымянный_градиент_2-118);}.cls-119{fill:url(#Безымянный_градиент_2-119);}.cls-120{fill:url(#Безымянный_градиент_2-120);}.cls-121{fill:url(#Безымянный_градиент_2-121);}.cls-122{fill:url(#Безымянный_градиент_2-122);}.cls-123{fill:url(#Безымянный_градиент_2-123);}.cls-124{fill:url(#Безымянный_градиент_2-124);}.cls-125{fill:url(#Безымянный_градиент_2-125);}.cls-126{fill:url(#Безымянный_градиент_2-126);}.cls-127{fill:url(#Безымянный_градиент_2-127);}.cls-128{fill:url(#Безымянный_градиент_2-128);}.cls-129{fill:url(#Безымянный_градиент_2-129);}.cls-130{fill:url(#Безымянный_градиент_2-130);}.cls-131{fill:url(#Безымянный_градиент_2-131);}.cls-132{fill:url(#Безымянный_градиент_2-132);}.cls-133{fill:url(#Безымянный_градиент_2-133);}.cls-134{fill:url(#Безымянный_градиент_2-134);}.cls-135{fill:url(#Безымянный_градиент_2-135);}.cls-136{fill:url(#Безымянный_градиент_2-136);}.cls-137{fill:url(#Безымянный_градиент_2-137);}.cls-138{fill:url(#Безымянный_градиент_2-138);}.cls-139{fill:url(#Безымянный_градиент_2-139);}.cls-140{fill:url(#Безымянный_градиент_2-140);}.cls-141{fill:url(#Безымянный_градиент_2-141);}.cls-142{fill:url(#Безымянный_градиент_2-142);}.cls-143{fill:url(#Безымянный_градиент_2-143);}.cls-144{fill:url(#Безымянный_градиент_2-144);}.cls-145{fill:url(#Безымянный_градиент_2-145);}.cls-146{fill:url(#Безымянный_градиент_2-146);}.cls-147{fill:url(#Безымянный_градиент_2-147);}.cls-148{fill:url(#Безымянный_градиент_2-148);}.cls-149{fill:url(#Безымянный_градиент_2-149);}.cls-150{fill:url(#Безымянный_градиент_2-150);}.cls-151{fill:url(#Безымянный_градиент_2-151);}.cls-152{fill:url(#Безымянный_градиент_2-152);}.cls-153{fill:url(#Безымянный_градиент_2-153);}.cls-154{fill:url(#Безымянный_градиент_2-154);}.cls-155{fill:url(#Безымянный_градиент_2-155);}.cls-156{fill:url(#Безымянный_градиент_2-156);}.cls-157{fill:url(#Безымянный_градиент_2-157);}.cls-158{fill:url(#Безымянный_градиент_2-158);}.cls-159{fill:url(#Безымянный_градиент_2-159);}.cls-160{fill:url(#Безымянный_градиент_2-160);}.cls-161{fill:url(#Безымянный_градиент_2-161);}.cls-162{fill:url(#Безымянный_градиент_2-162);}.cls-163{fill:url(#Безымянный_градиент_2-163);}.cls-164{fill:url(#Безымянный_градиент_2-164);}.cls-165{fill:url(#Безымянный_градиент_2-165);}.cls-166{fill:url(#Безымянный_градиент_2-166);}.cls-167{fill:url(#Безымянный_градиент_2-167);}.cls-168{fill:url(#Безымянный_градиент_2-168);}.cls-169{fill:url(#Безымянный_градиент_2-169);}.cls-170{fill:url(#Безымянный_градиент_2-170);}.cls-171{fill:url(#Безымянный_градиент_2-171);}.cls-172{fill:url(#Безымянный_градиент_2-172);}.cls-173{fill:url(#Безымянный_градиент_2-173);}.cls-174{fill:url(#Безымянный_градиент_2-174);}.cls-175{fill:url(#Безымянный_градиент_2-175);}.cls-176{fill:url(#Безымянный_градиент_2-176);}.cls-177{fill:url(#Безымянный_градиент_2-177);}.cls-178{fill:url(#Безымянный_градиент_2-178);}.cls-179{fill:url(#Безымянный_градиент_2-179);}.cls-180{fill:url(#Безымянный_градиент_2-180);}.cls-181{fill:url(#Безымянный_градиент_2-181);}.cls-182{fill:url(#Безымянный_градиент_2-182);}.cls-183{fill:url(#Безымянный_градиент_2-183);}.cls-184{fill:url(#Безымянный_градиент_2-184);}.cls-185{fill:url(#Безымянный_градиент_2-185);}.cls-186{fill:url(#Безымянный_градиент_2-186);}.cls-187{fill:url(#Безымянный_градиент_2-187);}.cls-188{fill:url(#Безымянный_градиент_2-188);}.cls-189{fill:url(#Безымянный_градиент_2-189);}.cls-190{fill:url(#Безымянный_градиент_2-190);}.cls-191{fill:url(#Безымянный_градиент_2-191);}.cls-192{fill:url(#Безымянный_градиент_2-192);}.cls-193{fill:url(#Безымянный_градиент_2-193);}.cls-194{fill:url(#Безымянный_градиент_2-194);}.cls-195{fill:url(#Безымянный_градиент_2-195);}.cls-196{fill:url(#Безымянный_градиент_2-196);}.cls-197{fill:url(#Безымянный_градиент_2-197);}.cls-198{fill:url(#Безымянный_градиент_2-198);}.cls-199{fill:url(#Безымянный_градиент_2-199);}.cls-200{fill:url(#Безымянный_градиент_2-200);}.cls-201{fill:url(#Безымянный_градиент_2-201);}.cls-202{fill:url(#Безымянный_градиент_2-202);}.cls-203{fill:url(#Безымянный_градиент_2-203);}.cls-204{fill:url(#Безымянный_градиент_2-204);}.cls-205{fill:url(#Безымянный_градиент_2-205);}.cls-206{fill:url(#Безымянный_градиент_2-206);}.cls-207{fill:url(#Безымянный_градиент_2-207);}.cls-208{fill:url(#Безымянный_градиент_2-208);}.cls-209{fill:url(#Безымянный_градиент_2-209);}.cls-210{fill:url(#Безымянный_градиент_2-210);}.cls-211{fill:url(#Безымянный_градиент_2-211);}.cls-212{fill:url(#Безымянный_градиент_2-212);}.cls-213{fill:url(#Безымянный_градиент_2-213);}.cls-214{fill:url(#Безымянный_градиент_2-214);}.cls-215{fill:url(#Безымянный_градиент_2-215);}.cls-216{fill:url(#Безымянный_градиент_2-216);}.cls-217{fill:url(#Безымянный_градиент_2-217);}.cls-218{fill:url(#Безымянный_градиент_2-218);}.cls-219{fill:url(#Безымянный_градиент_2-219);}.cls-220{fill:url(#Безымянный_градиент_2-220);}.cls-221{fill:url(#Безымянный_градиент_2-221);}.cls-222{fill:url(#Безымянный_градиент_2-222);}.cls-223{fill:url(#Безымянный_градиент_2-223);}.cls-224{fill:url(#Безымянный_градиент_2-224);}.cls-225{fill:url(#Безымянный_градиент_2-225);}.cls-226{fill:url(#Безымянный_градиент_2-226);}.cls-227{fill:url(#Безымянный_градиент_2-227);}.cls-228{fill:url(#Безымянный_градиент_2-228);}.cls-229{fill:url(#Безымянный_градиент_2-229);}.cls-230{fill:url(#Безымянный_градиент_2-230);}.cls-231{fill:url(#Безымянный_градиент_2-231);}.cls-232{fill:url(#Безымянный_градиент_2-232);}.cls-233{fill:url(#Безымянный_градиент_2-233);}.cls-234{fill:url(#Безымянный_градиент_2-234);}.cls-235{fill:url(#Безымянный_градиент_2-235);}.cls-236{fill:url(#Безымянный_градиент_2-236);}.cls-237{fill:url(#Безымянный_градиент_2-237);}.cls-238{fill:url(#Безымянный_градиент_2-238);}.cls-239{fill:url(#Безымянный_градиент_2-239);}.cls-240{fill:url(#Безымянный_градиент_2-240);}.cls-241{fill:url(#Безымянный_градиент_2-241);}.cls-242{fill:url(#Безымянный_градиент_2-242);}.cls-243{fill:url(#Безымянный_градиент_2-243);}.cls-244{fill:url(#Безымянный_градиент_2-244);}.cls-245{fill:url(#Безымянный_градиент_2-245);}</style><linearGradient id="Безымянный_градиент_2" x1="-789.6" y1="-404.54" x2="442.51" y2="458.16" gradientUnits="userSpaceOnUse"><stop offset="0" stop-color="#2d0098"/><stop offset="0.97" stop-color="#3900b1"/><stop offset="1" stop-color="#3900b2"/></linearGradient><linearGradient id="Безымянный_градиент_2-2" x1="-879.22" y1="-276.54" x2="352.89" y2="586.16" xlink:href="#Безымянный_градиент_2"/><linearGradient id="Безымянный_градиент_2-3" x1="-968.84" y1="-148.54" x2="263.26" y2="714.16" xlink:href="#Безымянный_градиент_2"/><linearGradient id="Безымянный_градиент_2-4" x1="-1058.7" y1="-20.21" x2="173.41" y2="842.49" xlink:href="#Безымянный_градиент_2"/><linearGradient id="Безымянный_градиент_2-5" x1="-1013.65" y1="-84.54" x2="218.45" y2="778.16" xlink:href="#Безымянный_градиент_2"/><linearGradient id="Безымянный_градиент_2-6" x1="-924.03" y1="-212.54" x2="308.07" y2="650.16" xlink:href="#Безымянный_градиент_2"/><linearGradient id="Безымянный_градиент_2-7" x1="-834.41" y1="-340.54" x2="397.7" y2="522.16" xlink:href="#Безымянный_градиент_2"/><linearGradient id="Безымянный_градиент_2-8" x1="-744.67" y1="-468.7" x2="487.44" y2="394" xlink:href="#Безымянный_градиент_2"/><linearGradient id="Безымянный_градиент_2-9" x1="-722.3" y1="-500.65" x2="509.81" y2="362.05" xlink:href="#Безымянный_градиент_2"/><linearGradient id="Безымянный_градиент_2-10" x1="-767.11" y1="-436.65" x2="465" y2="426.04" xlink:href="#Безымянный_градиент_2"/><linearGradient id="Безымянный_градиент_2-11" x1="-811.92" y1="-372.66" x2="420.18" y2="490.04" xlink:href="#Безымянный_градиент_2"/><linearGradient id="Безымянный_градиент_2-12" x1="-856.73" y1="-308.66" x2="375.37" y2="554.04" xlink:href="#Безымянный_градиент_2"/><linearGradient id="Безымянный_градиент_2-13" x1="-901.54" y1="-244.66" x2="330.56" y2="618.04" xlink:href="#Безымянный_градиент_2"/><linearGradient id="Безымянный_градиент_2-14" x1="-946.35" y1="-180.66" x2="285.75" y2="682.04" xlink:href="#Безымянный_градиент_2"/><linearGradient id="Безымянный_градиент_2-15" x1="-991.16" y1="-116.66" x2="240.94" y2="746.04" xlink:href="#Безымянный_градиент_2"/><linearGradient id="Безымянный_градиент_2-16" x1="-1035.98" y1="-52.66" x2="196.13" y2="810.04" xlink:href="#Безымянный_градиент_2"/><linearGradient id="Безымянный_градиент_2-17" x1="-1080.79" y1="11.34" x2="151.32" y2="874.04" xlink:href="#Безымянный_градиент_2"/><linearGradient id="Безымянный_градиент_2-18" x1="-706.33" y1="-523.46" x2="525.78" y2="339.24" xlink:href="#Безымянный_градиент_2"/><linearGradient id="Безымянный_градиент_2-19" x1="-702.63" y1="-528.74" x2="529.47" y2="333.96" xlink:href="#Безымянный_градиент_2"/><linearGradient id="Безымянный_градиент_2-20" x1="-701.45" y1="-530.43" x2="530.65" y2="332.27" xlink:href="#Безымянный_градиент_2"/><linearGradient id="Безымянный_градиент_2-21" x1="-697.6" y1="-535.93" x2="534.51" y2="326.77" xlink:href="#Безымянный_градиент_2"/><linearGradient id="Безымянный_градиент_2-22" x1="-693.13" y1="-542.31" x2="538.98" y2="320.39" xlink:href="#Безымянный_градиент_2"/><linearGradient id="Безымянный_градиент_2-23" x1="-690.24" y1="-546.44" x2="541.87" y2="316.26" xlink:href="#Безымянный_градиент_2"/><linearGradient id="Безымянный_градиент_2-24" x1="-686.07" y1="-552.39" x2="546.03" y2="310.3" xlink:href="#Безымянный_градиент_2"/><linearGradient id="Безымянный_градиент_2-25" x1="-682.43" y1="-557.59" x2="549.67" y2="305.11" xlink:href="#Безымянный_градиент_2"/><linearGradient id="Безымянный_градиент_2-26" x1="-679.89" y1="-561.22" x2="552.21" y2="301.48" xlink:href="#Безымянный_градиент_2"/><linearGradient id="Безымянный_градиент_2-27" x1="-676.04" y1="-566.72" x2="556.07" y2="295.97" xlink:href="#Безымянный_градиент_2"/><linearGradient id="Безымянный_градиент_2-28" x1="-671.57" y1="-573.11" x2="560.54" y2="289.59" xlink:href="#Безымянный_градиент_2"/><linearGradient id="Безымянный_градиент_2-29" x1="-717.13" y1="-508.03" x2="514.97" y2="354.67" xlink:href="#Безымянный_градиент_2"/><linearGradient id="Безымянный_градиент_2-30" x1="-713.19" y1="-513.67" x2="518.92" y2="349.03" xlink:href="#Безымянный_градиент_2"/><linearGradient id="Безымянный_градиент_2-31" x1="-708.13" y1="-520.89" x2="523.98" y2="341.81" xlink:href="#Безымянный_градиент_2"/><linearGradient id="Безымянный_градиент_2-32" x1="-705.01" y1="-525.34" x2="527.09" y2="337.36" xlink:href="#Безымянный_градиент_2"/><linearGradient id="Безымянный_градиент_2-33" x1="-700.73" y1="-531.46" x2="531.37" y2="331.24" xlink:href="#Безымянный_градиент_2"/><linearGradient id="Безымянный_градиент_2-34" x1="-695.76" y1="-538.56" x2="536.35" y2="324.14" xlink:href="#Безымянный_градиент_2"/><linearGradient id="Безымянный_градиент_2-35" x1="-690.26" y1="-546.41" x2="541.84" y2="316.29" xlink:href="#Безымянный_градиент_2"/><linearGradient id="Безымянный_градиент_2-36" x1="-686.02" y1="-552.46" x2="546.08" y2="310.24" xlink:href="#Безымянный_градиент_2"/><linearGradient id="Безымянный_градиент_2-37" x1="-683.08" y1="-556.67" x2="549.03" y2="306.03" xlink:href="#Безымянный_градиент_2"/><linearGradient id="Безымянный_градиент_2-38" x1="-677.52" y1="-564.61" x2="554.59" y2="298.09" xlink:href="#Безымянный_градиент_2"/><linearGradient id="Безымянный_градиент_2-39" x1="-673.42" y1="-570.47" x2="558.69" y2="292.23" xlink:href="#Безымянный_градиент_2"/><linearGradient id="Безымянный_градиент_2-40" x1="-671.03" y1="-573.87" x2="561.07" y2="288.83" xlink:href="#Безымянный_градиент_2"/><linearGradient id="Безымянный_градиент_2-41" x1="-666.42" y1="-580.46" x2="565.68" y2="282.24" xlink:href="#Безымянный_градиент_2"/><linearGradient id="Безымянный_градиент_2-42" x1="-751.43" y1="-459.04" x2="480.67" y2="403.65" xlink:href="#Безымянный_градиент_2"/><linearGradient id="Безымянный_градиент_2-43" x1="-747.14" y1="-465.17" x2="484.96" y2="397.53" xlink:href="#Безымянный_градиент_2"/><linearGradient id="Безымянный_градиент_2-44" x1="-745.18" y1="-467.97" x2="486.92" y2="394.73" xlink:href="#Безымянный_градиент_2"/><linearGradient id="Безымянный_градиент_2-45" x1="-741.33" y1="-473.48" x2="490.78" y2="389.22" xlink:href="#Безымянный_градиент_2"/><linearGradient id="Безымянный_градиент_2-46" x1="-736.86" y1="-479.86" x2="495.25" y2="382.84" xlink:href="#Безымянный_градиент_2"/><linearGradient id="Безымянный_градиент_2-47" x1="-733.97" y1="-483.99" x2="498.14" y2="378.71" xlink:href="#Безымянный_градиент_2"/><linearGradient id="Безымянный_градиент_2-48" x1="-729.8" y1="-489.94" x2="502.31" y2="372.76" xlink:href="#Безымянный_градиент_2"/><linearGradient id="Безымянный_градиент_2-49" x1="-725.06" y1="-496.71" x2="507.05" y2="365.98" xlink:href="#Безымянный_градиент_2"/><linearGradient id="Безымянный_градиент_2-50" x1="-723.27" y1="-499.26" x2="508.83" y2="363.44" xlink:href="#Безымянный_градиент_2"/><linearGradient id="Безымянный_градиент_2-51" x1="-719.42" y1="-504.77" x2="512.69" y2="357.93" xlink:href="#Безымянный_градиент_2"/><linearGradient id="Безымянный_градиент_2-52" x1="-714.95" y1="-511.15" x2="517.15" y2="351.55" xlink:href="#Безымянный_градиент_2"/><linearGradient id="Безымянный_градиент_2-53" x1="-762.37" y1="-443.42" x2="469.73" y2="419.28" xlink:href="#Безымянный_градиент_2"/><linearGradient id="Безымянный_градиент_2-54" x1="-759.32" y1="-447.78" x2="472.78" y2="414.92" xlink:href="#Безымянный_градиент_2"/><linearGradient id="Безымянный_градиент_2-55" x1="-754.6" y1="-454.52" x2="477.51" y2="408.18" xlink:href="#Безымянный_градиент_2"/><linearGradient id="Безымянный_градиент_2-56" x1="-750.16" y1="-460.86" x2="481.94" y2="401.84" xlink:href="#Безымянный_градиент_2"/><linearGradient id="Безымянный_градиент_2-57" x1="-744.32" y1="-469.21" x2="487.79" y2="393.49" xlink:href="#Безымянный_градиент_2"/><linearGradient id="Безымянный_градиент_2-58" x1="-742.9" y1="-471.23" x2="489.2" y2="391.47" xlink:href="#Безымянный_градиент_2"/><linearGradient id="Безымянный_градиент_2-59" x1="-737.34" y1="-479.17" x2="494.77" y2="383.53" xlink:href="#Безымянный_градиент_2"/><linearGradient id="Безымянный_градиент_2-60" x1="-732.47" y1="-486.13" x2="499.64" y2="376.57" xlink:href="#Безымянный_градиент_2"/><linearGradient id="Безымянный_градиент_2-61" x1="-728.75" y1="-491.44" x2="503.35" y2="371.26" xlink:href="#Безымянный_градиент_2"/><linearGradient id="Безымянный_градиент_2-62" x1="-796.07" y1="-395.3" x2="436.04" y2="467.4" xlink:href="#Безымянный_градиент_2"/><linearGradient id="Безымянный_градиент_2-63" x1="-792.14" y1="-400.9" x2="439.96" y2="461.8" xlink:href="#Безымянный_градиент_2"/><linearGradient id="Безымянный_градиент_2-64" x1="-789.54" y1="-404.62" x2="442.56" y2="458.08" xlink:href="#Безымянный_градиент_2"/><linearGradient id="Безымянный_градиент_2-65" x1="-785.69" y1="-410.12" x2="446.42" y2="452.57" xlink:href="#Безымянный_градиент_2"/><linearGradient id="Безымянный_градиент_2-66" x1="-781.22" y1="-416.51" x2="450.89" y2="446.19" xlink:href="#Безымянный_градиент_2"/><linearGradient id="Безымянный_градиент_2-67" x1="-778.33" y1="-420.63" x2="453.78" y2="442.06" xlink:href="#Безымянный_градиент_2"/><linearGradient id="Безымянный_градиент_2-68" x1="-775.05" y1="-425.31" x2="457.05" y2="437.39" xlink:href="#Безымянный_градиент_2"/><linearGradient id="Безымянный_градиент_2-69" x1="-771.74" y1="-430.04" x2="460.36" y2="432.66" xlink:href="#Безымянный_градиент_2"/><linearGradient id="Безымянный_градиент_2-70" x1="-769.41" y1="-433.37" x2="462.7" y2="429.33" xlink:href="#Безымянный_градиент_2"/><linearGradient id="Безымянный_градиент_2-71" x1="-765.55" y1="-438.88" x2="466.55" y2="423.82" xlink:href="#Безымянный_градиент_2"/><linearGradient id="Безымянный_градиент_2-72" x1="-761.09" y1="-445.26" x2="471.02" y2="417.44" xlink:href="#Безымянный_градиент_2"/><linearGradient id="Безымянный_градиент_2-73" x1="-807.74" y1="-378.62" x2="424.36" y2="484.08" xlink:href="#Безымянный_градиент_2"/><linearGradient id="Безымянный_градиент_2-74" x1="-804.52" y1="-383.22" x2="427.58" y2="479.47" xlink:href="#Безымянный_градиент_2"/><linearGradient id="Безымянный_градиент_2-75" x1="-800.74" y1="-388.62" x2="431.36" y2="474.08" xlink:href="#Безымянный_градиент_2"/><linearGradient id="Безымянный_градиент_2-76" x1="-796.33" y1="-394.92" x2="435.77" y2="467.78" xlink:href="#Безымянный_градиент_2"/><linearGradient id="Безымянный_градиент_2-77" x1="-794.54" y1="-397.48" x2="437.57" y2="465.22" xlink:href="#Безымянный_градиент_2"/><linearGradient id="Безымянный_градиент_2-78" x1="-789.28" y1="-405" x2="442.83" y2="457.7" xlink:href="#Безымянный_градиент_2"/><linearGradient id="Безымянный_градиент_2-79" x1="-785.1" y1="-410.96" x2="447.01" y2="451.73" xlink:href="#Безымянный_градиент_2"/><linearGradient id="Безымянный_градиент_2-80" x1="-841.43" y1="-330.5" x2="390.67" y2="532.19" xlink:href="#Безымянный_градиент_2"/><linearGradient id="Безымянный_градиент_2-81" x1="-838.12" y1="-335.23" x2="393.98" y2="527.47" xlink:href="#Безымянный_градиент_2"/><linearGradient id="Безымянный_градиент_2-82" x1="-835.79" y1="-338.57" x2="396.32" y2="524.13" xlink:href="#Безымянный_градиент_2"/><linearGradient id="Безымянный_градиент_2-83" x1="-831.93" y1="-344.08" x2="400.17" y2="518.62" xlink:href="#Безымянный_градиент_2"/><linearGradient id="Безымянный_градиент_2-84" x1="-827.46" y1="-350.46" x2="404.64" y2="512.24" xlink:href="#Безымянный_градиент_2"/><linearGradient id="Безымянный_градиент_2-85" x1="-824.57" y1="-354.58" x2="407.53" y2="508.11" xlink:href="#Безымянный_градиент_2"/><linearGradient id="Безымянный_градиент_2-86" x1="-821.3" y1="-359.26" x2="410.8" y2="503.44" xlink:href="#Безымянный_градиент_2"/><linearGradient id="Безымянный_градиент_2-87" x1="-818.72" y1="-362.94" x2="413.38" y2="499.76" xlink:href="#Безымянный_градиент_2"/><linearGradient id="Безымянный_градиент_2-88" x1="-817.54" y1="-364.63" x2="414.56" y2="498.07" xlink:href="#Безымянный_градиент_2"/><linearGradient id="Безымянный_градиент_2-89" x1="-813.69" y1="-370.13" x2="418.42" y2="492.57" xlink:href="#Безымянный_градиент_2"/><linearGradient id="Безымянный_градиент_2-90" x1="-809.22" y1="-376.51" x2="422.89" y2="486.19" xlink:href="#Безымянный_градиент_2"/><linearGradient id="Безымянный_градиент_2-91" x1="-851.04" y1="-316.78" x2="381.06" y2="545.92" xlink:href="#Безымянный_градиент_2"/><linearGradient id="Безымянный_градиент_2-92" x1="-846.96" y1="-322.61" x2="385.14" y2="540.09" xlink:href="#Безымянный_градиент_2"/><linearGradient id="Безымянный_градиент_2-93" x1="-842.82" y1="-328.52" x2="389.28" y2="534.18" xlink:href="#Безымянный_градиент_2"/><linearGradient id="Безымянный_градиент_2-94" x1="-839.15" y1="-333.77" x2="392.95" y2="528.93" xlink:href="#Безымянный_градиент_2"/><linearGradient id="Безымянный_градиент_2-95" x1="-836.45" y1="-337.62" x2="395.65" y2="525.08" xlink:href="#Безымянный_градиент_2"/><linearGradient id="Безымянный_градиент_2-96" x1="-833.51" y1="-341.83" x2="398.6" y2="520.87" xlink:href="#Безымянный_градиент_2"/><linearGradient id="Безымянный_градиент_2-97" x1="-828.58" y1="-348.86" x2="403.52" y2="513.84" xlink:href="#Безымянный_градиент_2"/><linearGradient id="Безымянный_градиент_2-98" x1="-825.28" y1="-353.58" x2="406.83" y2="509.12" xlink:href="#Безымянный_градиент_2"/><linearGradient id="Безымянный_градиент_2-99" x1="-821.94" y1="-358.34" x2="410.16" y2="504.36" xlink:href="#Безымянный_градиент_2"/><linearGradient id="Безымянный_градиент_2-100" x1="-817.82" y1="-364.23" x2="414.29" y2="498.47" xlink:href="#Безымянный_градиент_2"/><linearGradient id="Безымянный_градиент_2-101" x1="-813.68" y1="-370.15" x2="418.43" y2="492.55" xlink:href="#Безымянный_градиент_2"/><linearGradient id="Безымянный_градиент_2-102" x1="-810.07" y1="-375.3" x2="422.03" y2="487.4" xlink:href="#Безымянный_градиент_2"/><linearGradient id="Безымянный_градиент_2-103" x1="-804.59" y1="-383.13" x2="427.52" y2="479.57" xlink:href="#Безымянный_градиент_2"/><linearGradient id="Безымянный_градиент_2-104" x1="-800.3" y1="-389.25" x2="431.81" y2="473.45" xlink:href="#Безымянный_градиент_2"/><linearGradient id="Безымянный_градиент_2-105" x1="-794.32" y1="-397.79" x2="437.79" y2="464.9" xlink:href="#Безымянный_градиент_2"/><linearGradient id="Безымянный_градиент_2-106" x1="-791.14" y1="-402.33" x2="440.96" y2="460.37" xlink:href="#Безымянный_градиент_2"/><linearGradient id="Безымянный_градиент_2-107" x1="-785.58" y1="-410.28" x2="446.53" y2="452.42" xlink:href="#Безымянный_градиент_2"/><linearGradient id="Безымянный_градиент_2-108" x1="-782.19" y1="-415.11" x2="449.91" y2="447.59" xlink:href="#Безымянный_градиент_2"/><linearGradient id="Безымянный_градиент_2-109" x1="-778.22" y1="-420.78" x2="453.88" y2="441.92" xlink:href="#Безымянный_градиент_2"/><linearGradient id="Безымянный_градиент_2-110" x1="-774.04" y1="-426.76" x2="458.06" y2="435.94" xlink:href="#Безымянный_градиент_2"/><linearGradient id="Безымянный_градиент_2-111" x1="-769.67" y1="-433" x2="462.44" y2="429.69" xlink:href="#Безымянный_градиент_2"/><linearGradient id="Безымянный_градиент_2-112" x1="-767.1" y1="-436.67" x2="465.01" y2="426.03" xlink:href="#Безымянный_градиент_2"/><linearGradient id="Безымянный_градиент_2-113" x1="-762.86" y1="-442.72" x2="469.24" y2="419.98" xlink:href="#Безымянный_градиент_2"/><linearGradient id="Безымянный_градиент_2-114" x1="-758.33" y1="-449.19" x2="473.78" y2="413.5" xlink:href="#Безымянный_градиент_2"/><linearGradient id="Безымянный_градиент_2-115" x1="-754.26" y1="-455.01" x2="477.85" y2="407.69" xlink:href="#Безымянный_градиент_2"/><linearGradient id="Безымянный_градиент_2-116" x1="-749.55" y1="-461.73" x2="482.55" y2="400.97" xlink:href="#Безымянный_градиент_2"/><linearGradient id="Безымянный_градиент_2-117" x1="-886.54" y1="-266.09" x2="345.57" y2="596.61" xlink:href="#Безымянный_градиент_2"/><linearGradient id="Безымянный_градиент_2-118" x1="-883.44" y1="-270.51" x2="348.66" y2="592.19" xlink:href="#Безымянный_градиент_2"/><linearGradient id="Безымянный_градиент_2-119" x1="-881.46" y1="-273.33" x2="350.64" y2="589.37" xlink:href="#Безымянный_градиент_2"/><linearGradient id="Безымянный_градиент_2-120" x1="-877.61" y1="-278.84" x2="354.5" y2="583.86" xlink:href="#Безымянный_градиент_2"/><linearGradient id="Безымянный_градиент_2-121" x1="-873.14" y1="-285.22" x2="358.96" y2="577.48" xlink:href="#Безымянный_градиент_2"/><linearGradient id="Безымянный_градиент_2-122" x1="-870.25" y1="-289.35" x2="361.85" y2="573.35" xlink:href="#Безымянный_градиент_2"/><linearGradient id="Безымянный_градиент_2-123" x1="-866.98" y1="-294.02" x2="365.13" y2="568.68" xlink:href="#Безымянный_градиент_2"/><linearGradient id="Безымянный_градиент_2-124" x1="-863.36" y1="-299.19" x2="368.75" y2="563.51" xlink:href="#Безымянный_градиент_2"/><linearGradient id="Безымянный_градиент_2-125" x1="-861.21" y1="-302.26" x2="370.89" y2="560.44" xlink:href="#Безымянный_градиент_2"/><linearGradient id="Безымянный_градиент_2-126" x1="-857.36" y1="-307.76" x2="374.75" y2="554.94" xlink:href="#Безымянный_градиент_2"/><linearGradient id="Безымянный_градиент_2-127" x1="-852.89" y1="-314.14" x2="379.21" y2="548.56" xlink:href="#Безымянный_градиент_2"/><linearGradient id="Безымянный_градиент_2-128" x1="-896.51" y1="-251.84" x2="335.59" y2="610.86" xlink:href="#Безымянный_градиент_2"/><linearGradient id="Безымянный_градиент_2-129" x1="-890.67" y1="-260.18" x2="341.43" y2="602.52" xlink:href="#Безымянный_градиент_2"/><linearGradient id="Безымянный_градиент_2-130" x1="-888.19" y1="-263.72" x2="343.91" y2="598.98" xlink:href="#Безымянный_градиент_2"/><linearGradient id="Безымянный_градиент_2-131" x1="-885.19" y1="-268.02" x2="346.92" y2="594.68" xlink:href="#Безымянный_градиент_2"/><linearGradient id="Безымянный_градиент_2-132" x1="-879.85" y1="-275.63" x2="352.25" y2="587.07" xlink:href="#Безымянный_градиент_2"/><linearGradient id="Безымянный_градиент_2-133" x1="-875.49" y1="-281.87" x2="356.62" y2="580.83" xlink:href="#Безымянный_градиент_2"/><linearGradient id="Безымянный_градиент_2-134" x1="-931.17" y1="-202.34" x2="300.93" y2="660.36" xlink:href="#Безымянный_градиент_2"/><linearGradient id="Безымянный_градиент_2-135" x1="-927.56" y1="-207.51" x2="304.55" y2="655.19" xlink:href="#Безымянный_градиент_2"/><linearGradient id="Безымянный_градиент_2-136" x1="-925.41" y1="-210.57" x2="306.7" y2="652.13" xlink:href="#Безымянный_градиент_2"/><linearGradient id="Безымянный_градиент_2-137" x1="-921.55" y1="-216.08" x2="310.55" y2="646.62" xlink:href="#Безымянный_градиент_2"/><linearGradient id="Безымянный_градиент_2-138" x1="-917.09" y1="-222.46" x2="315.02" y2="640.24" xlink:href="#Безымянный_градиент_2"/><linearGradient id="Безымянный_градиент_2-139" x1="-914.19" y1="-226.59" x2="317.91" y2="636.11" xlink:href="#Безымянный_градиент_2"/><linearGradient id="Безымянный_градиент_2-140" x1="-910.92" y1="-231.26" x2="321.18" y2="631.44" xlink:href="#Безымянный_градиент_2"/><linearGradient id="Безымянный_градиент_2-141" x1="-907.79" y1="-235.74" x2="324.32" y2="626.96" xlink:href="#Безымянный_градиент_2"/><linearGradient id="Безымянный_градиент_2-142" x1="-905.83" y1="-238.54" x2="326.28" y2="624.16" xlink:href="#Безымянный_градиент_2"/><linearGradient id="Безымянный_градиент_2-143" x1="-901.97" y1="-244.04" x2="330.13" y2="618.66" xlink:href="#Безымянный_градиент_2"/><linearGradient id="Безымянный_градиент_2-144" x1="-897.51" y1="-250.42" x2="334.6" y2="612.28" xlink:href="#Безымянный_градиент_2"/><linearGradient id="Безымянный_градиент_2-145" x1="-941.9" y1="-187.01" x2="290.2" y2="675.68" xlink:href="#Безымянный_градиент_2"/><linearGradient id="Безымянный_градиент_2-146" x1="-938.2" y1="-192.31" x2="293.91" y2="670.39" xlink:href="#Безымянный_градиент_2"/><linearGradient id="Безымянный_градиент_2-147" x1="-934.01" y1="-198.29" x2="298.1" y2="664.41" xlink:href="#Безымянный_градиент_2"/><linearGradient id="Безымянный_градиент_2-148" x1="-929.77" y1="-204.34" x2="302.34" y2="658.36" xlink:href="#Безымянный_градиент_2"/><linearGradient id="Безымянный_градиент_2-149" x1="-925.78" y1="-210.04" x2="306.33" y2="652.65" xlink:href="#Безымянный_градиент_2"/><linearGradient id="Безымянный_градиент_2-150" x1="-922.71" y1="-214.43" x2="309.4" y2="648.27" xlink:href="#Безымянный_градиент_2"/><linearGradient id="Безымянный_градиент_2-151" x1="-918.28" y1="-220.75" x2="313.82" y2="641.95" xlink:href="#Безымянный_градиент_2"/><linearGradient id="Безымянный_градиент_2-152" x1="-913.75" y1="-227.22" x2="318.35" y2="635.48" xlink:href="#Безымянный_градиент_2"/><linearGradient id="Безымянный_градиент_2-153" x1="-909.68" y1="-233.04" x2="322.43" y2="629.66" xlink:href="#Безымянный_градиент_2"/><linearGradient id="Безымянный_градиент_2-154" x1="-904.14" y1="-240.95" x2="327.97" y2="621.75" xlink:href="#Безымянный_градиент_2"/><linearGradient id="Безымянный_градиент_2-155" x1="-899.38" y1="-247.75" x2="332.73" y2="614.95" xlink:href="#Безымянный_градиент_2"/><linearGradient id="Безымянный_градиент_2-156" x1="-894.78" y1="-254.32" x2="337.33" y2="608.38" xlink:href="#Безымянный_градиент_2"/><linearGradient id="Безымянный_градиент_2-157" x1="-891.1" y1="-259.56" x2="341" y2="603.13" xlink:href="#Безымянный_градиент_2"/><linearGradient id="Безымянный_градиент_2-158" x1="-889.3" y1="-262.14" x2="342.8" y2="600.56" xlink:href="#Безымянный_градиент_2"/><linearGradient id="Безымянный_градиент_2-159" x1="-884.47" y1="-269.05" x2="347.64" y2="593.65" xlink:href="#Безымянный_градиент_2"/><linearGradient id="Безымянный_градиент_2-160" x1="-880.54" y1="-274.66" x2="351.57" y2="588.04" xlink:href="#Безымянный_градиент_2"/><linearGradient id="Безымянный_градиент_2-161" x1="-876.12" y1="-280.96" x2="355.98" y2="581.73" xlink:href="#Безымянный_градиент_2"/><linearGradient id="Безымянный_градиент_2-162" x1="-871.94" y1="-286.94" x2="360.17" y2="575.76" xlink:href="#Безымянный_градиент_2"/><linearGradient id="Безымянный_градиент_2-163" x1="-867.49" y1="-293.29" x2="364.61" y2="569.41" xlink:href="#Безымянный_градиент_2"/><linearGradient id="Безымянный_градиент_2-164" x1="-862.36" y1="-300.62" x2="369.75" y2="562.08" xlink:href="#Безымянный_градиент_2"/><linearGradient id="Безымянный_градиент_2-165" x1="-976.28" y1="-137.92" x2="255.83" y2="724.78" xlink:href="#Безымянный_градиент_2"/><linearGradient id="Безымянный_градиент_2-166" x1="-973.07" y1="-142.5" x2="259.03" y2="720.2" xlink:href="#Безымянный_градиент_2"/><linearGradient id="Безымянный_градиент_2-167" x1="-970.76" y1="-145.81" x2="261.35" y2="716.89" xlink:href="#Безымянный_градиент_2"/><linearGradient id="Безымянный_градиент_2-168" x1="-966.9" y1="-151.31" x2="265.2" y2="711.39" xlink:href="#Безымянный_градиент_2"/><linearGradient id="Безымянный_градиент_2-169" x1="-962.43" y1="-157.69" x2="269.67" y2="705.01" xlink:href="#Безымянный_градиент_2"/><linearGradient id="Безымянный_градиент_2-170" x1="-959.54" y1="-161.82" x2="272.56" y2="700.88" xlink:href="#Безымянный_градиент_2"/><linearGradient id="Безымянный_градиент_2-171" x1="-956.27" y1="-166.49" x2="275.83" y2="696.2" xlink:href="#Безымянный_градиент_2"/><linearGradient id="Безымянный_градиент_2-172" x1="-953.5" y1="-170.45" x2="278.6" y2="692.25" xlink:href="#Безымянный_градиент_2"/><linearGradient id="Безымянный_градиент_2-173" x1="-950.9" y1="-174.17" x2="281.2" y2="688.53" xlink:href="#Безымянный_градиент_2"/><linearGradient id="Безымянный_градиент_2-174" x1="-947.04" y1="-179.67" x2="285.06" y2="683.03" xlink:href="#Безымянный_градиент_2"/><linearGradient id="Безымянный_градиент_2-175" x1="-942.58" y1="-186.05" x2="289.53" y2="676.65" xlink:href="#Безымянный_градиент_2"/><linearGradient id="Безымянный_градиент_2-176" x1="-986.49" y1="-123.34" x2="245.62" y2="739.36" xlink:href="#Безымянный_градиент_2"/><linearGradient id="Безымянный_градиент_2-177" x1="-983.44" y1="-127.7" x2="248.67" y2="735" xlink:href="#Безымянный_градиент_2"/><linearGradient id="Безымянный_градиент_2-178" x1="-978.71" y1="-134.44" x2="253.39" y2="728.26" xlink:href="#Безымянный_градиент_2"/><linearGradient id="Безымянный_градиент_2-179" x1="-974.28" y1="-140.78" x2="257.83" y2="721.92" xlink:href="#Безымянный_градиент_2"/><linearGradient id="Безымянный_градиент_2-180" x1="-968.43" y1="-149.13" x2="263.67" y2="713.57" xlink:href="#Безымянный_градиент_2"/><linearGradient id="Безымянный_градиент_2-181" x1="-967.01" y1="-151.15" x2="265.09" y2="711.55" xlink:href="#Безымянный_градиент_2"/><linearGradient id="Безымянный_градиент_2-182" x1="-961.45" y1="-159.09" x2="270.65" y2="703.61" xlink:href="#Безымянный_градиент_2"/><linearGradient id="Безымянный_градиент_2-183" x1="-956.58" y1="-166.05" x2="275.52" y2="696.65" xlink:href="#Безымянный_градиент_2"/><linearGradient id="Безымянный_градиент_2-184" x1="-952.87" y1="-171.36" x2="279.24" y2="691.34" xlink:href="#Безымянный_градиент_2"/><linearGradient id="Безымянный_градиент_2-185" x1="-1020.91" y1="-74.17" x2="211.19" y2="788.53" xlink:href="#Безымянный_градиент_2"/><linearGradient id="Безымянный_градиент_2-186" x1="-1017.78" y1="-78.65" x2="214.33" y2="784.05" xlink:href="#Безымянный_градиент_2"/><linearGradient id="Безымянный_градиент_2-187" x1="-1015.82" y1="-81.45" x2="216.29" y2="781.25" xlink:href="#Безымянный_градиент_2"/><linearGradient id="Безымянный_градиент_2-188" x1="-1011.96" y1="-86.95" x2="220.14" y2="775.74" xlink:href="#Безымянный_градиент_2"/><linearGradient id="Безымянный_градиент_2-189" x1="-1007.5" y1="-93.33" x2="224.61" y2="769.36" xlink:href="#Безымянный_градиент_2"/><linearGradient id="Безымянный_градиент_2-190" x1="-1004.61" y1="-97.46" x2="227.5" y2="765.24" xlink:href="#Безымянный_градиент_2"/><linearGradient id="Безымянный_градиент_2-191" x1="-1001.33" y1="-102.14" x2="230.77" y2="760.56" xlink:href="#Безымянный_градиент_2"/><linearGradient id="Безымянный_градиент_2-192" x1="-997.75" y1="-107.26" x2="234.36" y2="755.44" xlink:href="#Безымянный_градиент_2"/><linearGradient id="Безымянный_градиент_2-193" x1="-995.96" y1="-109.81" x2="236.14" y2="752.89" xlink:href="#Безымянный_градиент_2"/><linearGradient id="Безымянный_градиент_2-194" x1="-992.11" y1="-115.31" x2="240" y2="747.39" xlink:href="#Безымянный_градиент_2"/><linearGradient id="Безымянный_градиент_2-195" x1="-987.64" y1="-121.69" x2="244.47" y2="741.01" xlink:href="#Безымянный_градиент_2"/><linearGradient id="Безымянный_градиент_2-196" x1="-1030.89" y1="-59.93" x2="201.22" y2="802.77" xlink:href="#Безымянный_градиент_2"/><linearGradient id="Безымянный_градиент_2-197" x1="-1026.79" y1="-65.78" x2="205.31" y2="796.92" xlink:href="#Безымянный_градиент_2"/><linearGradient id="Безымянный_градиент_2-198" x1="-1023.22" y1="-70.87" x2="208.88" y2="791.82" xlink:href="#Безымянный_градиент_2"/><linearGradient id="Безымянный_градиент_2-199" x1="-1018.94" y1="-76.99" x2="213.17" y2="785.71" xlink:href="#Безымянный_градиент_2"/><linearGradient id="Безымянный_градиент_2-200" x1="-1013.76" y1="-84.39" x2="218.35" y2="778.31" xlink:href="#Безымянный_градиент_2"/><linearGradient id="Безымянный_градиент_2-201" x1="-1011.11" y1="-88.18" x2="221" y2="774.52" xlink:href="#Безымянный_градиент_2"/><linearGradient id="Безымянный_градиент_2-202" x1="-1006.85" y1="-94.26" x2="225.26" y2="768.44" xlink:href="#Безымянный_градиент_2"/><linearGradient id="Безымянный_градиент_2-203" x1="-1002.4" y1="-100.62" x2="229.71" y2="762.08" xlink:href="#Безымянный_градиент_2"/><linearGradient id="Безымянный_градиент_2-204" x1="-998.13" y1="-106.72" x2="233.98" y2="755.98" xlink:href="#Безымянный_градиент_2"/><linearGradient id="Безымянный_градиент_2-205" x1="-992.81" y1="-114.31" x2="239.29" y2="748.39" xlink:href="#Безымянный_градиент_2"/><linearGradient id="Безымянный_градиент_2-206" x1="-989.41" y1="-119.17" x2="242.7" y2="743.53" xlink:href="#Безымянный_градиент_2"/><linearGradient id="Безымянный_градиент_2-207" x1="-985.23" y1="-125.14" x2="246.88" y2="737.56" xlink:href="#Безымянный_градиент_2"/><linearGradient id="Безымянный_градиент_2-208" x1="-981.94" y1="-129.83" x2="250.16" y2="732.87" xlink:href="#Безымянный_градиент_2"/><linearGradient id="Безымянный_градиент_2-209" x1="-977.71" y1="-135.87" x2="254.39" y2="726.83" xlink:href="#Безымянный_градиент_2"/><linearGradient id="Безымянный_градиент_2-210" x1="-974.96" y1="-139.8" x2="257.14" y2="722.9" xlink:href="#Безымянный_градиент_2"/><linearGradient id="Безымянный_градиент_2-211" x1="-970.68" y1="-145.92" x2="261.43" y2="716.78" xlink:href="#Безымянный_градиент_2"/><linearGradient id="Безымянный_градиент_2-212" x1="-966.74" y1="-151.55" x2="265.37" y2="711.15" xlink:href="#Безымянный_градиент_2"/><linearGradient id="Безымянный_градиент_2-213" x1="-1065.55" y1="-10.42" x2="166.56" y2="852.27" xlink:href="#Безымянный_градиент_2"/><linearGradient id="Безымянный_градиент_2-214" x1="-1061.96" y1="-15.55" x2="170.14" y2="847.15" xlink:href="#Безымянный_градиент_2"/><linearGradient id="Безымянный_градиент_2-215" x1="-1060.18" y1="-18.09" x2="171.93" y2="844.6" xlink:href="#Безымянный_градиент_2"/><linearGradient id="Безымянный_градиент_2-216" x1="-1056.32" y1="-23.6" x2="175.78" y2="839.1" xlink:href="#Безымянный_градиент_2"/><linearGradient id="Безымянный_градиент_2-217" x1="-1051.86" y1="-29.98" x2="180.25" y2="832.72" xlink:href="#Безымянный_градиент_2"/><linearGradient id="Безымянный_градиент_2-218" x1="-1048.96" y1="-34.11" x2="183.14" y2="828.59" xlink:href="#Безымянный_градиент_2"/><linearGradient id="Безымянный_градиент_2-219" x1="-1045.69" y1="-38.78" x2="186.41" y2="823.92" xlink:href="#Безымянный_градиент_2"/><linearGradient id="Безымянный_градиент_2-220" x1="-1042.18" y1="-43.79" x2="189.92" y2="818.91" xlink:href="#Безымянный_градиент_2"/><linearGradient id="Безымянный_градиент_2-221" x1="-1040.56" y1="-46.11" x2="191.54" y2="816.59" xlink:href="#Безымянный_градиент_2"/><linearGradient id="Безымянный_градиент_2-222" x1="-1036.71" y1="-51.61" x2="195.4" y2="811.09" xlink:href="#Безымянный_градиент_2"/><linearGradient id="Безымянный_градиент_2-223" x1="-1032.24" y1="-57.99" x2="199.86" y2="804.71" xlink:href="#Безымянный_градиент_2"/><linearGradient id="Безымянный_градиент_2-224" x1="-1075.6" y1="3.93" x2="156.5" y2="866.63" xlink:href="#Безымянный_градиент_2"/><linearGradient id="Безымянный_градиент_2-225" x1="-1072.75" y1="-0.14" x2="159.36" y2="862.55" xlink:href="#Безымянный_градиент_2"/><linearGradient id="Безымянный_градиент_2-226" x1="-1067.18" y1="-8.09" x2="164.92" y2="854.61" xlink:href="#Безымянный_градиент_2"/><linearGradient id="Безымянный_градиент_2-227" x1="-1063.8" y1="-12.92" x2="168.31" y2="849.78" xlink:href="#Безымянный_градиент_2"/><linearGradient id="Безымянный_градиент_2-228" x1="-1059.83" y1="-18.59" x2="172.28" y2="844.11" xlink:href="#Безымянный_градиент_2"/><linearGradient id="Безымянный_градиент_2-229" x1="-1055.65" y1="-24.57" x2="176.46" y2="838.13" xlink:href="#Безымянный_градиент_2"/><linearGradient id="Безымянный_градиент_2-230" x1="-1051.27" y1="-30.82" x2="180.83" y2="831.88" xlink:href="#Безымянный_градиент_2"/><linearGradient id="Безымянный_градиент_2-231" x1="-1048.7" y1="-34.48" x2="183.4" y2="828.21" xlink:href="#Безымянный_градиент_2"/><linearGradient id="Безымянный_градиент_2-232" x1="-1044.47" y1="-40.53" x2="187.64" y2="822.17" xlink:href="#Безымянный_градиент_2"/><linearGradient id="Безымянный_градиент_2-233" x1="-1039.93" y1="-47.01" x2="192.17" y2="815.69" xlink:href="#Безымянный_градиент_2"/><linearGradient id="Безымянный_градиент_2-234" x1="-1035.86" y1="-52.82" x2="196.24" y2="809.88" xlink:href="#Безымянный_градиент_2"/><linearGradient id="Безымянный_градиент_2-235" x1="-1031.08" y1="-59.65" x2="201.03" y2="803.04" xlink:href="#Безымянный_градиент_2"/><linearGradient id="Безымянный_градиент_2-236" x1="-1025.52" y1="-67.6" x2="206.59" y2="795.1" xlink:href="#Безымянный_градиент_2"/><linearGradient id="Безымянный_градиент_2-237" x1="-1022.13" y1="-72.43" x2="209.97" y2="790.27" xlink:href="#Безымянный_градиент_2"/><linearGradient id="Безымянный_градиент_2-238" x1="-1019.22" y1="-76.59" x2="212.88" y2="786.11" xlink:href="#Безымянный_градиент_2"/><linearGradient id="Безымянный_градиент_2-239" x1="-1015" y1="-82.61" x2="217.1" y2="780.09" xlink:href="#Безымянный_градиент_2"/><linearGradient id="Безымянный_градиент_2-240" x1="-1011.74" y1="-87.27" x2="220.36" y2="775.43" xlink:href="#Безымянный_градиент_2"/><linearGradient id="Безымянный_градиент_2-241" x1="-1007.16" y1="-93.81" x2="224.94" y2="768.89" xlink:href="#Безымянный_градиент_2"/><linearGradient id="Безымянный_градиент_2-242" x1="-1004.59" y1="-97.48" x2="227.51" y2="765.22" xlink:href="#Безымянный_градиент_2"/><linearGradient id="Безымянный_градиент_2-243" x1="-1000.37" y1="-103.52" x2="231.74" y2="759.18" xlink:href="#Безымянный_градиент_2"/><linearGradient id="Безымянный_градиент_2-244" x1="-997.62" y1="-107.45" x2="234.49" y2="755.25" xlink:href="#Безымянный_градиент_2"/><linearGradient id="Безымянный_градиент_2-245" x1="-993.81" y1="-112.88" x2="238.29" y2="749.82" xlink:href="#Безымянный_градиент_2"/></defs><g id="Слой_2" data-name="Слой 2"><g id="Слой_1-2" data-name="Слой 1"><rect class="cls-1" x="10.75" y="120.92" width="5" height="73.37"/><rect class="cls-2" x="10.75" y="311.66" width="5" height="73.38"/><rect class="cls-3" x="10.75" y="502.42" width="5" height="73.37"/><rect class="cls-4" x="10.75" y="693.16" width="5" height="74.38"/><rect class="cls-5" x="10.75" y="597.79" width="5" height="73.37"/><rect class="cls-6" x="10.75" y="407.04" width="5" height="73.38"/><rect class="cls-7" x="10.75" y="216.29" width="5" height="73.37"/><rect class="cls-8" x="10.75" y="25.04" width="5" height="73.88"/><path class="cls-9" d="M13.5,28A13.5,13.5,0,1,1,27,14.54,13.52,13.52,0,0,1,13.5,28Zm0-22a8.5,8.5,0,1,0,8.5,8.5A8.51,8.51,0,0,0,13.5,6Z"/><path class="cls-10" d="M13.5,123.42A13.5,13.5,0,1,1,27,109.92,13.52,13.52,0,0,1,13.5,123.42Zm0-22a8.5,8.5,0,1,0,8.5,8.5A8.51,8.51,0,0,0,13.5,101.42Z"/><path class="cls-11" d="M13.5,218.79A13.5,13.5,0,1,1,27,205.29,13.52,13.52,0,0,1,13.5,218.79Zm0-22a8.5,8.5,0,1,0,8.5,8.5A8.51,8.51,0,0,0,13.5,196.79Z"/><path class="cls-12" d="M13.5,314.17A13.5,13.5,0,1,1,27,300.67,13.52,13.52,0,0,1,13.5,314.17Zm0-22a8.5,8.5,0,1,0,8.5,8.5A8.51,8.51,0,0,0,13.5,292.17Z"/><path class="cls-13" d="M13.5,409.54A13.5,13.5,0,1,1,27,396,13.52,13.52,0,0,1,13.5,409.54Zm0-22A8.5,8.5,0,1,0,22,396,8.51,8.51,0,0,0,13.5,387.54Z"/><path class="cls-14" d="M13.5,504.92A13.5,13.5,0,1,1,27,491.42,13.52,13.52,0,0,1,13.5,504.92Zm0-22a8.5,8.5,0,1,0,8.5,8.5A8.51,8.51,0,0,0,13.5,482.92Z"/><path class="cls-15" d="M13.5,600.29A13.5,13.5,0,1,1,27,586.79,13.52,13.52,0,0,1,13.5,600.29Zm0-22a8.5,8.5,0,1,0,8.5,8.5A8.51,8.51,0,0,0,13.5,578.29Z"/><path class="cls-16" d="M13.5,695.67A13.5,13.5,0,1,1,27,682.17,13.52,13.52,0,0,1,13.5,695.67Zm0-22a8.5,8.5,0,1,0,8.5,8.5A8.51,8.51,0,0,0,13.5,673.67Z"/><path class="cls-17" d="M13.5,791A13.5,13.5,0,1,1,27,777.54,13.52,13.52,0,0,1,13.5,791Zm0-22a8.5,8.5,0,1,0,8.5,8.5A8.51,8.51,0,0,0,13.5,769Z"/><path class="cls-18" d="M45.62,7.24c0-4.62,2.56-7.24,6-7.24s6,2.62,6,7.24-2.54,7.24-6,7.24S45.62,11.86,45.62,7.24Zm8.74,0c0-3.18-1.12-4.5-2.74-4.5S48.9,4.06,48.9,7.24s1.12,4.5,2.72,4.5S54.36,10.42,54.36,7.24Z"/><path class="cls-19" d="M64.48.24v14H61.24V2.84h-2.8V.24Z"/><path class="cls-20" d="M66.82,5.26a1.94,1.94,0,0,1,3.88,0,1.94,1.94,0,1,1-3.88,0Zm0,7.18a1.94,1.94,0,0,1,3.88,0,1.94,1.94,0,1,1-3.88,0Z"/><path class="cls-21" d="M72.16,7.24c0-4.62,2.56-7.24,6-7.24s6,2.62,6,7.24-2.54,7.24-6,7.24S72.16,11.86,72.16,7.24Zm8.74,0c0-3.18-1.12-4.5-2.74-4.5s-2.72,1.32-2.72,4.5,1.12,4.5,2.72,4.5S80.9,10.42,80.9,7.24Z"/><path class="cls-22" d="M85.74,7.24c0-4.62,2.56-7.24,6-7.24s6,2.62,6,7.24-2.54,7.24-6,7.24S85.74,11.86,85.74,7.24Zm8.74,0c0-3.18-1.12-4.5-2.74-4.5S89,4.06,89,7.24s1.12,4.5,2.72,4.5S94.48,10.42,94.48,7.24Z"/><path class="cls-23" d="M99.66,7.36h5.66v2.5H99.66Z"/><path class="cls-24" d="M107.2,7.24c0-4.62,2.56-7.24,6-7.24s6,2.62,6,7.24-2.54,7.24-6,7.24S107.2,11.86,107.2,7.24Zm8.74,0c0-3.18-1.12-4.5-2.74-4.5s-2.72,1.32-2.72,4.5,1.12,4.5,2.72,4.5S115.94,10.42,115.94,7.24Z"/><path class="cls-25" d="M131.12,11.6v2.64H120.54v-2.1l5.4-5.1c1.24-1.18,1.46-1.9,1.46-2.58,0-1.1-.76-1.74-2.24-1.74a3.42,3.42,0,0,0-2.9,1.4L119.9,2.6A6.5,6.5,0,0,1,125.46,0c3.12,0,5.2,1.6,5.2,4.14,0,1.36-.38,2.6-2.34,4.42l-3.22,3Z"/><path class="cls-26" d="M132.36,5.26a1.94,1.94,0,0,1,3.88,0,1.94,1.94,0,1,1-3.88,0Zm0,7.18a1.94,1.94,0,0,1,3.88,0,1.94,1.94,0,1,1-3.88,0Z"/><path class="cls-27" d="M137.7,7.24c0-4.62,2.56-7.24,6-7.24s6,2.62,6,7.24-2.54,7.24-6,7.24S137.7,11.86,137.7,7.24Zm8.74,0c0-3.18-1.12-4.5-2.74-4.5S141,4.06,141,7.24s1.12,4.5,2.72,4.5S146.44,10.42,146.44,7.24Z"/><path class="cls-28" d="M151.28,7.24c0-4.62,2.56-7.24,6-7.24s6,2.62,6,7.24-2.54,7.24-6,7.24S151.28,11.86,151.28,7.24Zm8.74,0c0-3.18-1.12-4.5-2.74-4.5s-2.72,1.32-2.72,4.5,1.12,4.5,2.72,4.5S160,10.42,160,7.24Z"/><path class="cls-29" d="M58.76,24.24v14h-1V31.58H48.38v6.66h-1v-14h1v6.44h9.36V24.24Z"/><path class="cls-30" d="M62.38,33a5.22,5.22,0,1,1,10.44,0,5.22,5.22,0,1,1-10.44,0Zm9.42,0a4.2,4.2,0,1,0-8.4,0,4.2,4.2,0,1,0,8.4,0Z"/><path class="cls-31" d="M83.58,27.8V38.24h-1v-4.5a9,9,0,0,1-3.72.86c-2.38,0-3.94-1.08-3.94-3.32V27.8h1v3.42c0,1.66,1.2,2.54,3.08,2.54a9.47,9.47,0,0,0,3.58-.82V27.8Z"/><path class="cls-32" d="M87.9,27.8h1v4.76H96V27.8h1V38.24H96v-4.8H88.9v4.8h-1Z"/><path class="cls-33" d="M100.24,33a5.22,5.22,0,1,1,10.44,0,5.22,5.22,0,1,1-10.44,0Zm9.42,0a4.2,4.2,0,1,0-8.4,0,4.2,4.2,0,1,0,8.4,0Z"/><path class="cls-34" d="M113.94,27.8h1v8.9l7.44-8.9h.88V38.24h-1v-8.9l-7.44,8.9h-.88Zm1.78-4.06h.74a1.9,1.9,0,0,0,2.1,1.78,1.87,1.87,0,0,0,2.08-1.78h.76a2.87,2.87,0,0,1-5.68,0Z"/><path class="cls-35" d="M141.84,27.8V38.24h-1V28.7h-7.12v9.54h-1V27.8Z"/><path class="cls-36" d="M155.06,33.26h-9a4.47,4.47,0,0,0,7.76,2.7l.58.66a5,5,0,0,1-3.94,1.7A5.13,5.13,0,0,1,145.1,33a5,5,0,1,1,10,0C155.08,33.06,155.06,33.16,155.06,33.26Zm-9-.78h8a4,4,0,0,0-8,0Z"/><path class="cls-37" d="M168.76,33a5,5,0,0,1-5.16,5.3,4.67,4.67,0,0,1-4.24-2.46v6.26h-1V27.8h1v2.46a4.67,4.67,0,0,1,4.28-2.54A5.06,5.06,0,0,1,168.76,33Zm-1,0a4.21,4.21,0,1,0-8.42,0,4.21,4.21,0,1,0,8.42,0Z"/><path class="cls-38" d="M180.92,33.26h-9A4.47,4.47,0,0,0,179.7,36l.58.66a5,5,0,0,1-3.94,1.7A5.13,5.13,0,0,1,171,33a5,5,0,1,1,10,0C180.94,33.06,180.92,33.16,180.92,33.26Zm-9-.78h8a4,4,0,0,0-8,0Z"/><path class="cls-39" d="M187.74,33.4H185.2v4.84h-1V27.8h1v4.74h2.54l3.94-4.74h1.1l-4.24,5.06,4.56,5.38h-1.2Z"/><path class="cls-40" d="M203.46,27.8,198.1,39.66c-.84,1.92-1.88,2.54-3.26,2.54a3.33,3.33,0,0,1-2.42-.94l.5-.76a2.54,2.54,0,0,0,1.94.82c1,0,1.66-.44,2.3-1.86l.56-1.26L193,27.8h1.06l4.18,9.34,4.18-9.34Z"/><path class="cls-41" d="M204.52,33a5.09,5.09,0,0,1,5.28-5.3,4.58,4.58,0,0,1,4,1.92l-.74.54a3.81,3.81,0,0,0-3.22-1.56,4.14,4.14,0,0,0-4.26,4.4,4.14,4.14,0,0,0,4.26,4.4A3.81,3.81,0,0,0,213,35.86l.74.54a4.63,4.63,0,0,1-4,1.92A5.1,5.1,0,0,1,204.52,33Z"/><path class="cls-42" d="M45.62,103.24c0-4.62,2.56-7.24,6-7.24s6,2.62,6,7.24-2.54,7.24-6,7.24S45.62,107.86,45.62,103.24Zm8.74,0c0-3.18-1.12-4.5-2.74-4.5s-2.72,1.32-2.72,4.5,1.12,4.5,2.72,4.5S54.36,106.42,54.36,103.24Z"/><path class="cls-43" d="M69.78,105.84c0,2.48-1.82,4.64-5.82,4.64a9.67,9.67,0,0,1-5.34-1.5l1.28-2.48a6.74,6.74,0,0,0,4,1.26c1.62,0,2.62-.68,2.62-1.82s-.72-1.82-3.26-1.82H59.66l.72-7.88h8.54v2.6H63.08l-.22,2.66H64C68.14,101.5,69.78,103.36,69.78,105.84Z"/><path class="cls-44" d="M71,101.26a1.94,1.94,0,0,1,3.88,0,1.94,1.94,0,1,1-3.88,0Zm0,7.18a1.94,1.94,0,0,1,3.88,0,1.94,1.94,0,1,1-3.88,0Z"/><path class="cls-45" d="M76.34,103.24c0-4.62,2.56-7.24,6-7.24s6,2.62,6,7.24-2.54,7.24-6,7.24S76.34,107.86,76.34,103.24Zm8.74,0c0-3.18-1.12-4.5-2.74-4.5s-2.72,1.32-2.72,4.5,1.12,4.5,2.72,4.5S85.08,106.42,85.08,103.24Z"/><path class="cls-46" d="M89.92,103.24c0-4.62,2.56-7.24,6-7.24s6,2.62,6,7.24-2.54,7.24-6,7.24S89.92,107.86,89.92,103.24Zm8.74,0c0-3.18-1.12-4.5-2.74-4.5s-2.72,1.32-2.72,4.5,1.12,4.5,2.72,4.5S98.66,106.42,98.66,103.24Z"/><path class="cls-47" d="M103.84,103.36h5.66v2.5h-5.66Z"/><path class="cls-48" d="M111.38,103.24c0-4.62,2.56-7.24,6-7.24s6,2.62,6,7.24-2.54,7.24-6,7.24S111.38,107.86,111.38,103.24Zm8.74,0c0-3.18-1.12-4.5-2.74-4.5s-2.72,1.32-2.72,4.5,1.12,4.5,2.72,4.5S120.12,106.42,120.12,103.24Z"/><path class="cls-49" d="M136.52,105.82c0,2.86-2.34,4.66-5.3,4.66-3.86,0-6.26-2.42-6.26-6.94,0-4.84,2.92-7.54,7.14-7.54a7.56,7.56,0,0,1,3.9,1l-1.2,2.38a4.61,4.61,0,0,0-2.62-.7c-2.34,0-3.84,1.38-3.94,4.06a4.73,4.73,0,0,1,3.46-1.24C134.4,101.46,136.52,103.18,136.52,105.82Zm-3.14.16a2.11,2.11,0,0,0-2.38-2.1,2.19,2.19,0,0,0-2.42,2.1c0,1.2.9,2.08,2.46,2.08A2.09,2.09,0,0,0,133.38,106Z"/><path class="cls-50" d="M137.6,101.26a1.94,1.94,0,0,1,3.88,0,1.94,1.94,0,1,1-3.88,0Zm0,7.18a1.94,1.94,0,0,1,3.88,0,1.94,1.94,0,1,1-3.88,0Z"/><path class="cls-51" d="M142.94,103.24c0-4.62,2.56-7.24,6-7.24s6,2.62,6,7.24-2.54,7.24-6,7.24S142.94,107.86,142.94,103.24Zm8.74,0c0-3.18-1.12-4.5-2.74-4.5s-2.72,1.32-2.72,4.5,1.12,4.5,2.72,4.5S151.68,106.42,151.68,103.24Z"/><path class="cls-52" d="M156.52,103.24c0-4.62,2.56-7.24,6-7.24s6,2.62,6,7.24-2.54,7.24-6,7.24S156.52,107.86,156.52,103.24Zm8.74,0c0-3.18-1.12-4.5-2.74-4.5s-2.72,1.32-2.72,4.5,1.12,4.5,2.72,4.5S165.26,106.42,165.26,103.24Z"/><path class="cls-53" d="M51.74,127.6H48.38v6.64h-1v-14h1v6.44h3.38l5-6.44h1.14l-5.36,6.82,5.72,7.18h-1.2Z"/><path class="cls-54" d="M59.24,129a5.22,5.22,0,1,1,5.22,5.3A5.09,5.09,0,0,1,59.24,129Zm9.42,0a4.2,4.2,0,1,0-4.2,4.4A4.14,4.14,0,0,0,68.66,129Z"/><path class="cls-55" d="M78.94,134.34v3.78H78v-3.78c-3.88-.12-6.12-2.06-6.12-5.34s2.26-5.16,6.12-5.28V119.4h1v4.32c3.88.12,6.12,2,6.12,5.28S82.82,134.2,78.94,134.34Zm-1-.9v-8.82c-3.32.14-5.12,1.72-5.12,4.38S74.66,133.3,78,133.44ZM84.08,129c0-2.68-1.84-4.24-5.14-4.38v8.82C82.24,133.3,84.08,131.72,84.08,129Z"/><path class="cls-56" d="M97.2,129.26h-9A4.47,4.47,0,0,0,96,132l.58.66a5,5,0,0,1-3.94,1.7,5.13,5.13,0,0,1-5.38-5.3,5,5,0,1,1,10,0C97.22,129.06,97.2,129.16,97.2,129.26Zm-9-.78h8a4,4,0,0,0-8,0Z"/><path class="cls-57" d="M110.32,129.1a5,5,0,0,1-5.14,5.24c-3.48,0-5.4-2.7-5.4-6.82,0-4.74,1.72-6.8,5.24-7.64l4.62-1.12.16.94-4.4,1c-3.16.74-4.6,2.38-4.66,6.32a4.67,4.67,0,0,1,4.58-3.1A4.84,4.84,0,0,1,110.32,129.1Zm-1,0a4.11,4.11,0,1,0-8.22,0,4.12,4.12,0,1,0,8.22,0Z"/><path class="cls-58" d="M124,129a5,5,0,0,1-5.16,5.3,4.67,4.67,0,0,1-4.24-2.46v6.26h-1V123.8h1v2.46a4.67,4.67,0,0,1,4.28-2.54A5.06,5.06,0,0,1,124,129Zm-1,0a4.21,4.21,0,1,0-4.22,4.4A4.16,4.16,0,0,0,123,129Z"/><path class="cls-59" d="M136.18,129.26h-9A4.47,4.47,0,0,0,135,132l.58.66a5,5,0,0,1-3.94,1.7,5.13,5.13,0,0,1-5.38-5.3,5,5,0,1,1,10,0C136.2,129.06,136.18,129.16,136.18,129.26Zm-9-.78h8a4,4,0,0,0-8,0Z"/><path class="cls-60" d="M139.46,123.8h1v8.9l7.44-8.9h.88v10.44h-1v-8.9l-7.44,8.9h-.88Zm1.78-4.06H142a1.9,1.9,0,0,0,2.1,1.78,1.87,1.87,0,0,0,2.08-1.78h.76a2.87,2.87,0,0,1-5.68,0Z"/><path class="cls-61" d="M156.64,129.4H154.1v4.84h-1V123.8h1v4.74h2.54l3.94-4.74h1.1l-4.24,5.06,4.56,5.38h-1.2Z"/><path class="cls-62" d="M45.62,198.24c0-4.62,2.56-7.24,6-7.24s6,2.62,6,7.24-2.54,7.24-6,7.24S45.62,202.86,45.62,198.24Zm8.74,0c0-3.18-1.12-4.5-2.74-4.5s-2.72,1.32-2.72,4.5,1.12,4.5,2.72,4.5S54.36,201.42,54.36,198.24Z"/><path class="cls-63" d="M70.38,197.94c0,4.84-2.9,7.54-7.14,7.54a7.48,7.48,0,0,1-3.88-1l1.2-2.38a4.53,4.53,0,0,0,2.62.7c2.32,0,3.84-1.38,3.94-4.08A4.78,4.78,0,0,1,63.64,200c-2.7,0-4.82-1.72-4.82-4.36,0-2.86,2.34-4.66,5.3-4.66C68,191,70.38,193.42,70.38,197.94Zm-3.62-2.44c0-1.2-.9-2.08-2.44-2.08a2.11,2.11,0,1,0,0,4.18A2.17,2.17,0,0,0,66.76,195.5Z"/><path class="cls-64" d="M71.84,196.26a1.94,1.94,0,0,1,3.88,0,1.94,1.94,0,1,1-3.88,0Zm0,7.18a1.94,1.94,0,0,1,3.88,0,1.94,1.94,0,1,1-3.88,0Z"/><path class="cls-65" d="M77.18,198.24c0-4.62,2.56-7.24,6-7.24s6,2.62,6,7.24-2.54,7.24-6,7.24S77.18,202.86,77.18,198.24Zm8.74,0c0-3.18-1.12-4.5-2.74-4.5s-2.72,1.32-2.72,4.5,1.12,4.5,2.72,4.5S85.92,201.42,85.92,198.24Z"/><path class="cls-66" d="M90.76,198.24c0-4.62,2.56-7.24,6-7.24s6,2.62,6,7.24-2.54,7.24-6,7.24S90.76,202.86,90.76,198.24Zm8.74,0c0-3.18-1.12-4.5-2.74-4.5S94,195.06,94,198.24s1.12,4.5,2.72,4.5S99.5,201.42,99.5,198.24Z"/><path class="cls-67" d="M104.68,198.36h5.66v2.5h-5.66Z"/><path class="cls-68" d="M117.12,191.24v14h-3.24v-11.4h-2.8v-2.6Z"/><path class="cls-69" d="M119.56,198.24c0-4.62,2.56-7.24,6-7.24s6,2.62,6,7.24-2.54,7.24-6,7.24S119.56,202.86,119.56,198.24Zm8.74,0c0-3.18-1.12-4.5-2.74-4.5s-2.72,1.32-2.72,4.5,1.12,4.5,2.72,4.5S128.3,201.42,128.3,198.24Z"/><path class="cls-70" d="M133,196.26a1.94,1.94,0,0,1,3.88,0,1.94,1.94,0,1,1-3.88,0Zm0,7.18a1.94,1.94,0,0,1,3.88,0,1.94,1.94,0,1,1-3.88,0Z"/><path class="cls-71" d="M138.38,198.24c0-4.62,2.56-7.24,6-7.24s6,2.62,6,7.24-2.54,7.24-6,7.24S138.38,202.86,138.38,198.24Zm8.74,0c0-3.18-1.12-4.5-2.74-4.5s-2.72,1.32-2.72,4.5,1.12,4.5,2.72,4.5S147.12,201.42,147.12,198.24Z"/><path class="cls-72" d="M152,198.24c0-4.62,2.56-7.24,6-7.24s6,2.62,6,7.24-2.54,7.24-6,7.24S152,202.86,152,198.24Zm8.74,0c0-3.18-1.12-4.5-2.74-4.5s-2.72,1.32-2.72,4.5,1.12,4.5,2.72,4.5S160.7,201.42,160.7,198.24Z"/><path class="cls-73" d="M56,225.32c0,2.54-2.54,4-5.34,4a7.55,7.55,0,0,1-5.08-1.9l.42-.72a6.68,6.68,0,0,0,4.54,1.72c2.34,0,4.42-1.18,4.42-3.24,0-1.8-1.46-2.8-4-2.8H48.12v-.88H51c2.14,0,3.4-1,3.4-2.6,0-1.86-1.78-2.94-3.94-2.94a7.41,7.41,0,0,0-4,1.22l-.38-.86a8.44,8.44,0,0,1,4.42-1.28c2.7,0,5,1.4,5,3.74A3.14,3.14,0,0,1,53,221.92,3.46,3.46,0,0,1,56,225.32Z"/><path class="cls-74" d="M67.1,222.62v6.62h-1v-1.86a4,4,0,0,1-3.76,1.94c-2.34,0-3.76-1.2-3.76-3,0-1.58,1-2.92,3.9-2.92H66.1v-.84c0-1.94-1.06-3-3.1-3a5.42,5.42,0,0,0-3.6,1.32l-.5-.72a6.37,6.37,0,0,1,4.18-1.48C65.66,218.72,67.1,220,67.1,222.62Zm-1,3.54v-2H62.54c-2.16,0-2.92.9-2.92,2.1,0,1.36,1.06,2.2,2.9,2.2A3.58,3.58,0,0,0,66.1,226.16Z"/><path class="cls-75" d="M79.64,226.44c0,1.8-1.28,2.8-4,2.8H71.16V218.8h4.4c2.3,0,3.72.92,3.72,2.66a2.4,2.4,0,0,1-1.94,2.4A2.42,2.42,0,0,1,79.64,226.44Zm-7.5-2.88H75.5c1.78,0,2.78-.68,2.78-2s-1-2-2.78-2H72.14Zm6.5,2.84c0-1.42-.86-2.06-2.82-2.06H72.14v4.08h3.52C77.6,228.42,78.64,227.8,78.64,226.4Z"/><path class="cls-76" d="M90.18,219.7H86.1v9.54h-1V219.7H81v-.9h9.16Z"/><path class="cls-77" d="M102.74,224a5,5,0,0,1-5.16,5.3,4.67,4.67,0,0,1-4.24-2.46v6.26h-1V218.8h1v2.46a4.67,4.67,0,0,1,4.28-2.54A5.06,5.06,0,0,1,102.74,224Zm-1,0a4.21,4.21,0,1,0-4.22,4.4A4.16,4.16,0,0,0,101.74,224Z"/><path class="cls-78" d="M113.44,222.62v6.62h-1v-1.86a4,4,0,0,1-3.76,1.94c-2.34,0-3.76-1.2-3.76-3,0-1.58,1-2.92,3.9-2.92h3.58v-.84c0-1.94-1.06-3-3.1-3a5.42,5.42,0,0,0-3.6,1.32l-.5-.72a6.37,6.37,0,0,1,4.18-1.48C112,218.72,113.44,220,113.44,222.62Zm-1,3.54v-2h-3.56c-2.16,0-2.92.9-2.92,2.1,0,1.36,1.06,2.2,2.9,2.2A3.58,3.58,0,0,0,112.44,226.16Z"/><path class="cls-79" d="M121,224.4H118.5v4.84h-1V218.8h1v4.74H121L125,218.8h1.1l-4.24,5.06,4.56,5.38h-1.2Z"/><path class="cls-80" d="M51,286.24v14H47.78v-11.4H45v-2.6Z"/><path class="cls-81" d="M53.46,293.24c0-4.62,2.56-7.24,6-7.24s6,2.62,6,7.24-2.54,7.24-6,7.24S53.46,297.86,53.46,293.24Zm8.74,0c0-3.18-1.12-4.5-2.74-4.5s-2.72,1.32-2.72,4.5,1.12,4.5,2.72,4.5S62.2,296.42,62.2,293.24Z"/><path class="cls-82" d="M66.94,291.26a1.94,1.94,0,0,1,3.88,0,1.94,1.94,0,1,1-3.88,0Zm0,7.18a1.94,1.94,0,0,1,3.88,0,1.94,1.94,0,1,1-3.88,0Z"/><path class="cls-83" d="M72.28,293.24c0-4.62,2.56-7.24,6-7.24s6,2.62,6,7.24-2.54,7.24-6,7.24S72.28,297.86,72.28,293.24Zm8.74,0c0-3.18-1.12-4.5-2.74-4.5s-2.72,1.32-2.72,4.5,1.12,4.5,2.72,4.5S81,296.42,81,293.24Z"/><path class="cls-84" d="M85.86,293.24c0-4.62,2.56-7.24,6-7.24s6,2.62,6,7.24-2.54,7.24-6,7.24S85.86,297.86,85.86,293.24Zm8.74,0c0-3.18-1.12-4.5-2.74-4.5s-2.72,1.32-2.72,4.5,1.12,4.5,2.72,4.5S94.6,296.42,94.6,293.24Z"/><path class="cls-85" d="M99.78,293.36h5.66v2.5H99.78Z"/><path class="cls-86" d="M112.22,286.24v14H109v-11.4h-2.8v-2.6Z"/><path class="cls-87" d="M120.06,286.24v14h-3.24v-11.4H114v-2.6Z"/><path class="cls-88" d="M122.4,291.26a1.94,1.94,0,0,1,3.88,0,1.94,1.94,0,1,1-3.88,0Zm0,7.18a1.94,1.94,0,0,1,3.88,0,1.94,1.94,0,1,1-3.88,0Z"/><path class="cls-89" d="M127.74,293.24c0-4.62,2.56-7.24,6-7.24s6,2.62,6,7.24-2.54,7.24-6,7.24S127.74,297.86,127.74,293.24Zm8.74,0c0-3.18-1.12-4.5-2.74-4.5s-2.72,1.32-2.72,4.5,1.12,4.5,2.72,4.5S136.48,296.42,136.48,293.24Z"/><path class="cls-90" d="M141.32,293.24c0-4.62,2.56-7.24,6-7.24s6,2.62,6,7.24-2.54,7.24-6,7.24S141.32,297.86,141.32,293.24Zm8.74,0c0-3.18-1.12-4.5-2.74-4.5s-2.72,1.32-2.72,4.5,1.12,4.5,2.72,4.5S150.06,296.42,150.06,293.24Z"/><path class="cls-91" d="M60.6,324.24l0-12-5.86,10.12h-.5L48.36,312.3v11.94h-1v-14h.86l6.26,10.82,6.26-10.82h.84l0,14Z"/><path class="cls-92" d="M73.76,317.62v6.62h-1v-1.86A4,4,0,0,1,69,324.32c-2.34,0-3.76-1.2-3.76-3,0-1.58,1-2.92,3.9-2.92h3.58v-.84c0-1.94-1.06-3-3.1-3a5.42,5.42,0,0,0-3.6,1.32l-.5-.72a6.37,6.37,0,0,1,4.18-1.48C72.32,313.72,73.76,315,73.76,317.62Zm-1,3.54v-2H69.2c-2.16,0-2.92.9-2.92,2.1,0,1.36,1.06,2.2,2.9,2.2A3.58,3.58,0,0,0,72.76,321.16Z"/><path class="cls-93" d="M76.76,319a5.09,5.09,0,0,1,5.28-5.3,4.58,4.58,0,0,1,4,1.92l-.74.54A3.81,3.81,0,0,0,82,314.62a4.4,4.4,0,0,0,0,8.8,3.81,3.81,0,0,0,3.22-1.56l.74.54a4.63,4.63,0,0,1-4,1.92A5.1,5.1,0,0,1,76.76,319Z"/><path class="cls-94" d="M95.7,314.7H91.62v9.54h-1V314.7H86.54v-.9H95.7Z"/><path class="cls-95" d="M106.26,319.26h-9A4.47,4.47,0,0,0,105,322l.58.66a5,5,0,0,1-3.94,1.7A5.13,5.13,0,0,1,96.3,319a5,5,0,1,1,10,0C106.28,319.06,106.26,319.16,106.26,319.26Zm-9-.78h8a4,4,0,0,0-8,0Z"/><path class="cls-96" d="M120,319a5,5,0,0,1-5.16,5.3,4.67,4.67,0,0,1-4.24-2.46v6.26h-1V313.8h1v2.46a4.67,4.67,0,0,1,4.28-2.54A5.06,5.06,0,0,1,120,319Zm-1,0a4.21,4.21,0,1,0-4.22,4.4A4.16,4.16,0,0,0,119,319Z"/><path class="cls-97" d="M122.5,318.42h5.14v.9H122.5Z"/><path class="cls-98" d="M134.58,319.4H132v4.84h-1V313.8h1v4.74h2.54l3.94-4.74h1.1l-4.24,5.06,4.56,5.38h-1.2Z"/><path class="cls-99" d="M150.56,313.8v10.44h-1V314.7h-5.44l-.14,2.78c-.2,3.66-.6,6.88-2.78,6.88a3.65,3.65,0,0,1-.86-.14l.1-.86a2.19,2.19,0,0,0,.48.08c1.78,0,2-3,2.14-6l.18-3.6Z"/><path class="cls-100" d="M162.36,317.62v6.62h-1v-1.86a4,4,0,0,1-3.76,1.94c-2.34,0-3.76-1.2-3.76-3,0-1.58,1-2.92,3.9-2.92h3.58v-.84c0-1.94-1.06-3-3.1-3a5.42,5.42,0,0,0-3.6,1.32l-.5-.72a6.37,6.37,0,0,1,4.18-1.48C160.92,313.72,162.36,315,162.36,317.62Zm-1,3.54v-2H157.8c-2.16,0-2.92.9-2.92,2.1,0,1.36,1.06,2.2,2.9,2.2A3.58,3.58,0,0,0,161.36,321.16Z"/><path class="cls-101" d="M165.36,319a5.09,5.09,0,0,1,5.28-5.3,4.58,4.58,0,0,1,4,1.92l-.74.54a3.81,3.81,0,0,0-3.22-1.56,4.4,4.4,0,0,0,0,8.8,3.81,3.81,0,0,0,3.22-1.56l.74.54a4.63,4.63,0,0,1-4,1.92A5.1,5.1,0,0,1,165.36,319Z"/><path class="cls-102" d="M176.32,319a5.09,5.09,0,0,1,5.28-5.3,4.58,4.58,0,0,1,4,1.92l-.74.54a3.81,3.81,0,0,0-3.22-1.56,4.4,4.4,0,0,0,0,8.8,3.81,3.81,0,0,0,3.22-1.56l.74.54a4.63,4.63,0,0,1-4,1.92A5.1,5.1,0,0,1,176.32,319Z"/><path class="cls-103" d="M202.78,313.8v10.44h-1V314.7h-7.12v9.54h-1V313.8Z"/><path class="cls-104" d="M206,319a5.22,5.22,0,1,1,5.22,5.3A5.09,5.09,0,0,1,206,319Zm9.42,0a4.2,4.2,0,1,0-4.2,4.4A4.14,4.14,0,0,0,215.46,319Z"/><path class="cls-105" d="M234,313.8v10.44h-1V314.7h-7.12v9.54h-1V313.8Z"/><path class="cls-106" d="M248.74,319a5,5,0,0,1-5.16,5.3,4.67,4.67,0,0,1-4.24-2.46v6.26h-1V313.8h1v2.46a4.67,4.67,0,0,1,4.28-2.54A5.06,5.06,0,0,1,248.74,319Zm-1,0a4.21,4.21,0,1,0-4.22,4.4A4.16,4.16,0,0,0,247.74,319Z"/><path class="cls-107" d="M260.9,319.26h-9a4.47,4.47,0,0,0,7.76,2.7l.58.66a5,5,0,0,1-3.94,1.7,5.13,5.13,0,0,1-5.38-5.3,5,5,0,1,1,10,0C260.92,319.06,260.9,319.16,260.9,319.26Zm-9-.78h8a4,4,0,0,0-8,0Z"/><path class="cls-108" d="M270.88,321.26c0,1.9-2.08,3.08-4.52,3.08A6.42,6.42,0,0,1,262.3,323l.4-.74a5.66,5.66,0,0,0,3.64,1.24c1.9,0,3.52-.86,3.52-2.3,0-1.24-1.22-2-3.14-2H265v-.76h1.64c1.64,0,2.88-.7,2.88-1.84,0-1.36-1.42-2-3.16-2a6.75,6.75,0,0,0-3.32.9l-.3-.8a7.69,7.69,0,0,1,3.74-1c2.24,0,4.06,1,4.06,2.78a2.56,2.56,0,0,1-2.12,2.34C270,319.1,270.88,320,270.88,321.26Z"/><path class="cls-109" d="M283.26,319.26h-9A4.47,4.47,0,0,0,282,322l.58.66a5,5,0,0,1-3.94,1.7,5.13,5.13,0,0,1-5.39-5.3,5,5,0,0,1,5-5.3,4.94,4.94,0,0,1,5,5.26C283.28,319.06,283.26,319.16,283.26,319.26Zm-9-.78h8a4,4,0,0,0-8,0Z"/><path class="cls-110" d="M286.54,313.8h1v4.76h7.08V313.8h1v10.44h-1v-4.8h-7.08v4.8h-1Z"/><path class="cls-111" d="M306.92,314.7h-4.08v9.54h-1V314.7h-4.09v-.9h9.17Z"/><path class="cls-112" d="M316.54,317.62v6.62h-1v-1.86a4,4,0,0,1-3.76,1.94c-2.34,0-3.77-1.2-3.77-3,0-1.58,1-2.92,3.91-2.92h3.58v-.84c0-1.94-1.06-3-3.1-3a5.47,5.47,0,0,0-3.61,1.32l-.5-.72a6.41,6.41,0,0,1,4.19-1.48C315.1,313.72,316.54,315,316.54,317.62Zm-1,3.54v-2H312c-2.17,0-2.92.9-2.92,2.1,0,1.36,1.06,2.2,2.9,2.2A3.58,3.58,0,0,0,315.54,321.16Z"/><path class="cls-113" d="M331.26,323.36V327h-1v-2.72h-9.7V313.8h1v9.56h6.92V313.8h1v9.56Z"/><path class="cls-114" d="M334.17,313.8h1v8.9l7.45-8.9h.88v10.44h-1v-8.9l-7.45,8.9h-.88Z"/><path class="cls-115" d="M355.52,313.8v10.44h-.92v-3.6h-3.48a4.35,4.35,0,0,1-.52,0L348,324.24h-1.1l2.71-3.74a3.07,3.07,0,0,1-2.65-3.22c0-2.36,1.7-3.48,4.31-3.48Zm-4.3,6.08h3.38v-5.2h-3.26c-2.15,0-3.37.78-3.37,2.64S349.08,319.88,351.22,319.88Z"/><path class="cls-116" d="M371.2,313.8v10.44h-.92V315.4l-4.54,7.5h-.46l-4.53-7.48v8.82h-.92V313.8h1l4.73,7.9,4.74-7.9Z"/><path class="cls-117" d="M51,382.24v14H47.78v-11.4H45v-2.6Z"/><path class="cls-118" d="M63.8,392c0,2.36-1.82,4.52-5.8,4.52a9.63,9.63,0,0,1-5.34-1.5l1.26-2.48a6.8,6.8,0,0,0,4,1.26c1.62,0,2.62-.66,2.62-1.8s-.78-1.72-2.62-1.72H56.44V388.1l2.88-3.26h-6v-2.6h9.8v2.1L60,387.94C62.52,388.34,63.8,389.9,63.8,392Z"/><path class="cls-119" d="M65.2,387.26a1.94,1.94,0,0,1,3.88,0,1.94,1.94,0,1,1-3.88,0Zm0,7.18a1.94,1.94,0,0,1,3.88,0,1.94,1.94,0,1,1-3.88,0Z"/><path class="cls-120" d="M70.54,389.24c0-4.62,2.56-7.24,6-7.24s6,2.62,6,7.24-2.54,7.24-6,7.24S70.54,393.86,70.54,389.24Zm8.74,0c0-3.18-1.12-4.5-2.74-4.5s-2.72,1.32-2.72,4.5,1.12,4.5,2.72,4.5S79.28,392.42,79.28,389.24Z"/><path class="cls-121" d="M84.12,389.24c0-4.62,2.56-7.24,6-7.24s6,2.62,6,7.24-2.54,7.24-6,7.24S84.12,393.86,84.12,389.24Zm8.74,0c0-3.18-1.12-4.5-2.74-4.5s-2.72,1.32-2.72,4.5,1.12,4.5,2.72,4.5S92.86,392.42,92.86,389.24Z"/><path class="cls-122" d="M98,389.36h5.66v2.5H98Z"/><path class="cls-123" d="M110.48,382.24v14h-3.24v-11.4h-2.8v-2.6Z"/><path class="cls-124" d="M125.74,393.3h-2.28v2.94H120.3V393.3h-7.54v-2.18l6.6-8.88h3.4l-6.12,8.42h3.76V388h3.06v2.62h2.28Z"/><path class="cls-125" d="M126.76,387.26a1.94,1.94,0,0,1,3.88,0,1.94,1.94,0,1,1-3.88,0Zm0,7.18a1.94,1.94,0,0,1,3.88,0,1.94,1.94,0,1,1-3.88,0Z"/><path class="cls-126" d="M132.1,389.24c0-4.62,2.56-7.24,6-7.24s6,2.62,6,7.24-2.54,7.24-6,7.24S132.1,393.86,132.1,389.24Zm8.74,0c0-3.18-1.12-4.5-2.74-4.5s-2.72,1.32-2.72,4.5,1.12,4.5,2.72,4.5S140.84,392.42,140.84,389.24Z"/><path class="cls-127" d="M145.68,389.24c0-4.62,2.56-7.24,6-7.24s6,2.62,6,7.24-2.54,7.24-6,7.24S145.68,393.86,145.68,389.24Zm8.74,0c0-3.18-1.12-4.5-2.74-4.5s-2.72,1.32-2.72,4.5,1.12,4.5,2.72,4.5S154.42,392.42,154.42,389.24Z"/><path class="cls-128" d="M46.08,413.24a7,7,0,0,1,7.28-7.1,7.1,7.1,0,1,1,0,14.2A7,7,0,0,1,46.08,413.24Zm13.52,0a6.25,6.25,0,1,0-6.24,6.16A6,6,0,0,0,59.6,413.24Z"/><path class="cls-129" d="M73.9,415.1a5,5,0,0,1-5.14,5.24c-3.48,0-5.4-2.7-5.4-6.82,0-4.74,1.72-6.8,5.24-7.64l4.62-1.12.16.94-4.4,1c-3.16.74-4.6,2.38-4.66,6.32A4.67,4.67,0,0,1,68.9,410,4.84,4.84,0,0,1,73.9,415.1Zm-1,0a4.11,4.11,0,1,0-8.22,0,4.12,4.12,0,1,0,8.22,0Z"/><path class="cls-130" d="M86.08,415.26h-9a4.47,4.47,0,0,0,7.76,2.7l.58.66a5,5,0,0,1-3.94,1.7,5.13,5.13,0,0,1-5.38-5.3,5,5,0,1,1,10,0C86.1,415.06,86.08,415.16,86.08,415.26Zm-9-.78h8a4,4,0,0,0-8,0Z"/><path class="cls-131" d="M98.92,419.36v3.48H98v-2.6H88.1v2.6h-1v-3.48h.62c1.58-.1,1.84-3.12,2-6.12l.14-3.44h7.34v9.56Zm-9.72,0h7V410.7H90.8l-.12,2.6C90.58,415.86,90.34,418.58,89.2,419.36Z"/><path class="cls-132" d="M101.88,409.8h1v8.9l7.44-8.9h.88v10.44h-1v-8.9l-7.44,8.9h-.88Z"/><path class="cls-133" d="M119.06,415.4h-2.54v4.84h-1V409.8h1v4.74h2.54L123,409.8h1.1l-4.24,5.06,4.56,5.38h-1.2Z"/><path class="cls-134" d="M51,477.24v14H47.78v-11.4H45v-2.6Z"/><path class="cls-135" d="M66.28,488.3H64v2.94H60.84V488.3H53.3v-2.18l6.6-8.88h3.4l-6.12,8.42h3.76V483H64v2.62h2.28Z"/><path class="cls-136" d="M67.3,482.26a1.94,1.94,0,0,1,3.88,0,1.94,1.94,0,1,1-3.88,0Zm0,7.18a1.94,1.94,0,0,1,3.88,0,1.94,1.94,0,1,1-3.88,0Z"/><path class="cls-137" d="M72.64,484.24c0-4.62,2.56-7.24,6-7.24s6,2.62,6,7.24-2.54,7.24-6,7.24S72.64,488.86,72.64,484.24Zm8.74,0c0-3.18-1.12-4.5-2.74-4.5s-2.72,1.32-2.72,4.5,1.12,4.5,2.72,4.5S81.38,487.42,81.38,484.24Z"/><path class="cls-138" d="M86.22,484.24c0-4.62,2.56-7.24,6-7.24s6,2.62,6,7.24-2.54,7.24-6,7.24S86.22,488.86,86.22,484.24Zm8.74,0c0-3.18-1.12-4.5-2.74-4.5s-2.72,1.32-2.72,4.5,1.12,4.5,2.72,4.5S95,487.42,95,484.24Z"/><path class="cls-139" d="M100.14,484.36h5.66v2.5h-5.66Z"/><path class="cls-140" d="M112.58,477.24v14h-3.24v-11.4h-2.8v-2.6Z"/><path class="cls-141" d="M125.6,486.84c0,2.48-1.82,4.64-5.82,4.64a9.67,9.67,0,0,1-5.34-1.5l1.28-2.48a6.74,6.74,0,0,0,4,1.26c1.62,0,2.62-.68,2.62-1.82s-.72-1.82-3.26-1.82h-3.58l.72-7.88h8.54v2.6H118.9l-.22,2.66h1.14C124,482.5,125.6,484.36,125.6,486.84Z"/><path class="cls-142" d="M126.82,482.26a1.94,1.94,0,0,1,3.88,0,1.94,1.94,0,1,1-3.88,0Zm0,7.18a1.94,1.94,0,0,1,3.88,0,1.94,1.94,0,1,1-3.88,0Z"/><path class="cls-143" d="M132.16,484.24c0-4.62,2.56-7.24,6-7.24s6,2.62,6,7.24-2.54,7.24-6,7.24S132.16,488.86,132.16,484.24Zm8.74,0c0-3.18-1.12-4.5-2.74-4.5s-2.72,1.32-2.72,4.5,1.12,4.5,2.72,4.5S140.9,487.42,140.9,484.24Z"/><path class="cls-144" d="M145.74,484.24c0-4.62,2.56-7.24,6-7.24s6,2.62,6,7.24-2.54,7.24-6,7.24S145.74,488.86,145.74,484.24Zm8.74,0c0-3.18-1.12-4.5-2.74-4.5s-2.72,1.32-2.72,4.5,1.12,4.5,2.72,4.5S154.48,487.42,154.48,484.24Z"/><path class="cls-145" d="M58,506c0,2.94-2.12,4.7-5.64,4.7h-4v4.58h-1v-14h5C55.9,501.24,58,503,58,506Zm-1,0c0-2.42-1.6-3.8-4.6-3.8h-4v7.58h4C55.38,509.74,57,508.36,57,506Z"/><path class="cls-146" d="M69.76,510.26h-9a4.47,4.47,0,0,0,7.76,2.7l.58.66a5,5,0,0,1-3.94,1.7A5.13,5.13,0,0,1,59.8,510a5,5,0,1,1,10,0C69.78,510.06,69.76,510.16,69.76,510.26Zm-9-.78h8a4,4,0,0,0-8,0Z"/><path class="cls-147" d="M82.16,504.8v10.44h-1V505.7H74v9.54H73V504.8Z"/><path class="cls-148" d="M95.38,510.26h-9a4.47,4.47,0,0,0,7.76,2.7l.58.66a5,5,0,0,1-3.94,1.7,5.13,5.13,0,0,1-5.38-5.3,5,5,0,1,1,10,0C95.4,510.06,95.38,510.16,95.38,510.26Zm-9-.78h8a4,4,0,0,0-8,0Z"/><path class="cls-149" d="M105.16,505.7h-4.08v9.54h-1V505.7H96v-.9h9.16Z"/><path class="cls-150" d="M107.3,504.8h1v8.9l7.44-8.9h.88v10.44h-1v-8.9l-7.44,8.9h-.88Z"/><path class="cls-151" d="M131.6,514.36V518h-1v-2.72h-9.7V504.8h1v9.56h6.92V504.8h1v9.56Z"/><path class="cls-152" d="M134.52,504.8h1v8.9l7.44-8.9h.88v10.44h-1v-8.9l-7.44,8.9h-.88Z"/><path class="cls-153" d="M155.86,504.8v10.44h-.92v-3.6h-3.48a4.35,4.35,0,0,1-.52,0l-2.58,3.62h-1.1l2.7-3.74a3.07,3.07,0,0,1-2.64-3.22c0-2.36,1.7-3.48,4.3-3.48Zm-4.3,6.08h3.38v-5.2h-3.26c-2.14,0-3.36.78-3.36,2.64S149.42,510.88,151.56,510.88Z"/><path class="cls-154" d="M173.8,512.44c0,1.8-1.28,2.8-4,2.8h-4.52V504.8h4.4c2.3,0,3.72.92,3.72,2.66a2.53,2.53,0,0,0,.36,5Zm-7.5-2.88h3.36c1.78,0,2.78-.68,2.78-2s-1-2-2.78-2H166.3Zm6.5,2.84c0-1.42-.86-2.06-2.82-2.06H166.3v4.08h3.52C171.76,514.42,172.8,513.8,172.8,512.4Z"/><path class="cls-155" d="M185.46,511.88c0,2.22-1.48,3.42-4.2,3.4l-3.9,0V504.8h1v3.76l3.12,0C184.08,508.62,185.46,509.76,185.46,511.88Zm-1,0c0-1.7-1.08-2.48-3.24-2.52l-2.86,0v5.1l2.86,0C183.36,514.52,184.46,513.6,184.46,511.88Zm2.92-7.08h1v10.44h-1Z"/><path class="cls-156" d="M191.62,510a5.09,5.09,0,0,1,5.28-5.3,4.58,4.58,0,0,1,4,1.92l-.74.54a3.81,3.81,0,0,0-3.22-1.56,4.4,4.4,0,0,0,0,8.8,3.81,3.81,0,0,0,3.22-1.56l.74.54a4.63,4.63,0,0,1-4,1.92A5.1,5.1,0,0,1,191.62,510Z"/><path class="cls-157" d="M210.56,505.7h-4.08v9.54h-1V505.7H201.4v-.9h9.16Z"/><path class="cls-158" d="M221.22,504.8l-5.36,11.86c-.84,1.92-1.88,2.54-3.26,2.54a3.33,3.33,0,0,1-2.42-.94l.5-.76a2.54,2.54,0,0,0,1.94.82c1,0,1.66-.44,2.3-1.86l.56-1.26-4.7-10.4h1.06l4.18,9.34,4.18-9.34Z"/><path class="cls-159" d="M232.76,504.8v10.44h-1V505.7h-7.12v9.54h-1V504.8Z"/><path class="cls-160" d="M245.24,504.8v10.44h-1V505.7H238.8l-.14,2.78c-.2,3.66-.6,6.88-2.78,6.88a3.65,3.65,0,0,1-.86-.14l.1-.86a2.19,2.19,0,0,0,.48.08c1.78,0,2-3,2.14-6l.18-3.6Z"/><path class="cls-161" d="M258.46,510.26h-9a4.47,4.47,0,0,0,7.76,2.7l.58.66a5,5,0,0,1-3.94,1.7,5.13,5.13,0,0,1-5.38-5.3,5,5,0,1,1,10,0C258.48,510.06,258.46,510.16,258.46,510.26Zm-9-.78h8a4,4,0,0,0-8,0Z"/><path class="cls-162" d="M261.74,504.8h1v4.76h7.08V504.8h1v10.44h-1v-4.8h-7.08v4.8h-1Z"/><path class="cls-163" d="M275.14,504.8h1v8.9l7.44-8.9h.88v10.44h-1v-8.9l-7.44,8.9h-.88Z"/><path class="cls-164" d="M288.78,504.8h1v8.9l7.44-8.9h.88v10.44h-1v-8.9l-7.44,8.9h-.88Zm1.78-4.06h.74a1.9,1.9,0,0,0,2.1,1.78,1.87,1.87,0,0,0,2.08-1.78h.76a2.87,2.87,0,0,1-5.68,0Z"/><path class="cls-165" d="M51,573.24v14H47.78v-11.4H45v-2.6Z"/><path class="cls-166" d="M65.18,583.18c0,2.64-2.36,4.3-5.92,4.3s-5.88-1.66-5.88-4.3a3.56,3.56,0,0,1,2.12-3.3A3.23,3.23,0,0,1,53.88,577c0-2.46,2.2-4,5.38-4s5.42,1.54,5.42,4A3.25,3.25,0,0,1,63,579.88,3.55,3.55,0,0,1,65.18,583.18Zm-3.28-.1c0-1.24-1-2-2.64-2s-2.6.76-2.6,2,1,2,2.6,2S61.9,584.32,61.9,583.08Zm-4.8-5.94c0,1.06.84,1.72,2.16,1.72s2.2-.66,2.2-1.72-.88-1.76-2.2-1.76S57.1,576,57.1,577.14Z"/><path class="cls-167" d="M66.56,578.26a1.94,1.94,0,0,1,3.88,0,1.94,1.94,0,1,1-3.88,0Zm0,7.18a1.94,1.94,0,0,1,3.88,0,1.94,1.94,0,1,1-3.88,0Z"/><path class="cls-168" d="M71.9,580.24c0-4.62,2.56-7.24,6-7.24s6,2.62,6,7.24-2.54,7.24-6,7.24S71.9,584.86,71.9,580.24Zm8.74,0c0-3.18-1.12-4.5-2.74-4.5s-2.72,1.32-2.72,4.5,1.12,4.5,2.72,4.5S80.64,583.42,80.64,580.24Z"/><path class="cls-169" d="M85.48,580.24c0-4.62,2.56-7.24,6-7.24s6,2.62,6,7.24-2.54,7.24-6,7.24S85.48,584.86,85.48,580.24Zm8.74,0c0-3.18-1.12-4.5-2.74-4.5s-2.72,1.32-2.72,4.5,1.12,4.5,2.72,4.5S94.22,583.42,94.22,580.24Z"/><path class="cls-170" d="M99.4,580.36h5.66v2.5H99.4Z"/><path class="cls-171" d="M111.84,573.24v14H108.6v-11.4h-2.8v-2.6Z"/><path class="cls-172" d="M125.46,579.94c0,4.84-2.9,7.54-7.14,7.54a7.48,7.48,0,0,1-3.88-1l1.2-2.38a4.53,4.53,0,0,0,2.62.7c2.32,0,3.84-1.38,3.94-4.08a4.78,4.78,0,0,1-3.48,1.26c-2.7,0-4.82-1.72-4.82-4.36,0-2.86,2.34-4.66,5.3-4.66C123.08,573,125.46,575.42,125.46,579.94Zm-3.62-2.44c0-1.2-.9-2.08-2.44-2.08a2.11,2.11,0,1,0,0,4.18A2.17,2.17,0,0,0,121.84,577.5Z"/><path class="cls-173" d="M126.92,578.26a1.94,1.94,0,0,1,3.88,0,1.94,1.94,0,1,1-3.88,0Zm0,7.18a1.94,1.94,0,0,1,3.88,0,1.94,1.94,0,1,1-3.88,0Z"/><path class="cls-174" d="M132.26,580.24c0-4.62,2.56-7.24,6-7.24s6,2.62,6,7.24-2.54,7.24-6,7.24S132.26,584.86,132.26,580.24Zm8.74,0c0-3.18-1.12-4.5-2.74-4.5s-2.72,1.32-2.72,4.5,1.12,4.5,2.72,4.5S141,583.42,141,580.24Z"/><path class="cls-175" d="M145.84,580.24c0-4.62,2.56-7.24,6-7.24s6,2.62,6,7.24-2.54,7.24-6,7.24S145.84,584.86,145.84,580.24Zm8.74,0c0-3.18-1.12-4.5-2.74-4.5s-2.72,1.32-2.72,4.5,1.12,4.5,2.72,4.5S154.58,583.42,154.58,580.24Z"/><path class="cls-176" d="M51.74,604.6H48.38v6.64h-1v-14h1v6.44h3.38l5-6.44h1.14l-5.36,6.82,5.72,7.18h-1.2Z"/><path class="cls-177" d="M59.24,606a5.22,5.22,0,1,1,5.22,5.3A5.09,5.09,0,0,1,59.24,606Zm9.42,0a4.2,4.2,0,1,0-4.2,4.4A4.14,4.14,0,0,0,68.66,606Z"/><path class="cls-178" d="M78.94,611.34v3.78H78v-3.78c-3.88-.12-6.12-2.06-6.12-5.34s2.26-5.16,6.12-5.28V596.4h1v4.32c3.88.12,6.12,2,6.12,5.28S82.82,611.2,78.94,611.34Zm-1-.9v-8.82c-3.32.14-5.12,1.72-5.12,4.38S74.66,610.3,78,610.44ZM84.08,606c0-2.68-1.84-4.24-5.14-4.38v8.82C82.24,610.3,84.08,608.72,84.08,606Z"/><path class="cls-179" d="M97.2,606.26h-9A4.47,4.47,0,0,0,96,609l.58.66a5,5,0,0,1-3.94,1.7,5.13,5.13,0,0,1-5.38-5.3,5,5,0,1,1,10,0C97.22,606.06,97.2,606.16,97.2,606.26Zm-9-.78h8a4,4,0,0,0-8,0Z"/><path class="cls-180" d="M110.32,606.1a5,5,0,0,1-5.14,5.24c-3.48,0-5.4-2.7-5.4-6.82,0-4.74,1.72-6.8,5.24-7.64l4.62-1.12.16.94-4.4,1c-3.16.74-4.6,2.38-4.66,6.32a4.67,4.67,0,0,1,4.58-3.1A4.84,4.84,0,0,1,110.32,606.1Zm-1,0a4.11,4.11,0,1,0-8.22,0,4.12,4.12,0,1,0,8.22,0Z"/><path class="cls-181" d="M124,606a5,5,0,0,1-5.16,5.3,4.67,4.67,0,0,1-4.24-2.46v6.26h-1V600.8h1v2.46a4.67,4.67,0,0,1,4.28-2.54A5.06,5.06,0,0,1,124,606Zm-1,0a4.21,4.21,0,1,0-4.22,4.4A4.16,4.16,0,0,0,123,606Z"/><path class="cls-182" d="M136.18,606.26h-9A4.47,4.47,0,0,0,135,609l.58.66a5,5,0,0,1-3.94,1.7,5.13,5.13,0,0,1-5.38-5.3,5,5,0,1,1,10,0C136.2,606.06,136.18,606.16,136.18,606.26Zm-9-.78h8a4,4,0,0,0-8,0Z"/><path class="cls-183" d="M139.46,600.8h1v8.9l7.44-8.9h.88v10.44h-1v-8.9l-7.44,8.9h-.88Zm1.78-4.06H142a1.9,1.9,0,0,0,2.1,1.78,1.87,1.87,0,0,0,2.08-1.78h.76a2.87,2.87,0,0,1-5.68,0Z"/><path class="cls-184" d="M156.64,606.4H154.1v4.84h-1V600.8h1v4.74h2.54l3.94-4.74h1.1l-4.24,5.06,4.56,5.38h-1.2Z"/><path class="cls-185" d="M51,668.24v14H47.78v-11.4H45v-2.6Z"/><path class="cls-186" d="M64,677.84c0,2.48-1.82,4.64-5.82,4.64a9.67,9.67,0,0,1-5.34-1.5l1.28-2.48a6.74,6.74,0,0,0,4,1.26c1.62,0,2.62-.68,2.62-1.82s-.72-1.82-3.26-1.82H53.92l.72-7.88h8.54v2.6H57.34l-.22,2.66h1.14C62.4,673.5,64,675.36,64,677.84Z"/><path class="cls-187" d="M65.26,673.26a1.94,1.94,0,0,1,3.88,0,1.94,1.94,0,1,1-3.88,0Zm0,7.18a1.94,1.94,0,0,1,3.88,0,1.94,1.94,0,1,1-3.88,0Z"/><path class="cls-188" d="M70.6,675.24c0-4.62,2.56-7.24,6-7.24s6,2.62,6,7.24-2.54,7.24-6,7.24S70.6,679.86,70.6,675.24Zm8.74,0c0-3.18-1.12-4.5-2.74-4.5s-2.72,1.32-2.72,4.5,1.12,4.5,2.72,4.5S79.34,678.42,79.34,675.24Z"/><path class="cls-189" d="M84.18,675.24c0-4.62,2.56-7.24,6-7.24s6,2.62,6,7.24-2.54,7.24-6,7.24S84.18,679.86,84.18,675.24Zm8.74,0c0-3.18-1.12-4.5-2.74-4.5s-2.72,1.32-2.72,4.5,1.12,4.5,2.72,4.5S92.92,678.42,92.92,675.24Z"/><path class="cls-190" d="M98.1,675.36h5.66v2.5H98.1Z"/><path class="cls-191" d="M110.54,668.24v14H107.3v-11.4h-2.8v-2.6Z"/><path class="cls-192" d="M124.54,677.82c0,2.86-2.34,4.66-5.3,4.66-3.86,0-6.26-2.42-6.26-6.94,0-4.84,2.92-7.54,7.14-7.54a7.56,7.56,0,0,1,3.9,1l-1.2,2.38a4.61,4.61,0,0,0-2.62-.7c-2.34,0-3.84,1.38-3.94,4.06a4.73,4.73,0,0,1,3.46-1.24C122.42,673.46,124.54,675.18,124.54,677.82Zm-3.14.16a2.11,2.11,0,0,0-2.38-2.1,2.19,2.19,0,0,0-2.42,2.1c0,1.2.9,2.08,2.46,2.08A2.09,2.09,0,0,0,121.4,678Z"/><path class="cls-193" d="M125.62,673.26a1.94,1.94,0,0,1,3.88,0,1.94,1.94,0,1,1-3.88,0Zm0,7.18a1.94,1.94,0,0,1,3.88,0,1.94,1.94,0,1,1-3.88,0Z"/><path class="cls-194" d="M131,675.24c0-4.62,2.56-7.24,6-7.24s6,2.62,6,7.24-2.54,7.24-6,7.24S131,679.86,131,675.24Zm8.74,0c0-3.18-1.12-4.5-2.74-4.5s-2.72,1.32-2.72,4.5,1.12,4.5,2.72,4.5S139.7,678.42,139.7,675.24Z"/><path class="cls-195" d="M144.54,675.24c0-4.62,2.56-7.24,6-7.24s6,2.62,6,7.24-2.54,7.24-6,7.24S144.54,679.86,144.54,675.24Zm8.74,0c0-3.18-1.12-4.5-2.74-4.5s-2.72,1.32-2.72,4.5,1.12,4.5,2.72,4.5S153.28,678.42,153.28,675.24Z"/><path class="cls-196" d="M46.08,699.24a7,7,0,0,1,7.28-7.1,7.1,7.1,0,1,1,0,14.2A7,7,0,0,1,46.08,699.24Zm13.52,0a6.25,6.25,0,1,0-6.24,6.16A6,6,0,0,0,59.6,699.24Z"/><path class="cls-197" d="M67.6,701.4H65.06v4.84h-1V695.8h1v4.74H67.6l3.94-4.74h1.1l-4.24,5.06L73,706.24h-1.2Z"/><path class="cls-198" d="M74,701a5.22,5.22,0,1,1,5.22,5.3A5.09,5.09,0,0,1,74,701Zm9.42,0a4.2,4.2,0,1,0-4.2,4.4A4.14,4.14,0,0,0,83.4,701Z"/><path class="cls-199" d="M87.68,695.8h1v4.76h7.08V695.8h1v10.44h-1v-4.8H88.68v4.8h-1Z"/><path class="cls-200" d="M108.58,695.8v10.44h-1v-4.5a9,9,0,0,1-3.72.86c-2.38,0-3.94-1.08-3.94-3.32V695.8h1v3.42c0,1.66,1.2,2.54,3.08,2.54a9.47,9.47,0,0,0,3.58-.82V695.8Z"/><path class="cls-201" d="M120.38,699.62v6.62h-1v-1.86a4,4,0,0,1-3.76,1.94c-2.34,0-3.76-1.2-3.76-3,0-1.58,1-2.92,3.9-2.92h3.58v-.84c0-1.94-1.06-3-3.1-3a5.42,5.42,0,0,0-3.6,1.32l-.5-.72a6.37,6.37,0,0,1,4.18-1.48C118.94,695.72,120.38,697,120.38,699.62Zm-1,3.54v-2h-3.56c-2.16,0-2.92.9-2.92,2.1,0,1.36,1.06,2.2,2.9,2.2A3.58,3.58,0,0,0,119.38,703.16Z"/><path class="cls-202" d="M124.44,695.8h1v4.76h7.08V695.8h1v10.44h-1v-4.8h-7.08v4.8h-1Z"/><path class="cls-203" d="M137.84,695.8h1v8.9l7.44-8.9h.88v10.44h-1v-8.9l-7.44,8.9h-.88Z"/><path class="cls-204" d="M160.38,701.26h-9a4.47,4.47,0,0,0,7.76,2.7l.58.66a5,5,0,0,1-3.94,1.7,5.13,5.13,0,0,1-5.38-5.3,5,5,0,1,1,10,0C160.4,701.06,160.38,701.16,160.38,701.26Zm-9-.78h8a4,4,0,0,0-8,0Z"/><path class="cls-205" d="M175.34,706.24l-3.58-4.66-3.58,4.66H167l4.14-5.38-3.92-5.06h1.14l3.36,4.34,3.36-4.34h1.12l-3.92,5.06,4.2,5.38Z"/><path class="cls-206" d="M186.34,699.62v6.62h-1v-1.86a4,4,0,0,1-3.76,1.94c-2.34,0-3.76-1.2-3.76-3,0-1.58,1-2.92,3.9-2.92h3.58v-.84c0-1.94-1.06-3-3.1-3a5.42,5.42,0,0,0-3.6,1.32l-.5-.72a6.37,6.37,0,0,1,4.18-1.48C184.9,695.72,186.34,697,186.34,699.62Zm-1,3.54v-2h-3.56c-2.16,0-2.92.9-2.92,2.1,0,1.36,1.06,2.2,2.9,2.2A3.58,3.58,0,0,0,185.34,703.16Z"/><path class="cls-207" d="M193.94,701.4H191.4v4.84h-1V695.8h1v4.74h2.54l3.94-4.74H199l-4.24,5.06,4.56,5.38h-1.2Z"/><path class="cls-208" d="M209,699.62v6.62h-1v-1.86a4,4,0,0,1-3.76,1.94c-2.34,0-3.76-1.2-3.76-3,0-1.58,1-2.92,3.9-2.92H208v-.84c0-1.94-1.06-3-3.1-3a5.42,5.42,0,0,0-3.6,1.32l-.5-.72a6.37,6.37,0,0,1,4.18-1.48C207.6,695.72,209,697,209,699.62Zm-1,3.54v-2h-3.56c-2.16,0-2.92.9-2.92,2.1,0,1.36,1.06,2.2,2.9,2.2A3.58,3.58,0,0,0,208,703.16Z"/><path class="cls-209" d="M220.08,696.7H216v9.54h-1V696.7h-4.08v-.9h9.16Z"/><path class="cls-210" d="M220.68,701a5.22,5.22,0,1,1,5.22,5.3A5.09,5.09,0,0,1,220.68,701Zm9.42,0a4.2,4.2,0,1,0-4.2,4.4A4.14,4.14,0,0,0,230.1,701Z"/><path class="cls-211" d="M234.38,695.8h1v4.76h7.08V695.8h1v10.44h-1v-4.8h-7.08v4.8h-1Z"/><path class="cls-212" d="M255.26,699.62v6.62h-1v-1.86a4,4,0,0,1-3.76,1.94c-2.34,0-3.76-1.2-3.76-3,0-1.58,1-2.92,3.9-2.92h3.58v-.84c0-1.94-1.06-3-3.1-3a5.42,5.42,0,0,0-3.6,1.32l-.5-.72a6.37,6.37,0,0,1,4.18-1.48C253.82,695.72,255.26,697,255.26,699.62Zm-1,3.54v-2H250.7c-2.16,0-2.92.9-2.92,2.1,0,1.36,1.06,2.2,2.9,2.2A3.58,3.58,0,0,0,254.26,703.16Z"/><path class="cls-213" d="M51,763.24v14H47.78v-11.4H45v-2.6Z"/><path class="cls-214" d="M65,772.82c0,2.86-2.34,4.66-5.3,4.66-3.86,0-6.26-2.42-6.26-6.94,0-4.84,2.92-7.54,7.14-7.54a7.56,7.56,0,0,1,3.9,1l-1.2,2.38a4.61,4.61,0,0,0-2.62-.7c-2.34,0-3.84,1.38-3.94,4.06a4.73,4.73,0,0,1,3.46-1.24C62.9,768.46,65,770.18,65,772.82Zm-3.14.16a2.11,2.11,0,0,0-2.38-2.1,2.19,2.19,0,0,0-2.42,2.1c0,1.2.9,2.08,2.46,2.08A2.09,2.09,0,0,0,61.88,773Z"/><path class="cls-215" d="M66.1,768.26a1.94,1.94,0,0,1,3.88,0,1.94,1.94,0,1,1-3.88,0Zm0,7.18a1.94,1.94,0,0,1,3.88,0,1.94,1.94,0,1,1-3.88,0Z"/><path class="cls-216" d="M71.44,770.24c0-4.62,2.56-7.24,6-7.24s6,2.62,6,7.24-2.54,7.24-6,7.24S71.44,774.86,71.44,770.24Zm8.74,0c0-3.18-1.12-4.5-2.74-4.5s-2.72,1.32-2.72,4.5,1.12,4.5,2.72,4.5S80.18,773.42,80.18,770.24Z"/><path class="cls-217" d="M85,770.24c0-4.62,2.56-7.24,6-7.24s6,2.62,6,7.24-2.54,7.24-6,7.24S85,774.86,85,770.24Zm8.74,0c0-3.18-1.12-4.5-2.74-4.5s-2.72,1.32-2.72,4.5,1.12,4.5,2.72,4.5S93.76,773.42,93.76,770.24Z"/><path class="cls-218" d="M98.94,770.36h5.66v2.5H98.94Z"/><path class="cls-219" d="M111.38,763.24v14h-3.24v-11.4h-2.8v-2.6Z"/><path class="cls-220" d="M124.78,763.24v2.1l-5.2,11.9h-3.52l5-11.36h-4.64v2.28h-2.88v-4.92Z"/><path class="cls-221" d="M125.72,768.26a1.94,1.94,0,0,1,3.88,0,1.94,1.94,0,1,1-3.88,0Zm0,7.18a1.94,1.94,0,0,1,3.88,0,1.94,1.94,0,1,1-3.88,0Z"/><path class="cls-222" d="M131.06,770.24c0-4.62,2.56-7.24,6-7.24s6,2.62,6,7.24-2.54,7.24-6,7.24S131.06,774.86,131.06,770.24Zm8.74,0c0-3.18-1.12-4.5-2.74-4.5s-2.72,1.32-2.72,4.5,1.12,4.5,2.72,4.5S139.8,773.42,139.8,770.24Z"/><path class="cls-223" d="M144.64,770.24c0-4.62,2.56-7.24,6-7.24s6,2.62,6,7.24-2.54,7.24-6,7.24S144.64,774.86,144.64,770.24Zm8.74,0c0-3.18-1.12-4.5-2.74-4.5s-2.72,1.32-2.72,4.5,1.12,4.5,2.72,4.5S153.38,773.42,153.38,770.24Z"/><path class="cls-224" d="M58.88,787.24v14h-1V788.16H48.38v13.08h-1v-14Z"/><path class="cls-225" d="M74,796a5,5,0,0,1-5.16,5.3,4.67,4.67,0,0,1-4.24-2.46v6.26h-1V790.8h1v2.46a4.67,4.67,0,0,1,4.28-2.54A5.06,5.06,0,0,1,74,796Zm-1,0a4.21,4.21,0,1,0-4.22,4.4A4.16,4.16,0,0,0,73,796Z"/><path class="cls-226" d="M86.14,796.26h-9a4.47,4.47,0,0,0,7.76,2.7l.58.66a5,5,0,0,1-3.94,1.7,5.13,5.13,0,0,1-5.38-5.3,5,5,0,1,1,10,0C86.16,796.06,86.14,796.16,86.14,796.26Zm-9-.78h8a4,4,0,0,0-8,0Z"/><path class="cls-227" d="M96.12,798.26c0,1.9-2.08,3.08-4.52,3.08A6.42,6.42,0,0,1,87.54,800l.4-.74a5.66,5.66,0,0,0,3.64,1.24c1.9,0,3.52-.86,3.52-2.3,0-1.24-1.22-2-3.14-2H90.28v-.76h1.64c1.64,0,2.88-.7,2.88-1.84,0-1.36-1.42-2-3.16-2a6.75,6.75,0,0,0-3.32.9l-.3-.8a7.69,7.69,0,0,1,3.74-1c2.24,0,4.06,1,4.06,2.78a2.56,2.56,0,0,1-2.12,2.34C95.24,796.1,96.12,797,96.12,798.26Z"/><path class="cls-228" d="M108.5,796.26h-9a4.47,4.47,0,0,0,7.76,2.7l.58.66a5,5,0,0,1-3.94,1.7,5.13,5.13,0,0,1-5.38-5.3,5,5,0,1,1,10,0C108.52,796.06,108.5,796.16,108.5,796.26Zm-9-.78h8a4,4,0,0,0-8,0Z"/><path class="cls-229" d="M111.78,790.8h1v4.76h7.08V790.8h1v10.44h-1v-4.8h-7.08v4.8h-1Z"/><path class="cls-230" d="M132.16,791.7h-4.08v9.54h-1V791.7H123v-.9h9.16Z"/><path class="cls-231" d="M141.78,794.62v6.62h-1v-1.86a4,4,0,0,1-3.76,1.94c-2.34,0-3.76-1.2-3.76-3,0-1.58,1-2.92,3.9-2.92h3.58v-.84c0-1.94-1.06-3-3.1-3a5.42,5.42,0,0,0-3.6,1.32l-.5-.72a6.37,6.37,0,0,1,4.18-1.48C140.34,790.72,141.78,792,141.78,794.62Zm-1,3.54v-2h-3.56c-2.16,0-2.92.9-2.92,2.1,0,1.36,1.06,2.2,2.9,2.2A3.58,3.58,0,0,0,140.78,798.16Z"/><path class="cls-232" d="M156.5,800.36V804h-1v-2.72h-9.7V790.8h1v9.56h6.92V790.8h1v9.56Z"/><path class="cls-233" d="M159.42,790.8h1v8.9l7.44-8.9h.88v10.44h-1v-8.9l-7.44,8.9h-.88Z"/><path class="cls-234" d="M180.76,790.8v10.44h-.92v-3.6h-3.48a4.35,4.35,0,0,1-.52,0l-2.58,3.62h-1.1l2.7-3.74a3.07,3.07,0,0,1-2.64-3.22c0-2.36,1.7-3.48,4.3-3.48Zm-4.3,6.08h3.38v-5.2h-3.26c-2.14,0-3.36.78-3.36,2.64S174.32,796.88,176.46,796.88Z"/><path class="cls-235" d="M200.64,796a5,5,0,0,1-5.16,5.3,4.67,4.67,0,0,1-4.24-2.46v6.26h-1V790.8h1v2.46a4.67,4.67,0,0,1,4.28-2.54A5.06,5.06,0,0,1,200.64,796Zm-1,0a4.21,4.21,0,1,0-4.22,4.4A4.16,4.16,0,0,0,199.64,796Z"/><path class="cls-236" d="M212.8,796.26h-9a4.47,4.47,0,0,0,7.76,2.7l.58.66a5,5,0,0,1-3.94,1.7,5.13,5.13,0,0,1-5.38-5.3,5,5,0,1,1,10,0C212.82,796.06,212.8,796.16,212.8,796.26Zm-9-.78h8a4,4,0,0,0-8,0Z"/><path class="cls-237" d="M222.78,798.26c0,1.9-2.08,3.08-4.52,3.08A6.42,6.42,0,0,1,214.2,800l.4-.74a5.66,5.66,0,0,0,3.64,1.24c1.9,0,3.52-.86,3.52-2.3,0-1.24-1.22-2-3.14-2h-1.68v-.76h1.64c1.64,0,2.88-.7,2.88-1.84,0-1.36-1.42-2-3.16-2a6.75,6.75,0,0,0-3.32.9l-.3-.8a7.69,7.69,0,0,1,3.74-1c2.24,0,4.06,1,4.06,2.78a2.56,2.56,0,0,1-2.12,2.34C221.9,796.1,222.78,797,222.78,798.26Z"/><path class="cls-238" d="M234.76,790.8l-5.36,11.86c-.84,1.92-1.88,2.54-3.26,2.54a3.34,3.34,0,0,1-2.43-.94l.5-.76a2.56,2.56,0,0,0,1.95.82c1,0,1.66-.44,2.3-1.86l.56-1.26-4.71-10.4h1.07l4.18,9.34,4.18-9.34Z"/><path class="cls-239" d="M245,790.8v10.44h-1V791.7h-5.44l-.14,2.78c-.2,3.66-.6,6.88-2.79,6.88a3.65,3.65,0,0,1-.86-.14l.1-.86a2.19,2.19,0,0,0,.48.08c1.79,0,2-3,2.15-6l.18-3.6Z"/><path class="cls-240" d="M257.44,797.88c0,2.22-1.48,3.42-4.22,3.4l-3.94,0V790.8h1v3.76l3.18,0C256.06,794.62,257.44,795.76,257.44,797.88Zm-1,0c0-1.7-1.08-2.48-3.22-2.52l-2.92,0v5.1l2.92,0C255.32,800.52,256.42,799.6,256.42,797.88Z"/><path class="cls-241" d="M266.24,791.7h-4.08v9.54h-1V791.7h-4.09v-.9h9.17Z"/><path class="cls-242" d="M275.86,794.62v6.62h-1v-1.86a4,4,0,0,1-3.76,1.94c-2.34,0-3.76-1.2-3.76-3,0-1.58,1-2.92,3.9-2.92h3.58v-.84c0-1.94-1.06-3-3.1-3a5.42,5.42,0,0,0-3.6,1.32l-.5-.72a6.37,6.37,0,0,1,4.18-1.48C274.42,790.72,275.86,792,275.86,794.62Zm-1,3.54v-2H271.3c-2.16,0-2.92.9-2.92,2.1,0,1.36,1.06,2.2,2.9,2.2A3.58,3.58,0,0,0,274.86,798.16Z"/><path class="cls-243" d="M286.9,791.7h-4.08v9.54h-1V791.7h-4.09v-.9h9.17Z"/><path class="cls-244" d="M287.49,796a5.23,5.23,0,1,1,5.23,5.3A5.09,5.09,0,0,1,287.49,796Zm9.43,0a4.2,4.2,0,1,0-4.2,4.4A4.14,4.14,0,0,0,296.92,796Z"/><path class="cls-245" d="M309.68,798.44c0,1.8-1.28,2.8-4,2.8H301.2V790.8h4.4c2.3,0,3.72.92,3.72,2.66a2.53,2.53,0,0,0,.36,5Zm-7.5-2.88h3.36c1.78,0,2.78-.68,2.78-2s-1-2-2.78-2h-3.36Zm6.5,2.84c0-1.42-.86-2.06-2.82-2.06h-3.68v4.08h3.52C307.64,800.42,308.68,799.8,308.68,798.4Z"/></g></g></svg>