<svg xmlns="http://www.w3.org/2000/svg" xmlns:xlink="http://www.w3.org/1999/xlink" viewBox="0 0 376.14 328.2"><defs><style>.cls-1{fill:url(#Безымянный_градиент_2);}.cls-2{fill:url(#Безымянный_градиент_2-2);}.cls-3{fill:url(#Безымянный_градиент_2-3);}.cls-4{fill:url(#Безымянный_градиент_2-4);}.cls-5{fill:url(#Безымянный_градиент_2-5);}.cls-6{fill:url(#Безымянный_градиент_2-6);}.cls-7{fill:url(#Безымянный_градиент_2-7);}.cls-8{fill:url(#Безымянный_градиент_2-8);}.cls-9{fill:url(#Безымянный_градиент_2-9);}.cls-10{fill:url(#Безымянный_градиент_2-10);}.cls-11{fill:url(#Безымянный_градиент_2-11);}.cls-12{fill:url(#Безымянный_градиент_2-12);}.cls-13{fill:url(#Безымянный_градиент_2-13);}.cls-14{fill:url(#Безымянный_градиент_2-14);}.cls-15{fill:url(#Безымянный_градиент_2-15);}.cls-16{fill:url(#Безымянный_градиент_2-16);}.cls-17{fill:url(#Безымянный_градиент_2-17);}.cls-18{fill:url(#Безымянный_градиент_2-18);}.cls-19{fill:url(#Безымянный_градиент_2-19);}.cls-20{fill:url(#Безымянный_градиент_2-20);}.cls-21{fill:url(#Безымянный_градиент_2-21);}.cls-22{fill:url(#Безымянный_градиент_2-22);}.cls-23{fill:url(#Безымянный_градиент_2-23);}.cls-24{fill:url(#Безымянный_градиент_2-24);}.cls-25{fill:url(#Безымянный_градиент_2-25);}.cls-26{fill:url(#Безымянный_градиент_2-26);}.cls-27{fill:url(#Безымянный_градиент_2-27);}.cls-28{fill:url(#Безымянный_градиент_2-28);}.cls-29{fill:url(#Безымянный_градиент_2-29);}.cls-30{fill:url(#Безымянный_градиент_2-30);}.cls-31{fill:url(#Безымянный_градиент_2-31);}.cls-32{fill:url(#Безымянный_градиент_2-32);}.cls-33{fill:url(#Безымянный_градиент_2-33);}.cls-34{fill:url(#Безымянный_градиент_2-34);}.cls-35{fill:url(#Безымянный_градиент_2-35);}.cls-36{fill:url(#Безымянный_градиент_2-36);}.cls-37{fill:url(#Безымянный_градиент_2-37);}.cls-38{fill:url(#Безымянный_градиент_2-38);}.cls-39{fill:url(#Безымянный_градиент_2-39);}.cls-40{fill:url(#Безымянный_градиент_2-40);}.cls-41{fill:url(#Безымянный_градиент_2-41);}.cls-42{fill:url(#Безымянный_градиент_2-42);}.cls-43{fill:url(#Безымянный_градиент_2-43);}.cls-44{fill:url(#Безымянный_градиент_2-44);}.cls-45{fill:url(#Безымянный_градиент_2-45);}.cls-46{fill:url(#Безымянный_градиент_2-46);}.cls-47{fill:url(#Безымянный_градиент_2-47);}.cls-48{fill:url(#Безымянный_градиент_2-48);}.cls-49{fill:url(#Безымянный_градиент_2-49);}.cls-50{fill:url(#Безымянный_градиент_2-50);}.cls-51{fill:url(#Безымянный_градиент_2-51);}.cls-52{fill:url(#Безымянный_градиент_2-52);}.cls-53{fill:url(#Безымянный_градиент_2-53);}.cls-54{fill:url(#Безымянный_градиент_2-54);}.cls-55{fill:url(#Безымянный_градиент_2-55);}.cls-56{fill:url(#Безымянный_градиент_2-56);}.cls-57{fill:url(#Безымянный_градиент_2-57);}.cls-58{fill:url(#Безымянный_градиент_2-58);}.cls-59{fill:url(#Безымянный_градиент_2-59);}.cls-60{fill:url(#Безымянный_градиент_2-60);}.cls-61{fill:url(#Безымянный_градиент_2-61);}.cls-62{fill:url(#Безымянный_градиент_2-62);}.cls-63{fill:url(#Безымянный_градиент_2-63);}.cls-64{fill:url(#Безымянный_градиент_2-64);}.cls-65{fill:url(#Безымянный_градиент_2-65);}.cls-66{fill:url(#Безымянный_градиент_2-66);}.cls-67{fill:url(#Безымянный_градиент_2-67);}.cls-68{fill:url(#Безымянный_градиент_2-68);}.cls-69{fill:url(#Безымянный_градиент_2-69);}.cls-70{fill:url(#Безымянный_градиент_2-70);}.cls-71{fill:url(#Безымянный_градиент_2-71);}.cls-72{fill:url(#Безымянный_градиент_2-72);}.cls-73{fill:url(#Безымянный_градиент_2-73);}.cls-74{fill:url(#Безымянный_градиент_2-74);}.cls-75{fill:url(#Безымянный_градиент_2-75);}.cls-76{fill:url(#Безымянный_градиент_2-76);}.cls-77{fill:url(#Безымянный_градиент_2-77);}.cls-78{fill:url(#Безымянный_градиент_2-78);}.cls-79{fill:url(#Безымянный_градиент_2-79);}.cls-80{fill:url(#Безымянный_градиент_2-80);}.cls-81{fill:url(#Безымянный_градиент_2-81);}.cls-82{fill:url(#Безымянный_градиент_2-82);}.cls-83{fill:url(#Безымянный_градиент_2-83);}.cls-84{fill:url(#Безымянный_градиент_2-84);}.cls-85{fill:url(#Безымянный_градиент_2-85);}.cls-86{fill:url(#Безымянный_градиент_2-86);}.cls-87{fill:url(#Безымянный_градиент_2-87);}.cls-88{fill:url(#Безымянный_градиент_2-88);}.cls-89{fill:url(#Безымянный_градиент_2-89);}.cls-90{fill:url(#Безымянный_градиент_2-90);}.cls-91{fill:url(#Безымянный_градиент_2-91);}.cls-92{fill:url(#Безымянный_градиент_2-92);}.cls-93{fill:url(#Безымянный_градиент_2-93);}.cls-94{fill:url(#Безымянный_градиент_2-94);}.cls-95{fill:url(#Безымянный_градиент_2-95);}.cls-96{fill:url(#Безымянный_градиент_2-96);}.cls-97{fill:url(#Безымянный_градиент_2-97);}.cls-98{fill:url(#Безымянный_градиент_2-98);}.cls-99{fill:url(#Безымянный_градиент_2-99);}.cls-100{fill:url(#Безымянный_градиент_2-100);}.cls-101{fill:url(#Безымянный_градиент_2-101);}.cls-102{fill:url(#Безымянный_градиент_2-102);}.cls-103{fill:url(#Безымянный_градиент_2-103);}.cls-104{fill:url(#Безымянный_градиент_2-104);}.cls-105{fill:url(#Безымянный_градиент_2-105);}.cls-106{fill:url(#Безымянный_градиент_2-106);}.cls-107{fill:url(#Безымянный_градиент_2-107);}.cls-108{fill:url(#Безымянный_градиент_2-108);}.cls-109{fill:url(#Безымянный_градиент_2-109);}.cls-110{fill:url(#Безымянный_градиент_2-110);}.cls-111{fill:url(#Безымянный_градиент_2-111);}</style><linearGradient id="Безымянный_градиент_2" x1="-122.6" y1="62.49" x2="1109.51" y2="925.18" gradientUnits="userSpaceOnUse"><stop offset="0" stop-color="#2d0098"/><stop offset="0.97" stop-color="#3900b1"/><stop offset="1" stop-color="#3900b2"/></linearGradient><linearGradient id="Безымянный_градиент_2-2" x1="-167.41" y1="126.48" x2="1064.7" y2="989.18" xlink:href="#Безымянный_градиент_2"/><linearGradient id="Безымянный_градиент_2-3" x1="-77.67" y1="-1.68" x2="1154.43" y2="861.02" xlink:href="#Безымянный_градиент_2"/><linearGradient id="Безымянный_градиент_2-4" x1="-55.3" y1="-33.63" x2="1176.81" y2="829.07" xlink:href="#Безымянный_градиент_2"/><linearGradient id="Безымянный_градиент_2-5" x1="-100.11" y1="30.37" x2="1131.99" y2="893.07" xlink:href="#Безымянный_градиент_2"/><linearGradient id="Безымянный_градиент_2-6" x1="-144.92" y1="94.37" x2="1087.18" y2="957.07" xlink:href="#Безымянный_градиент_2"/><linearGradient id="Безымянный_градиент_2-7" x1="-189.73" y1="158.37" x2="1042.37" y2="1021.06" xlink:href="#Безымянный_градиент_2"/><linearGradient id="Безымянный_градиент_2-8" x1="-40.06" y1="-55.4" x2="1192.04" y2="807.3" xlink:href="#Безымянный_градиент_2"/><linearGradient id="Безымянный_градиент_2-9" x1="-36.93" y1="-59.87" x2="1195.18" y2="802.83" xlink:href="#Безымянный_градиент_2"/><linearGradient id="Безымянный_градиент_2-10" x1="-34.97" y1="-62.67" x2="1197.14" y2="800.03" xlink:href="#Безымянный_градиент_2"/><linearGradient id="Безымянный_градиент_2-11" x1="-31.11" y1="-68.18" x2="1200.99" y2="794.52" xlink:href="#Безымянный_градиент_2"/><linearGradient id="Безымянный_градиент_2-12" x1="-26.64" y1="-74.56" x2="1205.46" y2="788.14" xlink:href="#Безымянный_градиент_2"/><linearGradient id="Безымянный_градиент_2-13" x1="-50.04" y1="-41.14" x2="1182.06" y2="821.56" xlink:href="#Безымянный_градиент_2"/><linearGradient id="Безымянный_градиент_2-14" x1="-45.21" y1="-48.05" x2="1186.9" y2="814.65" xlink:href="#Безымянный_градиент_2"/><linearGradient id="Безымянный_градиент_2-15" x1="-42.68" y1="-51.66" x2="1189.43" y2="811.04" xlink:href="#Безымянный_градиент_2"/><linearGradient id="Безымянный_градиент_2-16" x1="-39.63" y1="-56.01" x2="1192.47" y2="806.69" xlink:href="#Безымянный_градиент_2"/><linearGradient id="Безымянный_градиент_2-17" x1="-32.16" y1="-66.67" x2="1199.94" y2="796.03" xlink:href="#Безымянный_градиент_2"/><linearGradient id="Безымянный_градиент_2-18" x1="-27.26" y1="-73.67" x2="1204.84" y2="789.03" xlink:href="#Безымянный_градиент_2"/><linearGradient id="Безымянный_градиент_2-19" x1="-21.7" y1="-81.62" x2="1210.4" y2="781.08" xlink:href="#Безымянный_градиент_2"/><linearGradient id="Безымянный_градиент_2-20" x1="-17.84" y1="-87.13" x2="1214.27" y2="775.57" xlink:href="#Безымянный_градиент_2"/><linearGradient id="Безымянный_градиент_2-21" x1="-14.43" y1="-92.01" x2="1217.68" y2="770.69" xlink:href="#Безымянный_градиент_2"/><linearGradient id="Безымянный_градиент_2-22" x1="-10.1" y1="-98.19" x2="1222.01" y2="764.51" xlink:href="#Безымянный_градиент_2"/><linearGradient id="Безымянный_градиент_2-23" x1="-6.43" y1="-103.43" x2="1225.68" y2="759.27" xlink:href="#Безымянный_градиент_2"/><linearGradient id="Безымянный_градиент_2-24" x1="-4.63" y1="-106" x2="1227.47" y2="756.7" xlink:href="#Безымянный_градиент_2"/><linearGradient id="Безымянный_градиент_2-25" x1="0.63" y1="-113.51" x2="1232.73" y2="749.19" xlink:href="#Безымянный_градиент_2"/><linearGradient id="Безымянный_градиент_2-26" x1="4.86" y1="-119.56" x2="1236.97" y2="743.14" xlink:href="#Безымянный_градиент_2"/><linearGradient id="Безымянный_градиент_2-27" x1="9.4" y1="-126.03" x2="1241.5" y2="736.67" xlink:href="#Безымянный_градиент_2"/><linearGradient id="Безымянный_градиент_2-28" x1="13.47" y1="-131.85" x2="1245.57" y2="730.85" xlink:href="#Безымянный_градиент_2"/><linearGradient id="Безымянный_градиент_2-29" x1="18.25" y1="-138.68" x2="1250.36" y2="724.02" xlink:href="#Безымянный_градиент_2"/><linearGradient id="Безымянный_градиент_2-30" x1="23.85" y1="-146.68" x2="1255.96" y2="716.02" xlink:href="#Безымянный_градиент_2"/><linearGradient id="Безымянный_градиент_2-31" x1="26.51" y1="-150.47" x2="1258.61" y2="712.23" xlink:href="#Безымянный_градиент_2"/><linearGradient id="Безымянный_градиент_2-32" x1="30.65" y1="-156.38" x2="1262.75" y2="706.32" xlink:href="#Безымянный_градиент_2"/><linearGradient id="Безымянный_градиент_2-33" x1="34.32" y1="-161.63" x2="1266.42" y2="701.07" xlink:href="#Безымянный_градиент_2"/><linearGradient id="Безымянный_градиент_2-34" x1="37.35" y1="-165.96" x2="1269.46" y2="696.74" xlink:href="#Безымянный_градиент_2"/><linearGradient id="Безымянный_градиент_2-35" x1="41.8" y1="-172.31" x2="1273.91" y2="690.39" xlink:href="#Безымянный_градиент_2"/><linearGradient id="Безымянный_градиент_2-36" x1="46.17" y1="-178.54" x2="1278.27" y2="684.15" xlink:href="#Безымянный_градиент_2"/><linearGradient id="Безымянный_градиент_2-37" x1="49.74" y1="-183.64" x2="1281.84" y2="679.06" xlink:href="#Безымянный_градиент_2"/><linearGradient id="Безымянный_градиент_2-38" x1="53.54" y1="-189.07" x2="1285.64" y2="673.63" xlink:href="#Безымянный_градиент_2"/><linearGradient id="Безымянный_градиент_2-39" x1="-85.17" y1="9.02" x2="1146.94" y2="871.72" xlink:href="#Безымянный_градиент_2"/><linearGradient id="Безымянный_градиент_2-40" x1="-81.66" y1="4.01" x2="1150.45" y2="866.71" xlink:href="#Безымянный_градиент_2"/><linearGradient id="Безымянный_градиент_2-41" x1="-80.04" y1="1.7" x2="1152.07" y2="864.4" xlink:href="#Безымянный_градиент_2"/><linearGradient id="Безымянный_градиент_2-42" x1="-76.18" y1="-3.81" x2="1155.92" y2="858.89" xlink:href="#Безымянный_градиент_2"/><linearGradient id="Безымянный_градиент_2-43" x1="-71.72" y1="-10.19" x2="1160.39" y2="852.51" xlink:href="#Безымянный_градиент_2"/><linearGradient id="Безымянный_градиент_2-44" x1="-95.15" y1="23.28" x2="1136.96" y2="885.98" xlink:href="#Безымянный_градиент_2"/><linearGradient id="Безымянный_градиент_2-45" x1="-92.01" y1="18.79" x2="1140.1" y2="881.49" xlink:href="#Безымянный_градиент_2"/><linearGradient id="Безымянный_градиент_2-46" x1="-89.44" y1="15.13" x2="1142.67" y2="877.82" xlink:href="#Безымянный_градиент_2"/><linearGradient id="Безымянный_градиент_2-47" x1="-86.42" y1="10.81" x2="1145.69" y2="873.51" xlink:href="#Безымянный_градиент_2"/><linearGradient id="Безымянный_градиент_2-48" x1="-80.84" y1="2.85" x2="1151.26" y2="865.55" xlink:href="#Безымянный_градиент_2"/><linearGradient id="Безымянный_градиент_2-49" x1="-76.68" y1="-3.1" x2="1155.43" y2="859.6" xlink:href="#Безымянный_градиент_2"/><linearGradient id="Безымянный_градиент_2-50" x1="-73.27" y1="-7.96" x2="1158.83" y2="854.74" xlink:href="#Безымянный_градиент_2"/><linearGradient id="Безымянный_градиент_2-51" x1="-69.09" y1="-13.93" x2="1163.01" y2="848.77" xlink:href="#Безымянный_градиент_2"/><linearGradient id="Безымянный_градиент_2-52" x1="-65.81" y1="-18.63" x2="1166.3" y2="844.07" xlink:href="#Безымянный_градиент_2"/><linearGradient id="Безымянный_градиент_2-53" x1="-61.58" y1="-24.67" x2="1170.53" y2="838.03" xlink:href="#Безымянный_градиент_2"/><linearGradient id="Безымянный_градиент_2-54" x1="-58.83" y1="-28.59" x2="1173.28" y2="834.11" xlink:href="#Безымянный_градиент_2"/><linearGradient id="Безымянный_градиент_2-55" x1="-54.54" y1="-34.71" x2="1177.56" y2="827.99" xlink:href="#Безымянный_градиент_2"/><linearGradient id="Безымянный_градиент_2-56" x1="-50.6" y1="-40.34" x2="1181.51" y2="822.36" xlink:href="#Безымянный_градиент_2"/><linearGradient id="Безымянный_градиент_2-57" x1="-129.8" y1="72.77" x2="1102.31" y2="935.47" xlink:href="#Безымянный_градиент_2"/><linearGradient id="Безымянный_градиент_2-58" x1="-126.59" y1="68.19" x2="1105.51" y2="930.89" xlink:href="#Безымянный_градиент_2"/><linearGradient id="Безымянный_градиент_2-59" x1="-124.28" y1="64.88" x2="1107.83" y2="927.58" xlink:href="#Безымянный_градиент_2"/><linearGradient id="Безымянный_градиент_2-60" x1="-120.42" y1="59.38" x2="1111.68" y2="922.08" xlink:href="#Безымянный_градиент_2"/><linearGradient id="Безымянный_градиент_2-61" x1="-115.96" y1="53" x2="1116.15" y2="915.7" xlink:href="#Безымянный_градиент_2"/><linearGradient id="Безымянный_градиент_2-62" x1="-139.41" y1="86.49" x2="1092.7" y2="949.19" xlink:href="#Безымянный_градиент_2"/><linearGradient id="Безымянный_градиент_2-63" x1="-135.33" y1="80.67" x2="1096.78" y2="943.37" xlink:href="#Безымянный_градиент_2"/><linearGradient id="Безымянный_градиент_2-64" x1="-131.19" y1="74.75" x2="1100.92" y2="937.45" xlink:href="#Безымянный_градиент_2"/><linearGradient id="Безымянный_градиент_2-65" x1="-127.52" y1="69.51" x2="1104.59" y2="932.21" xlink:href="#Безымянный_градиент_2"/><linearGradient id="Безымянный_градиент_2-66" x1="-124.82" y1="65.65" x2="1107.29" y2="928.35" xlink:href="#Безымянный_градиент_2"/><linearGradient id="Безымянный_градиент_2-67" x1="-121.87" y1="61.45" x2="1110.23" y2="924.15" xlink:href="#Безымянный_градиент_2"/><linearGradient id="Безымянный_градиент_2-68" x1="-116.95" y1="54.42" x2="1115.16" y2="917.12" xlink:href="#Безымянный_градиент_2"/><linearGradient id="Безымянный_градиент_2-69" x1="-113.64" y1="49.7" x2="1118.46" y2="912.39" xlink:href="#Безымянный_градиент_2"/><linearGradient id="Безымянный_градиент_2-70" x1="-110.31" y1="44.93" x2="1121.79" y2="907.63" xlink:href="#Безымянный_градиент_2"/><linearGradient id="Безымянный_градиент_2-71" x1="-106.18" y1="39.04" x2="1125.92" y2="901.74" xlink:href="#Безымянный_градиент_2"/><linearGradient id="Безымянный_градиент_2-72" x1="-102.04" y1="33.13" x2="1130.06" y2="895.83" xlink:href="#Безымянный_градиент_2"/><linearGradient id="Безымянный_градиент_2-73" x1="-98.44" y1="27.98" x2="1133.67" y2="890.68" xlink:href="#Безымянный_градиент_2"/><linearGradient id="Безымянный_градиент_2-74" x1="-90.45" y1="16.57" x2="1141.66" y2="879.27" xlink:href="#Безымянный_градиент_2"/><linearGradient id="Безымянный_градиент_2-75" x1="-90.76" y1="17.01" x2="1141.34" y2="879.71" xlink:href="#Безымянный_градиент_2"/><linearGradient id="Безымянный_градиент_2-76" x1="-87.72" y1="12.67" x2="1144.38" y2="875.37" xlink:href="#Безымянный_градиент_2"/><linearGradient id="Безымянный_градиент_2-77" x1="-83.54" y1="6.7" x2="1148.57" y2="869.4" xlink:href="#Безымянный_градиент_2"/><linearGradient id="Безымянный_градиент_2-78" x1="-79.31" y1="0.66" x2="1152.8" y2="863.36" xlink:href="#Безымянный_градиент_2"/><linearGradient id="Безымянный_градиент_2-79" x1="-76.36" y1="-3.55" x2="1155.74" y2="859.15" xlink:href="#Безымянный_градиент_2"/><linearGradient id="Безымянный_градиент_2-80" x1="-71.1" y1="-11.06" x2="1161" y2="851.64" xlink:href="#Безымянный_градиент_2"/><linearGradient id="Безымянный_градиент_2-81" x1="-66.87" y1="-17.11" x2="1165.24" y2="845.59" xlink:href="#Безымянный_градиент_2"/><linearGradient id="Безымянный_градиент_2-82" x1="-62.33" y1="-23.58" x2="1169.77" y2="839.11" xlink:href="#Безымянный_градиент_2"/><linearGradient id="Безымянный_градиент_2-83" x1="-58.26" y1="-29.4" x2="1173.84" y2="833.3" xlink:href="#Безымянный_градиент_2"/><linearGradient id="Безымянный_градиент_2-84" x1="-52.2" y1="-38.06" x2="1179.9" y2="824.64" xlink:href="#Безымянный_градиент_2"/><linearGradient id="Безымянный_градиент_2-85" x1="-48.84" y1="-42.85" x2="1183.26" y2="819.85" xlink:href="#Безымянный_градиент_2"/><linearGradient id="Безымянный_градиент_2-86" x1="-43.73" y1="-50.16" x2="1188.38" y2="812.54" xlink:href="#Безымянный_градиент_2"/><linearGradient id="Безымянный_градиент_2-87" x1="-38.86" y1="-57.12" x2="1193.25" y2="805.58" xlink:href="#Безымянный_градиент_2"/><linearGradient id="Безымянный_градиент_2-88" x1="-32.69" y1="-65.93" x2="1199.42" y2="796.77" xlink:href="#Безымянный_градиент_2"/><linearGradient id="Безымянный_градиент_2-89" x1="-174.49" y1="136.6" x2="1057.61" y2="999.3" xlink:href="#Безымянный_градиент_2"/><linearGradient id="Безымянный_градиент_2-90" x1="-169.83" y1="129.95" x2="1062.27" y2="992.65" xlink:href="#Безымянный_градиент_2"/><linearGradient id="Безымянный_градиент_2-91" x1="-167.5" y1="126.61" x2="1064.61" y2="989.31" xlink:href="#Безымянный_градиент_2"/><linearGradient id="Безымянный_градиент_2-92" x1="-163.64" y1="121.1" x2="1068.46" y2="983.8" xlink:href="#Безымянный_градиент_2"/><linearGradient id="Безымянный_градиент_2-93" x1="-159.18" y1="114.72" x2="1072.93" y2="977.42" xlink:href="#Безымянный_градиент_2"/><linearGradient id="Безымянный_градиент_2-94" x1="-184.42" y1="150.77" x2="1047.69" y2="1013.47" xlink:href="#Безымянный_градиент_2"/><linearGradient id="Безымянный_градиент_2-95" x1="-181.67" y1="146.85" x2="1050.44" y2="1009.55" xlink:href="#Безымянный_градиент_2"/><linearGradient id="Безымянный_градиент_2-96" x1="-177.03" y1="140.23" x2="1055.07" y2="1002.93" xlink:href="#Безымянный_градиент_2"/><linearGradient id="Безымянный_градиент_2-97" x1="-172.38" y1="133.58" x2="1059.73" y2="996.27" xlink:href="#Безымянный_градиент_2"/><linearGradient id="Безымянный_градиент_2-98" x1="-168.27" y1="127.71" x2="1063.84" y2="990.41" xlink:href="#Безымянный_градиент_2"/><linearGradient id="Безымянный_градиент_2-99" x1="-162.88" y1="120.01" x2="1069.23" y2="982.71" xlink:href="#Безымянный_градиент_2"/><linearGradient id="Безымянный_градиент_2-100" x1="-159.67" y1="115.43" x2="1072.43" y2="978.13" xlink:href="#Безымянный_градиент_2"/><linearGradient id="Безымянный_градиент_2-101" x1="-154.11" y1="107.49" x2="1078" y2="970.19" xlink:href="#Безымянный_градиент_2"/><linearGradient id="Безымянный_градиент_2-102" x1="-149.55" y1="100.98" x2="1082.55" y2="963.68" xlink:href="#Безымянный_градиент_2"/><linearGradient id="Безымянный_градиент_2-103" x1="-145.14" y1="94.68" x2="1086.96" y2="957.38" xlink:href="#Безымянный_градиент_2"/><linearGradient id="Безымянный_градиент_2-104" x1="-139.12" y1="86.08" x2="1092.99" y2="948.77" xlink:href="#Безымянный_градиент_2"/><linearGradient id="Безымянный_градиент_2-105" x1="-134.83" y1="79.95" x2="1097.28" y2="942.65" xlink:href="#Безымянный_градиент_2"/><linearGradient id="Безымянный_градиент_2-106" x1="-130.63" y1="73.95" x2="1101.48" y2="936.65" xlink:href="#Безымянный_градиент_2"/><linearGradient id="Безымянный_градиент_2-107" x1="-128.24" y1="70.54" x2="1103.86" y2="933.24" xlink:href="#Безымянный_градиент_2"/><linearGradient id="Безымянный_градиент_2-108" x1="-122.6" y1="62.48" x2="1109.51" y2="925.18" xlink:href="#Безымянный_градиент_2"/><linearGradient id="Безымянный_градиент_2-109" x1="-117.84" y1="55.68" x2="1114.27" y2="918.38" xlink:href="#Безымянный_градиент_2"/><linearGradient id="Безымянный_градиент_2-110" x1="-113.61" y1="49.64" x2="1118.5" y2="912.34" xlink:href="#Безымянный_градиент_2"/><linearGradient id="Безымянный_градиент_2-111" x1="-111.9" y1="47.21" x2="1120.2" y2="909.91" xlink:href="#Безымянный_градиент_2"/></defs><g id="Слой_2" data-name="Слой 2"><g id="Слой_1-2" data-name="Слой 1"><rect class="cls-1" x="10.75" y="120.92" width="5" height="73.37"/><rect class="cls-2" x="10.75" y="216.29" width="5" height="73.37"/><rect class="cls-3" x="10.75" y="25.04" width="5" height="73.88"/><path class="cls-4" d="M13.5,28A13.5,13.5,0,1,1,27,14.54,13.52,13.52,0,0,1,13.5,28Zm0-22a8.5,8.5,0,1,0,8.5,8.5A8.51,8.51,0,0,0,13.5,6Z"/><path class="cls-5" d="M13.5,123.42A13.5,13.5,0,1,1,27,109.92,13.52,13.52,0,0,1,13.5,123.42Zm0-22a8.5,8.5,0,1,0,8.5,8.5A8.51,8.51,0,0,0,13.5,101.42Z"/><path class="cls-6" d="M13.5,218.79A13.5,13.5,0,1,1,27,205.29,13.52,13.52,0,0,1,13.5,218.79Zm0-22a8.5,8.5,0,1,0,8.5,8.5A8.51,8.51,0,0,0,13.5,196.79Z"/><path class="cls-7" d="M13.5,314.17A13.5,13.5,0,1,1,27,300.67,13.52,13.52,0,0,1,13.5,314.17Zm0-22a8.5,8.5,0,1,0,8.5,8.5A8.51,8.51,0,0,0,13.5,292.17Z"/><path class="cls-8" d="M51,.24v14H47.78V2.84H45V.24Z"/><path class="cls-9" d="M64,9.84c0,2.48-1.82,4.64-5.82,4.64A9.67,9.67,0,0,1,52.88,13l1.28-2.48a6.74,6.74,0,0,0,4,1.26c1.62,0,2.62-.68,2.62-1.82S60,8.12,57.5,8.12H53.92L54.64.24h8.54v2.6H57.34L57.12,5.5h1.14C62.4,5.5,64,7.36,64,9.84Z"/><path class="cls-10" d="M65.26,5.26a1.94,1.94,0,0,1,3.88,0,1.94,1.94,0,1,1-3.88,0Zm0,7.18a1.94,1.94,0,0,1,3.88,0,1.94,1.94,0,1,1-3.88,0Z"/><path class="cls-11" d="M70.6,7.24c0-4.62,2.56-7.24,6-7.24s6,2.62,6,7.24-2.54,7.24-6,7.24S70.6,11.86,70.6,7.24Zm8.74,0c0-3.18-1.12-4.5-2.74-4.5s-2.72,1.32-2.72,4.5,1.12,4.5,2.72,4.5S79.34,10.42,79.34,7.24Z"/><path class="cls-12" d="M84.18,7.24c0-4.62,2.56-7.24,6-7.24s6,2.62,6,7.24-2.54,7.24-6,7.24S84.18,11.86,84.18,7.24Zm8.74,0c0-3.18-1.12-4.5-2.74-4.5s-2.72,1.32-2.72,4.5,1.12,4.5,2.72,4.5S92.92,10.42,92.92,7.24Z"/><path class="cls-13" d="M46.1,31.24a7,7,0,0,1,7.26-7.1,6.67,6.67,0,0,1,5,1.94l-.64.66a5.86,5.86,0,0,0-4.3-1.66,6.16,6.16,0,1,0,0,12.32,5.88,5.88,0,0,0,4.3-1.68l.64.66a6.69,6.69,0,0,1-5,2A7,7,0,0,1,46.1,31.24Z"/><path class="cls-14" d="M70.82,33.1a5,5,0,0,1-5.14,5.24c-3.48,0-5.4-2.7-5.4-6.82,0-4.74,1.72-6.8,5.24-7.64l4.62-1.12.16.94-4.4,1c-3.16.74-4.6,2.38-4.66,6.32A4.67,4.67,0,0,1,65.82,28,4.84,4.84,0,0,1,70.82,33.1Zm-1,0a4.11,4.11,0,1,0-8.22,0,4.12,4.12,0,1,0,8.22,0Z"/><path class="cls-15" d="M73,33a5.22,5.22,0,1,1,10.44,0A5.22,5.22,0,1,1,73,33Zm9.42,0a4.2,4.2,0,1,0-8.4,0,4.2,4.2,0,1,0,8.4,0Z"/><path class="cls-16" d="M97.16,33A5,5,0,0,1,92,38.32a4.67,4.67,0,0,1-4.24-2.46v6.26h-1V27.8h1v2.46A4.67,4.67,0,0,1,92,27.72,5.06,5.06,0,0,1,97.16,33Zm-1,0a4.21,4.21,0,1,0-8.42,0,4.21,4.21,0,1,0,8.42,0Z"/><path class="cls-17" d="M105.56,27.8h1v8.9L114,27.8h.88V38.24h-1v-8.9l-7.44,8.9h-.88Z"/><path class="cls-18" d="M134.76,33a5,5,0,0,1-5.16,5.3,4.67,4.67,0,0,1-4.24-2.46v6.26h-1V27.8h1v2.46a4.67,4.67,0,0,1,4.28-2.54A5.06,5.06,0,0,1,134.76,33Zm-1,0a4.21,4.21,0,1,0-8.42,0,4.21,4.21,0,1,0,8.42,0Z"/><path class="cls-19" d="M146.92,33.26h-9A4.47,4.47,0,0,0,145.7,36l.58.66a5,5,0,0,1-3.94,1.7A5.13,5.13,0,0,1,137,33a5,5,0,1,1,10,0C146.94,33.06,146.92,33.16,146.92,33.26Zm-9-.78h8a4,4,0,0,0-8,0Z"/><path class="cls-20" d="M157.34,28.7H151.2v9.54h-1V27.8h7.14Z"/><path class="cls-21" d="M159.48,27.8h1v8.9l7.44-8.9h.88V38.24h-1v-8.9l-7.44,8.9h-.88Z"/><path class="cls-22" d="M172.06,33a5.09,5.09,0,0,1,5.28-5.3,4.58,4.58,0,0,1,4,1.92l-.74.54a3.81,3.81,0,0,0-3.22-1.56,4.14,4.14,0,0,0-4.26,4.4,4.14,4.14,0,0,0,4.26,4.4,3.81,3.81,0,0,0,3.22-1.56l.74.54a4.63,4.63,0,0,1-4,1.92A5.1,5.1,0,0,1,172.06,33Z"/><path class="cls-23" d="M191,28.7h-4.08v9.54h-1V28.7h-4.08v-.9H191Z"/><path class="cls-24" d="M203.56,33a5,5,0,0,1-5.16,5.3,4.67,4.67,0,0,1-4.24-2.46v6.26h-1V27.8h1v2.46a4.67,4.67,0,0,1,4.28-2.54A5.06,5.06,0,0,1,203.56,33Zm-1,0a4.21,4.21,0,1,0-8.42,0,4.21,4.21,0,1,0,8.42,0Z"/><path class="cls-25" d="M214.26,31.62v6.62h-1V36.38a4,4,0,0,1-3.76,1.94c-2.34,0-3.77-1.2-3.77-3,0-1.58,1-2.92,3.91-2.92h3.58v-.84c0-1.94-1.06-3-3.1-3a5.42,5.42,0,0,0-3.6,1.32l-.5-.72a6.37,6.37,0,0,1,4.18-1.48C212.82,27.72,214.26,29,214.26,31.62Zm-1,3.54v-2H209.7c-2.16,0-2.92.9-2.92,2.1,0,1.36,1.06,2.2,2.9,2.2A3.58,3.58,0,0,0,213.26,35.16Z"/><path class="cls-26" d="M229,37.36V41h-1V38.24h-9.7V27.8h1v9.56h6.92V27.8h1v9.56Z"/><path class="cls-27" d="M231.9,27.8h1v8.9l7.44-8.9h.88V38.24h-1v-8.9l-7.45,8.9h-.87Z"/><path class="cls-28" d="M253.24,27.8V38.24h-.92v-3.6h-3.48a4.35,4.35,0,0,1-.52,0l-2.59,3.62h-1.1l2.71-3.74a3.07,3.07,0,0,1-2.65-3.22c0-2.36,1.71-3.48,4.31-3.48Zm-4.3,6.08h3.38v-5.2h-3.26c-2.14,0-3.37.78-3.37,2.64S246.8,33.88,248.94,33.88Z"/><path class="cls-29" d="M271.2,27.8l-5.36,11.86c-.84,1.92-1.88,2.54-3.27,2.54a3.33,3.33,0,0,1-2.42-.94l.5-.76a2.54,2.54,0,0,0,1.94.82c1,0,1.66-.44,2.31-1.86l.56-1.26-4.71-10.4h1.06L266,37.14l4.18-9.34Z"/><path class="cls-30" d="M281.12,27.8V38.24h-1v-4.5a9,9,0,0,1-3.72.86c-2.39,0-3.95-1.08-3.95-3.32V27.8h1v3.42c0,1.66,1.2,2.54,3.09,2.54a9.47,9.47,0,0,0,3.58-.82V27.8Z"/><path class="cls-31" d="M292.92,31.62v6.62h-1V36.38a4,4,0,0,1-3.77,1.94c-2.34,0-3.76-1.2-3.76-3,0-1.58,1-2.92,3.9-2.92h3.59v-.84c0-1.94-1.07-3-3.11-3a5.42,5.42,0,0,0-3.6,1.32l-.5-.72a6.37,6.37,0,0,1,4.18-1.48C291.48,27.72,292.92,29,292.92,31.62Zm-1,3.54v-2h-3.57c-2.16,0-2.92.9-2.92,2.1,0,1.36,1.06,2.2,2.9,2.2A3.6,3.6,0,0,0,291.92,35.16Z"/><path class="cls-32" d="M295.91,33a5.09,5.09,0,0,1,5.28-5.3,4.6,4.6,0,0,1,4,1.92l-.74.54a3.82,3.82,0,0,0-3.23-1.56,4.14,4.14,0,0,0-4.26,4.4,4.14,4.14,0,0,0,4.26,4.4,3.82,3.82,0,0,0,3.23-1.56l.74.54a4.65,4.65,0,0,1-4,1.92A5.1,5.1,0,0,1,295.91,33Z"/><path class="cls-33" d="M314.86,28.7h-4.09v9.54h-1V28.7h-4.08v-.9h9.17Z"/><path class="cls-34" d="M317,27.8h1v4.76h7.09V27.8h1V38.24h-1v-4.8H318v4.8h-1Z"/><path class="cls-35" d="M330.39,27.8h1v8.9l7.45-8.9h.88V38.24h-1v-8.9l-7.45,8.9h-.88Z"/><path class="cls-36" d="M347.57,33.4H345v4.84h-1V27.8h1v4.74h2.54l3.95-4.74h1.1l-4.25,5.06,4.57,5.38h-1.2Z"/><path class="cls-37" d="M354,33a5.23,5.23,0,1,1,10.45,0A5.23,5.23,0,1,1,354,33Zm9.43,0A4.21,4.21,0,1,0,355,33a4.21,4.21,0,1,0,8.41,0Z"/><path class="cls-38" d="M376.14,35.44c0,1.8-1.29,2.8-4,2.8h-4.52V27.8h4.4c2.3,0,3.73.92,3.73,2.66a2.4,2.4,0,0,1-1.95,2.4A2.42,2.42,0,0,1,376.14,35.44Zm-7.51-2.88H372c1.78,0,2.79-.68,2.79-2s-1-2-2.79-2h-3.36Zm6.51,2.84c0-1.42-.87-2.06-2.83-2.06h-3.68v4.08h3.52C374.1,37.42,375.14,36.8,375.14,35.4Z"/><path class="cls-39" d="M51,96.24v14H47.78V98.84H45v-2.6Z"/><path class="cls-40" d="M64.42,96.24v2.1l-5.2,11.9H55.7l5-11.36H56.08v2.28H53.2V96.24Z"/><path class="cls-41" d="M65.36,101.26a1.94,1.94,0,0,1,3.88,0,1.94,1.94,0,1,1-3.88,0Zm0,7.18a1.94,1.94,0,0,1,3.88,0,1.94,1.94,0,1,1-3.88,0Z"/><path class="cls-42" d="M70.7,103.24c0-4.62,2.56-7.24,6-7.24s6,2.62,6,7.24-2.54,7.24-6,7.24S70.7,107.86,70.7,103.24Zm8.74,0c0-3.18-1.12-4.5-2.74-4.5S74,100.06,74,103.24s1.12,4.5,2.72,4.5S79.44,106.42,79.44,103.24Z"/><path class="cls-43" d="M84.28,103.24c0-4.62,2.56-7.24,6-7.24s6,2.62,6,7.24-2.54,7.24-6,7.24S84.28,107.86,84.28,103.24Zm8.74,0c0-3.18-1.12-4.5-2.74-4.5s-2.72,1.32-2.72,4.5,1.12,4.5,2.72,4.5S93,106.42,93,103.24Z"/><path class="cls-44" d="M46.1,127.24a7,7,0,0,1,7.26-7.1,6.67,6.67,0,0,1,5,1.94l-.64.66a5.86,5.86,0,0,0-4.3-1.66,6.16,6.16,0,1,0,0,12.32,5.88,5.88,0,0,0,4.3-1.68l.64.66a6.69,6.69,0,0,1-5,2A7,7,0,0,1,46.1,127.24Z"/><path class="cls-45" d="M68,124.7H63.88v9.54h-1V124.7H58.8v-.9H68Z"/><path class="cls-46" d="M77.58,127.62v6.62h-1v-1.86a4,4,0,0,1-3.76,1.94c-2.34,0-3.76-1.2-3.76-3,0-1.58,1-2.92,3.9-2.92h3.58v-.84c0-1.94-1.06-3-3.1-3a5.42,5.42,0,0,0-3.6,1.32l-.5-.72a6.37,6.37,0,0,1,4.18-1.48C76.14,123.72,77.58,125,77.58,127.62Zm-1,3.54v-2H73c-2.16,0-2.92.9-2.92,2.1,0,1.36,1.06,2.2,2.9,2.2A3.58,3.58,0,0,0,76.58,131.16Z"/><path class="cls-47" d="M92.06,129a5,5,0,0,1-5.16,5.3,4.67,4.67,0,0,1-4.24-2.46v6.26h-1V123.8h1v2.46a4.67,4.67,0,0,1,4.28-2.54A5.06,5.06,0,0,1,92.06,129Zm-1,0a4.21,4.21,0,1,0-4.22,4.4A4.16,4.16,0,0,0,91.06,129Z"/><path class="cls-48" d="M101.9,124.7H97.82v9.54h-1V124.7H92.74v-.9h9.16Z"/><path class="cls-49" d="M115.72,134.24l-3.58-4.66-3.58,4.66h-1.14l4.14-5.38-3.92-5.06h1.14l3.36,4.34,3.36-4.34h1.12l-3.92,5.06,4.2,5.38Z"/><path class="cls-50" d="M126.72,127.62v6.62h-1v-1.86a4,4,0,0,1-3.76,1.94c-2.34,0-3.76-1.2-3.76-3,0-1.58,1-2.92,3.9-2.92h3.58v-.84c0-1.94-1.06-3-3.1-3a5.42,5.42,0,0,0-3.6,1.32l-.5-.72a6.37,6.37,0,0,1,4.18-1.48C125.28,123.72,126.72,125,126.72,127.62Zm-1,3.54v-2h-3.56c-2.16,0-2.92.9-2.92,2.1,0,1.36,1.06,2.2,2.9,2.2A3.58,3.58,0,0,0,125.72,131.16Z"/><path class="cls-51" d="M134.32,129.4h-2.54v4.84h-1V123.8h1v4.74h2.54l3.94-4.74h1.1l-4.24,5.06,4.56,5.38h-1.2Z"/><path class="cls-52" d="M149.42,127.62v6.62h-1v-1.86a4,4,0,0,1-3.76,1.94c-2.34,0-3.76-1.2-3.76-3,0-1.58,1-2.92,3.9-2.92h3.58v-.84c0-1.94-1.06-3-3.1-3a5.42,5.42,0,0,0-3.6,1.32l-.5-.72a6.37,6.37,0,0,1,4.18-1.48C148,123.72,149.42,125,149.42,127.62Zm-1,3.54v-2h-3.56c-2.16,0-2.92.9-2.92,2.1,0,1.36,1.06,2.2,2.9,2.2A3.58,3.58,0,0,0,148.42,131.16Z"/><path class="cls-53" d="M160.46,124.7h-4.08v9.54h-1V124.7H151.3v-.9h9.16Z"/><path class="cls-54" d="M161.06,129a5.22,5.22,0,1,1,5.22,5.3A5.09,5.09,0,0,1,161.06,129Zm9.42,0a4.2,4.2,0,1,0-4.2,4.4A4.14,4.14,0,0,0,170.48,129Z"/><path class="cls-55" d="M174.76,123.8h1v4.76h7.08V123.8h1v10.44h-1v-4.8h-7.08v4.8h-1Z"/><path class="cls-56" d="M195.64,127.62v6.62h-1v-1.86a4,4,0,0,1-3.76,1.94c-2.34,0-3.76-1.2-3.76-3,0-1.58,1-2.92,3.9-2.92h3.58v-.84c0-1.94-1.06-3-3.1-3a5.42,5.42,0,0,0-3.6,1.32l-.5-.72a6.37,6.37,0,0,1,4.18-1.48C194.2,123.72,195.64,125,195.64,127.62Zm-1,3.54v-2h-3.56c-2.16,0-2.92.9-2.92,2.1,0,1.36,1.06,2.2,2.9,2.2A3.58,3.58,0,0,0,194.64,131.16Z"/><path class="cls-57" d="M51,191.24v14H47.78v-11.4H45v-2.6Z"/><path class="cls-58" d="M65.18,201.18c0,2.64-2.36,4.3-5.92,4.3s-5.88-1.66-5.88-4.3a3.56,3.56,0,0,1,2.12-3.3A3.23,3.23,0,0,1,53.88,195c0-2.46,2.2-4,5.38-4s5.42,1.54,5.42,4A3.25,3.25,0,0,1,63,197.88,3.55,3.55,0,0,1,65.18,201.18Zm-3.28-.1c0-1.24-1-2-2.64-2s-2.6.76-2.6,2,1,2,2.6,2S61.9,202.32,61.9,201.08Zm-4.8-5.94c0,1.06.84,1.72,2.16,1.72s2.2-.66,2.2-1.72-.88-1.76-2.2-1.76S57.1,194,57.1,195.14Z"/><path class="cls-59" d="M66.56,196.26a1.94,1.94,0,0,1,3.88,0,1.94,1.94,0,1,1-3.88,0Zm0,7.18a1.94,1.94,0,0,1,3.88,0,1.94,1.94,0,1,1-3.88,0Z"/><path class="cls-60" d="M71.9,198.24c0-4.62,2.56-7.24,6-7.24s6,2.62,6,7.24-2.54,7.24-6,7.24S71.9,202.86,71.9,198.24Zm8.74,0c0-3.18-1.12-4.5-2.74-4.5s-2.72,1.32-2.72,4.5,1.12,4.5,2.72,4.5S80.64,201.42,80.64,198.24Z"/><path class="cls-61" d="M85.48,198.24c0-4.62,2.56-7.24,6-7.24s6,2.62,6,7.24-2.54,7.24-6,7.24S85.48,202.86,85.48,198.24Zm8.74,0c0-3.18-1.12-4.5-2.74-4.5s-2.72,1.32-2.72,4.5,1.12,4.5,2.72,4.5S94.22,201.42,94.22,198.24Z"/><path class="cls-62" d="M60.6,229.24l0-12-5.86,10.12h-.5L48.36,217.3v11.94h-1v-14h.86l6.26,10.82,6.26-10.82h.84l0,14Z"/><path class="cls-63" d="M73.76,222.62v6.62h-1v-1.86A4,4,0,0,1,69,229.32c-2.34,0-3.76-1.2-3.76-3,0-1.58,1-2.92,3.9-2.92h3.58v-.84c0-1.94-1.06-3-3.1-3a5.42,5.42,0,0,0-3.6,1.32l-.5-.72a6.37,6.37,0,0,1,4.18-1.48C72.32,218.72,73.76,220,73.76,222.62Zm-1,3.54v-2H69.2c-2.16,0-2.92.9-2.92,2.1,0,1.36,1.06,2.2,2.9,2.2A3.58,3.58,0,0,0,72.76,226.16Z"/><path class="cls-64" d="M76.76,224a5.09,5.09,0,0,1,5.28-5.3,4.58,4.58,0,0,1,4,1.92l-.74.54A3.81,3.81,0,0,0,82,219.62a4.4,4.4,0,0,0,0,8.8,3.81,3.81,0,0,0,3.22-1.56l.74.54a4.63,4.63,0,0,1-4,1.92A5.1,5.1,0,0,1,76.76,224Z"/><path class="cls-65" d="M95.7,219.7H91.62v9.54h-1V219.7H86.54v-.9H95.7Z"/><path class="cls-66" d="M106.26,224.26h-9A4.47,4.47,0,0,0,105,227l.58.66a5,5,0,0,1-3.94,1.7A5.13,5.13,0,0,1,96.3,224a5,5,0,1,1,10,0C106.28,224.06,106.26,224.16,106.26,224.26Zm-9-.78h8a4,4,0,0,0-8,0Z"/><path class="cls-67" d="M120,224a5,5,0,0,1-5.16,5.3,4.67,4.67,0,0,1-4.24-2.46v6.26h-1V218.8h1v2.46a4.67,4.67,0,0,1,4.28-2.54A5.06,5.06,0,0,1,120,224Zm-1,0a4.21,4.21,0,1,0-4.22,4.4A4.16,4.16,0,0,0,119,224Z"/><path class="cls-68" d="M122.5,223.42h5.14v.9H122.5Z"/><path class="cls-69" d="M134.58,224.4H132v4.84h-1V218.8h1v4.74h2.54l3.94-4.74h1.1l-4.24,5.06,4.56,5.38h-1.2Z"/><path class="cls-70" d="M150.56,218.8v10.44h-1V219.7h-5.44l-.14,2.78c-.2,3.66-.6,6.88-2.78,6.88a3.65,3.65,0,0,1-.86-.14l.1-.86a2.19,2.19,0,0,0,.48.08c1.78,0,2-3,2.14-6l.18-3.6Z"/><path class="cls-71" d="M162.36,222.62v6.62h-1v-1.86a4,4,0,0,1-3.76,1.94c-2.34,0-3.76-1.2-3.76-3,0-1.58,1-2.92,3.9-2.92h3.58v-.84c0-1.94-1.06-3-3.1-3a5.42,5.42,0,0,0-3.6,1.32l-.5-.72a6.37,6.37,0,0,1,4.18-1.48C160.92,218.72,162.36,220,162.36,222.62Zm-1,3.54v-2H157.8c-2.16,0-2.92.9-2.92,2.1,0,1.36,1.06,2.2,2.9,2.2A3.58,3.58,0,0,0,161.36,226.16Z"/><path class="cls-72" d="M165.36,224a5.09,5.09,0,0,1,5.28-5.3,4.58,4.58,0,0,1,4,1.92l-.74.54a3.81,3.81,0,0,0-3.22-1.56,4.4,4.4,0,0,0,0,8.8,3.81,3.81,0,0,0,3.22-1.56l.74.54a4.63,4.63,0,0,1-4,1.92A5.1,5.1,0,0,1,165.36,224Z"/><path class="cls-73" d="M176.32,224a5.09,5.09,0,0,1,5.28-5.3,4.58,4.58,0,0,1,4,1.92l-.74.54a3.81,3.81,0,0,0-3.22-1.56,4.4,4.4,0,0,0,0,8.8,3.81,3.81,0,0,0,3.22-1.56l.74.54a4.63,4.63,0,0,1-4,1.92A5.1,5.1,0,0,1,176.32,224Z"/><path class="cls-74" d="M194.32,214.4l-.64,2.82a.84.84,0,0,1,.64.82.83.83,0,1,1-1.66,0,2.71,2.71,0,0,1,.18-.92l.78-2.72Zm3.06,3.64a.83.83,0,1,1-1.66,0,2.71,2.71,0,0,1,.18-.92l.78-2.72h.7l-.64,2.82A.84.84,0,0,1,197.38,218Z"/><path class="cls-75" d="M208.46,219.7h-6.14v9.54h-1V218.8h7.14Z"/><path class="cls-76" d="M219,224.26h-9a4.47,4.47,0,0,0,7.76,2.7l.58.66a5,5,0,0,1-3.94,1.7,5.13,5.13,0,0,1-5.38-5.3,5,5,0,1,1,10,0C219,224.06,219,224.16,219,224.26Zm-9-.78h8a4,4,0,0,0-8,0Z"/><path class="cls-77" d="M222.3,218.8h1v4.76h7.08V218.8h1v10.44h-1v-4.8H223.3v4.8h-1Z"/><path class="cls-78" d="M244.6,224.26h-9a4.47,4.47,0,0,0,7.76,2.7l.58.66a5,5,0,0,1-3.94,1.7,5.13,5.13,0,0,1-5.38-5.3,5,5,0,1,1,10,0C244.62,224.06,244.6,224.16,244.6,224.26Zm-9-.78h8a4,4,0,0,0-8,0Z"/><path class="cls-79" d="M258.3,224a5,5,0,0,1-5.16,5.3,4.67,4.67,0,0,1-4.24-2.46v6.26h-1V218.8h1v2.46a4.67,4.67,0,0,1,4.28-2.54A5.06,5.06,0,0,1,258.3,224Zm-1,0a4.21,4.21,0,1,0-4.22,4.4A4.16,4.16,0,0,0,257.3,224Z"/><path class="cls-80" d="M269,222.62v6.62h-1v-1.86a4,4,0,0,1-3.76,1.94c-2.34,0-3.76-1.2-3.76-3,0-1.58,1-2.92,3.9-2.92H268v-.84c0-1.94-1.06-3-3.1-3a5.42,5.42,0,0,0-3.6,1.32l-.5-.72a6.37,6.37,0,0,1,4.18-1.48C267.56,218.72,269,220,269,222.62Zm-1,3.54v-2h-3.56c-2.16,0-2.92.9-2.92,2.1,0,1.36,1.06,2.2,2.9,2.2A3.58,3.58,0,0,0,268,226.16Z"/><path class="cls-81" d="M283.72,228.36V232h-1v-2.72h-9.7V218.8h1v9.56H281V218.8h1v9.56Z"/><path class="cls-82" d="M286.64,218.8h1v8.9l7.44-8.9H296v10.44h-1v-8.9l-7.44,8.9h-.88Z"/><path class="cls-83" d="M308,218.8v10.44h-.92v-3.6h-3.48a4.35,4.35,0,0,1-.52,0l-2.58,3.62h-1.1l2.7-3.74a3.07,3.07,0,0,1-2.64-3.22c0-2.36,1.7-3.48,4.3-3.48Zm-4.3,6.08h3.38v-5.2H303.8c-2.14,0-3.36.78-3.36,2.64S301.54,224.88,303.68,224.88Z"/><path class="cls-84" d="M317.44,218.8h1v8.9l7.44-8.9h.88v10.44h-1v-8.9l-7.44,8.9h-.88Z"/><path class="cls-85" d="M340.9,228.36v3.48H340v-2.6h-9.89v2.6h-1v-3.48h.62c1.58-.1,1.85-3.12,2-6.12l.13-3.44h7.35v9.56Zm-9.73,0h7.05V219.7h-5.44l-.12,2.6C332.56,224.86,332.32,227.58,331.17,228.36Z"/><path class="cls-86" d="M352.76,224.26h-9a4.47,4.47,0,0,0,7.77,2.7l.58.66a5,5,0,0,1-3.94,1.7,5.13,5.13,0,0,1-5.39-5.3,5,5,0,0,1,5-5.3,4.94,4.94,0,0,1,5,5.26C352.78,224.06,352.76,224.16,352.76,224.26Zm-9-.78h8a4,4,0,0,0-8,0Z"/><path class="cls-87" d="M356,218.8h1v8.9l7.45-8.9h.88v10.44h-1v-8.9l-7.45,8.9H356Zm1.78-4.06h.75a1.9,1.9,0,0,0,2.1,1.78,1.87,1.87,0,0,0,2.08-1.78h.76a2.88,2.88,0,0,1-5.69,0Z"/><path class="cls-88" d="M370.35,215.16a3.07,3.07,0,0,1-.18.92l-.78,2.72h-.72l.66-2.82a.84.84,0,0,1,.18-1.66A.83.83,0,0,1,370.35,215.16Zm3.07,0a3.07,3.07,0,0,1-.18.92l-.78,2.72h-.73l.67-2.82a.84.84,0,1,1,1-.82Z"/><path class="cls-89" d="M56.08,297.6v2.64H45.5v-2.1l5.4-5.1c1.24-1.18,1.46-1.9,1.46-2.58,0-1.1-.76-1.74-2.24-1.74a3.42,3.42,0,0,0-2.9,1.4l-2.36-1.52a6.5,6.5,0,0,1,5.56-2.6c3.12,0,5.2,1.6,5.2,4.14,0,1.36-.38,2.6-2.34,4.42l-3.22,3Z"/><path class="cls-90" d="M57.38,293.24c0-4.62,2.56-7.24,6-7.24s6,2.62,6,7.24-2.54,7.24-6,7.24S57.38,297.86,57.38,293.24Zm8.74,0c0-3.18-1.12-4.5-2.74-4.5s-2.72,1.32-2.72,4.5,1.12,4.5,2.72,4.5S66.12,296.42,66.12,293.24Z"/><path class="cls-91" d="M70.86,291.26a1.94,1.94,0,0,1,3.88,0,1.94,1.94,0,1,1-3.88,0Zm0,7.18a1.94,1.94,0,0,1,3.88,0,1.94,1.94,0,1,1-3.88,0Z"/><path class="cls-92" d="M76.2,293.24c0-4.62,2.56-7.24,6-7.24s6,2.62,6,7.24-2.54,7.24-6,7.24S76.2,297.86,76.2,293.24Zm8.74,0c0-3.18-1.12-4.5-2.74-4.5s-2.72,1.32-2.72,4.5,1.12,4.5,2.72,4.5S84.94,296.42,84.94,293.24Z"/><path class="cls-93" d="M89.78,293.24c0-4.62,2.56-7.24,6-7.24s6,2.62,6,7.24-2.54,7.24-6,7.24S89.78,297.86,89.78,293.24Zm8.74,0c0-3.18-1.12-4.5-2.74-4.5s-2.72,1.32-2.72,4.5,1.12,4.5,2.72,4.5S98.52,296.42,98.52,293.24Z"/><path class="cls-94" d="M46.1,317.24a7,7,0,0,1,7.26-7.1,6.67,6.67,0,0,1,5,1.94l-.64.66a5.86,5.86,0,0,0-4.3-1.66,6.16,6.16,0,1,0,0,12.32,5.88,5.88,0,0,0,4.3-1.68l.64.66a6.69,6.69,0,0,1-5,2A7,7,0,0,1,46.1,317.24Z"/><path class="cls-95" d="M68.58,317.62v6.62h-1v-1.86a4,4,0,0,1-3.76,1.94c-2.34,0-3.76-1.2-3.76-3,0-1.58,1-2.92,3.9-2.92h3.58v-.84c0-1.94-1.06-3-3.1-3a5.42,5.42,0,0,0-3.6,1.32l-.5-.72a6.37,6.37,0,0,1,4.18-1.48C67.14,313.72,68.58,315,68.58,317.62Zm-1,3.54v-2H64c-2.16,0-2.92.9-2.92,2.1,0,1.36,1.06,2.2,2.9,2.2A3.58,3.58,0,0,0,67.58,321.16Z"/><path class="cls-96" d="M84,313.8v10.44h-.92V315.4l-4.54,7.5h-.46l-4.52-7.48v8.82h-.92V313.8h1l4.72,7.9,4.74-7.9Z"/><path class="cls-97" d="M87.26,319a5.22,5.22,0,1,1,5.22,5.3A5.09,5.09,0,0,1,87.26,319Zm9.42,0a4.2,4.2,0,1,0-4.2,4.4A4.14,4.14,0,0,0,96.68,319Z"/><path class="cls-98" d="M109.86,319.26h-9a4.47,4.47,0,0,0,7.76,2.7l.58.66a5,5,0,0,1-3.94,1.7A5.13,5.13,0,0,1,99.9,319a5,5,0,1,1,10,0C109.88,319.06,109.86,319.16,109.86,319.26Zm-9-.78h8a4,4,0,0,0-8,0Z"/><path class="cls-99" d="M126.76,321.44c0,1.8-1.28,2.8-4,2.8h-4.52V313.8h4.4c2.3,0,3.72.92,3.72,2.66a2.4,2.4,0,0,1-1.94,2.4A2.42,2.42,0,0,1,126.76,321.44Zm-7.5-2.88h3.36c1.78,0,2.78-.68,2.78-2s-1-2-2.78-2h-3.36Zm6.5,2.84c0-1.42-.86-2.06-2.82-2.06h-3.68v4.08h3.52C124.72,323.42,125.76,322.8,125.76,321.4Z"/><path class="cls-100" d="M140.74,319a5,5,0,0,1-5.16,5.3,4.67,4.67,0,0,1-4.24-2.46v6.26h-1V313.8h1v2.46a4.67,4.67,0,0,1,4.28-2.54A5.06,5.06,0,0,1,140.74,319Zm-1,0a4.21,4.21,0,1,0-4.22,4.4A4.16,4.16,0,0,0,139.74,319Z"/><path class="cls-101" d="M152.9,319.26h-9a4.47,4.47,0,0,0,7.76,2.7l.58.66a5,5,0,0,1-3.94,1.7,5.13,5.13,0,0,1-5.38-5.3,5,5,0,1,1,10,0C152.92,319.06,152.9,319.16,152.9,319.26Zm-9-.78h8a4,4,0,0,0-8,0Z"/><path class="cls-102" d="M167.54,313.8v10.44h-.92V315.4l-4.54,7.5h-.46l-4.52-7.48v8.82h-.92V313.8h1l4.72,7.9,4.74-7.9Z"/><path class="cls-103" d="M179.56,313.8v10.44h-.92v-3.6h-3.48a4.35,4.35,0,0,1-.52,0l-2.58,3.62H171l2.7-3.74a3.07,3.07,0,0,1-2.64-3.22c0-2.36,1.7-3.48,4.3-3.48Zm-4.3,6.08h3.38v-5.2h-3.26c-2.14,0-3.36.78-3.36,2.64S173.12,319.88,175.26,319.88Z"/><path class="cls-104" d="M198.14,313.8v10.44h-1V314.7H190v9.54h-1V313.8Z"/><path class="cls-105" d="M201.4,319a5.22,5.22,0,1,1,5.22,5.3A5.09,5.09,0,0,1,201.4,319Zm9.42,0a4.2,4.2,0,1,0-4.2,4.4A4.14,4.14,0,0,0,210.82,319Z"/><path class="cls-106" d="M218.64,319.4H216.1v4.84h-1V313.8h1v4.74h2.54l3.94-4.74h1.1l-4.24,5.06,4.56,5.38h-1.2Z"/><path class="cls-107" d="M234.36,313.8,229,325.66c-.84,1.92-1.88,2.54-3.26,2.54a3.33,3.33,0,0,1-2.42-.94l.5-.76a2.54,2.54,0,0,0,1.94.82c1,0,1.66-.44,2.3-1.86l.56-1.26-4.7-10.4H225l4.18,9.34,4.18-9.34Z"/><path class="cls-108" d="M250.82,313.8v10.44h-14V313.8h1v9.56h5.54V313.8h1v9.56h5.5V313.8Z"/><path class="cls-109" d="M262.62,317.62v6.62h-1v-1.86a4,4,0,0,1-3.76,1.94c-2.34,0-3.76-1.2-3.76-3,0-1.58,1-2.92,3.9-2.92h3.58v-.84c0-1.94-1.06-3-3.1-3a5.42,5.42,0,0,0-3.6,1.32l-.5-.72a6.37,6.37,0,0,1,4.18-1.48C261.18,313.72,262.62,315,262.62,317.62Zm-1,3.54v-2h-3.56c-2.16,0-2.92.9-2.92,2.1,0,1.36,1.06,2.2,2.9,2.2A3.58,3.58,0,0,0,261.62,321.16Z"/><path class="cls-110" d="M273.66,314.7h-4.08v9.54h-1V314.7H264.5v-.9h9.16Z"/><path class="cls-111" d="M284,320.88c0,2.22-1.48,3.42-4.22,3.4l-3.94,0V313.8h1v3.76l3.18,0C282.58,317.62,284,318.76,284,320.88Zm-1,0c0-1.7-1.08-2.48-3.22-2.52l-2.92,0v5.1l2.92,0C281.84,323.52,282.94,322.6,282.94,320.88Z"/></g></g></svg>