<svg xmlns="http://www.w3.org/2000/svg" xmlns:xlink="http://www.w3.org/1999/xlink" viewBox="0 0 1383.21 593.37"><defs><style>.a{fill:url(#a);}.b{fill:url(#b);}.c{fill:url(#c);}.d{fill:url(#d);}.e{fill:url(#e);}.f{fill:url(#f);}</style><linearGradient id="a" x1="-34.34" y1="136.63" x2="1730.41" y2="211.95" gradientUnits="userSpaceOnUse"><stop offset="0" stop-color="#3600ec"/><stop offset="1" stop-color="#7c1dc6"/></linearGradient><linearGradient id="b" x1="-40.34" y1="277.13" x2="1724.41" y2="352.45" xlink:href="#a"/><linearGradient id="c" x1="-33.39" y1="114.33" x2="1731.36" y2="189.66" xlink:href="#a"/><linearGradient id="d" x1="-298.74" y1="405.62" x2="1466" y2="480.95" xlink:href="#a"/><linearGradient id="e" x1="-291.79" y1="242.83" x2="1472.95" y2="318.16" xlink:href="#a"/><linearGradient id="f" x1="-297.8" y1="383.53" x2="1466.95" y2="458.86" xlink:href="#a"/></defs><polygon class="a" points="251.58 0 335.45 145.25 251.58 290.5 83.86 290.5 0 145.25 83.86 0 251.58 0"/><polygon class="b" points="512.8 151.9 596.66 297.15 512.8 442.41 345.08 442.41 261.22 297.15 345.08 151.9 512.8 151.9"/><polygon class="c" points="774.86 0 858.72 145.25 774.86 290.5 607.13 290.5 523.27 145.25 607.13 0 774.86 0"/><polygon class="d" points="774.86 302.62 858.72 447.87 774.86 593.12 607.13 593.12 523.27 447.87 607.13 302.62 774.86 302.62"/><polygon class="e" points="1036.91 150.71 1120.77 295.97 1036.91 441.22 869.18 441.22 785.32 295.97 869.18 150.71 1036.91 150.71"/><polygon class="f" points="1299.35 302.87 1383.21 448.12 1299.35 593.37 1131.63 593.37 1047.76 448.12 1131.63 302.87 1299.35 302.87"/></svg>