<svg xmlns="http://www.w3.org/2000/svg" xmlns:xlink="http://www.w3.org/1999/xlink" viewBox="0 0 117.75 103.39"><defs><style>.a{fill:url(#a);}.b{fill:url(#b);}</style><linearGradient id="a" y1="100.61" x2="117.75" y2="100.61" gradientUnits="userSpaceOnUse"><stop offset="0" stop-color="#0049d1"/><stop offset="1" stop-color="#6b41c2"/></linearGradient><linearGradient id="b" x1="7.25" y1="43.9" x2="110.49" y2="43.9" xlink:href="#a"/></defs><path class="a" d="M115,97.83H2.78a2.78,2.78,0,0,0,0,5.56H115a2.78,2.78,0,1,0,0-5.56Z"/><path class="b" d="M107.71,13.13H88.18a2.79,2.79,0,0,0-2.79,2.78V34.83h-14v-32A2.78,2.78,0,0,0,68.64,0H49.1a2.79,2.79,0,0,0-2.78,2.78V55.42h-14V31.77A2.79,2.79,0,0,0,29.57,29H10a2.79,2.79,0,0,0-2.78,2.78V85A2.79,2.79,0,0,0,10,87.81h97.68A2.78,2.78,0,0,0,110.49,85V15.91A2.78,2.78,0,0,0,107.71,13.13ZM26.79,82.24h-14V34.55h14Zm19.53,0h-14V61h14ZM65.86,37.61V82.24h-14V5.56h14ZM85.39,82.24h-14V40.39h14Zm19.54,0H91V18.7h14V82.24Z"/></svg>