<svg xmlns="http://www.w3.org/2000/svg" xmlns:xlink="http://www.w3.org/1999/xlink" viewBox="0 0 113.86 101.43"><defs><style>.a{fill:url(#a);}.b{fill:url(#b);}.c{fill:url(#c);}.d{fill:url(#d);}</style><linearGradient id="a" y1="50.72" x2="113.86" y2="50.72" gradientUnits="userSpaceOnUse"><stop offset="0" stop-color="#0049d1"/><stop offset="1" stop-color="#6b41c2"/></linearGradient><linearGradient id="b" x1="54.1" y1="69.91" x2="59.76" y2="69.91" xlink:href="#a"/><linearGradient id="c" x1="38.4" y1="29.21" x2="62.2" y2="29.21" xlink:href="#a"/><linearGradient id="d" x1="60.56" y1="34.38" x2="73.19" y2="34.38" xlink:href="#a"/></defs><path class="a" d="M107,0H6.87A6.88,6.88,0,0,0,0,6.87V76a6.88,6.88,0,0,0,6.87,6.88H41.18v5a8.33,8.33,0,0,1-8.32,8.32H25.3a2.62,2.62,0,1,0,0,5.24H88.56a2.62,2.62,0,0,0,0-5.24H81a8.33,8.33,0,0,1-8.32-8.32v-5H107A6.88,6.88,0,0,0,113.86,76V6.87A6.88,6.88,0,0,0,107,0ZM43.57,96.19a13.51,13.51,0,0,0,2.86-8.32v-5h21v5a13.51,13.51,0,0,0,2.86,8.32Zm65-20.19A1.63,1.63,0,0,1,107,77.62H6.87A1.63,1.63,0,0,1,5.25,76V62.2H108.61Zm0-19H5.25V6.87A1.63,1.63,0,0,1,6.87,5.25H107a1.63,1.63,0,0,1,1.62,1.62V57Z"/><circle class="b" cx="56.93" cy="69.91" r="2.83"/><path class="c" d="M61.43,18.08a2.63,2.63,0,0,0-3.71,0L39.17,36.63a2.63,2.63,0,0,0,3.71,3.72L61.43,21.8A2.63,2.63,0,0,0,61.43,18.08Z"/><path class="d" d="M72.43,28.83a2.64,2.64,0,0,0-3.72,0l-7.39,7.39A2.63,2.63,0,0,0,65,39.93l7.39-7.38A2.64,2.64,0,0,0,72.43,28.83Z"/></svg>