<svg xmlns="http://www.w3.org/2000/svg" xmlns:xlink="http://www.w3.org/1999/xlink" viewBox="0 0 102.97 102.07"><defs><style>.a{fill:url(#a);}.b{fill:url(#b);}</style><linearGradient id="a" x1="40.93" y1="53.28" x2="67.44" y2="53.28" gradientUnits="userSpaceOnUse"><stop offset="0" stop-color="#0049d1"/><stop offset="1" stop-color="#6b41c2"/></linearGradient><linearGradient id="b" x1="0" y1="51.03" x2="102.97" y2="51.03" xlink:href="#a"/></defs><path class="a" d="M54.18,40A13.26,13.26,0,1,0,67.44,53.28,13.26,13.26,0,0,0,54.18,40Zm0,21.49a8.24,8.24,0,1,1,8.24-8.24A8.25,8.25,0,0,1,54.18,61.52Z"/><path class="b" d="M102.63,30.36c1-7.17-.15-13.27-3.24-17.78a8.91,8.91,0,0,0-15.88-8c-8.4-.42-18.69,2.67-29.33,8.81C36,2.84,19.55,1.58,11,10.12c-3.71,3.71-5.63,9-5.62,15.43a8.91,8.91,0,0,0,3.52,17.1h.15a79,79,0,0,0,5.17,10.63C3.74,71.45,2.48,87.91,11,96.44c3.76,3.77,9.07,5.63,15.39,5.63,8,0,17.62-3,27.77-8.85C64.33,99.08,74,102.07,82,102.07c6.32,0,11.63-1.86,15.39-5.63,8.54-8.54,7.28-25-3.23-43.16C98.73,45.28,101.67,37.38,102.63,30.36ZM91.26,5a3.9,3.9,0,1,1-3.9,3.9A3.91,3.91,0,0,1,91.26,5ZM82.37,9.51a8.92,8.92,0,0,0,8.89,8.32,8.79,8.79,0,0,0,4.66-1.32c1.86,3.37,2.46,7.87,1.74,13.18a57.21,57.21,0,0,1-6.57,18.7A112.81,112.81,0,0,0,76.65,30.81,112.41,112.41,0,0,0,59.06,16.37C67.62,11.78,75.71,9.39,82.37,9.51ZM8.92,37.64a3.9,3.9,0,1,1,3.89-3.9A3.91,3.91,0,0,1,8.92,37.64Zm4.95,3.5A8.91,8.91,0,0,0,10.41,25c.1-4.78,1.52-8.65,4.15-11.29C21,7.25,34.36,8.38,49.29,16.37a116.41,116.41,0,0,0-32,32A71.3,71.3,0,0,1,13.87,41.14Zm.69,51.76c-6.41-6.42-5.28-19.8,2.71-34.73A112.81,112.81,0,0,0,31.71,75.75,112.81,112.81,0,0,0,49.29,90.19C34.36,98.18,21,99.31,14.56,92.9Zm20.7-20.7A106,106,0,0,1,20.09,53.28,110.89,110.89,0,0,1,54.18,19.19,106,106,0,0,1,73.1,34.36,106.36,106.36,0,0,1,88.27,53.28,106.36,106.36,0,0,1,73.1,72.2,106,106,0,0,1,54.18,87.37,106,106,0,0,1,35.26,72.2ZM93.8,92.9c-6.42,6.41-19.8,5.28-34.73-2.71A112.81,112.81,0,0,0,76.65,75.75,112.81,112.81,0,0,0,91.09,58.17C99.08,73.1,100.21,86.48,93.8,92.9Z"/></svg>