<svg xmlns="http://www.w3.org/2000/svg" xmlns:xlink="http://www.w3.org/1999/xlink" viewBox="0 0 109.98 102.87"><defs><style>.a{fill:url(#a);}.b{fill:url(#b);}.c{fill:url(#c);}</style><linearGradient id="a" y1="51.44" x2="109.98" y2="51.44" gradientUnits="userSpaceOnUse"><stop offset="0" stop-color="#0049d1"/><stop offset="1" stop-color="#6b41c2"/></linearGradient><linearGradient id="b" x1="33.5" y1="47.24" x2="76.38" y2="47.24" xlink:href="#a"/><linearGradient id="c" x1="31.21" y1="33.03" x2="49.65" y2="33.03" xlink:href="#a"/></defs><path class="a" d="M105.05,5.13H57.45V2.41a2.47,2.47,0,0,0-4.93,0V5.13H4.93A4.88,4.88,0,0,0,0,10v4.48a4.89,4.89,0,0,0,4.93,4.83H5.6V73.49a4.89,4.89,0,0,0,4.92,4.83h42V85.4L34.27,98.51a2.38,2.38,0,0,0-.53,3.38,2.51,2.51,0,0,0,3.44.52l15.34-11v9.08a2.47,2.47,0,0,0,4.93,0V91.38l15.34,11a2.53,2.53,0,0,0,1.46.46,2.49,2.49,0,0,0,2-1,2.4,2.4,0,0,0-.53-3.38L57.45,85.4V78.32h42a4.89,4.89,0,0,0,4.93-4.83V19.26h.67A4.89,4.89,0,0,0,110,14.43V10A4.88,4.88,0,0,0,105.05,5.13Zm-5.6,68.36H10.52V19.26H99.45V73.49Zm5.6-59.06H4.93V10H105.05v4.48Z"/><path class="b" d="M54.94,26.24a2.21,2.21,0,0,0-2.22,2.18V45.07h-17a2.2,2.2,0,0,0-2.22,2.17,21.44,21.44,0,0,0,42.88,0A21.25,21.25,0,0,0,54.94,26.24Zm0,37.65A16.92,16.92,0,0,1,38.08,49.41H54.94a2.19,2.19,0,0,0,2.22-2.17V30.73a16.63,16.63,0,0,1-2.22,33.16Z"/><path class="c" d="M47.44,24A16.08,16.08,0,0,0,31.21,39.89a2.19,2.19,0,0,0,2.22,2.17h14a2.19,2.19,0,0,0,2.21-2.17V26.17A2.19,2.19,0,0,0,47.44,24ZM45.22,37.72H35.85a11.71,11.71,0,0,1,9.37-9.17Z"/></svg>