<svg xmlns="http://www.w3.org/2000/svg" xmlns:xlink="http://www.w3.org/1999/xlink" viewBox="0 0 1273.75 338.31"><defs><style>.a{fill:url(#a);}.b{fill:#fff;}</style><linearGradient id="a" y1="169.15" x2="1273.75" y2="169.15" gradientUnits="userSpaceOnUse"><stop offset="0" stop-color="#0049d1"/><stop offset="1" stop-color="#6b41c2"/></linearGradient></defs><path class="a" d="M1273.74,107.76q-.06-3.06-.3-6.17c-4.17-54.2-48.5-97.91-102.75-101.36a110.37,110.37,0,0,0-117.43,110v.29a44.32,44.32,0,0,1-26.22,40.5l-5.85,2.62c-15.59,7-34.09,4.56-46.7-7a110.72,110.72,0,0,0-27.84-18.58l-.33-.15c-1.13-.53-2.28-1-3.43-1.51l-1.31-.56-2.73-1-2.14-.8-2.14-.72c-.94-.31-1.88-.61-2.83-.89-.55-.17-1.11-.33-1.66-.48-1.12-.32-2.24-.62-3.37-.9l-1.34-.32c-1.23-.29-2.47-.56-3.73-.81l-1.19-.23c-1.27-.24-2.56-.46-3.85-.65l-1.27-.18q-1.85-.26-3.72-.45c-.53,0-1.07-.11-1.61-.15s-1-.11-1.52-.15-1,0-1.57-.08c-.93,0-1.86-.1-2.8-.13s-1.74-.05-2.61-.06c-.44,0-.88,0-1.32,0-.59,0-1.18,0-1.77,0-.76,0-1.51,0-2.27.05-1.12,0-2.24.11-3.35.18-.66,0-1.32.08-2,.14-1.25.11-2.5.24-3.74.39-.51.06-1,.11-1.53.18-1.53.2-3,.44-4.54.71l-.66.11a108.19,108.19,0,0,0-15.69,4.09l0,0c-1.65.56-3.29,1.17-4.9,1.81l-.38.16q-2.26.9-4.47,1.9l-.5.23q-2.18,1-4.29,2.08l-.45.24q-2.16,1.11-4.26,2.33l-.31.18c-1.47.85-2.92,1.74-4.35,2.65l-.06,0a110.65,110.65,0,0,0-13,9.81c-.56.49-1.14.94-1.72,1.4a48.73,48.73,0,0,1-49.71,5.72h0c-17.58-7.86-28.6-25.27-29-44.52q-.06-3.06-.3-6.17a109.73,109.73,0,0,0-31.74-68.83l-.05,0c-1-1-2.08-2.05-3.15-3.05-.14-.12-.27-.25-.4-.38-1-.88-2-1.75-2.94-2.6-.26-.22-.51-.45-.77-.66-.89-.76-1.8-1.49-2.71-2.21l-1.13-.89c-.82-.64-1.65-1.25-2.49-1.86-.49-.36-1-.72-1.48-1.07-.75-.53-1.52-1-2.29-1.55-.6-.4-1.19-.8-1.8-1.19s-1.4-.88-2.11-1.31l-2.09-1.25-2-1.1c-.78-.42-1.55-.85-2.33-1.26l-1.88-.94q-1.26-.63-2.52-1.23c-.6-.28-1.21-.54-1.82-.81-.89-.39-1.78-.78-2.68-1.15-.59-.25-1.19-.48-1.79-.71-.92-.36-1.84-.72-2.78-1.06-.61-.22-1.22-.42-1.84-.63-.93-.32-1.86-.63-2.8-.92-.64-.2-1.29-.38-1.93-.57-.93-.27-1.86-.53-2.8-.78-.68-.18-1.37-.34-2-.5-.91-.22-1.81-.44-2.73-.63-.74-.16-1.48-.3-2.22-.44s-1.75-.33-2.63-.48-1.61-.25-2.42-.36S650.83.88,650,.79,648.24.6,647.36.51c-.52,0-1-.11-1.56-.16l-.68,0c-.35,0-.69-.07-1-.09-.9-.06-1.78-.07-2.68-.1s-1.72-.08-2.57-.1c-1.16,0-2.3,0-3.45,0-.9,0-1.79,0-2.68,0-1.07,0-2.12.12-3.18.19s-1.92.11-2.87.2-1.81.21-2.71.32c-1.08.12-2.17.23-3.24.39-.43.06-.86.15-1.3.22a111,111,0,0,0-14.86,3.45L604,5c-1.48.46-2.94,1-4.4,1.5-.33.12-.67.22-1,.35-1.4.52-2.77,1.08-4.15,1.66L593.33,9c-1.36.58-2.69,1.21-4,1.84l-1.1.52c-1.32.66-2.62,1.34-3.91,2.05l-1,.57c-1.29.72-2.56,1.48-3.82,2.25-.33.2-.66.39-1,.6-1.27.79-2.51,1.62-3.75,2.46l-.88.61q-1.86,1.3-3.68,2.69l-.76.59q-1.85,1.42-3.62,2.94l-.62.53q-1.83,1.56-3.59,3.21l-.45.43c-1.21,1.15-2.4,2.32-3.55,3.52l-.26.27c-1.21,1.26-2.4,2.55-3.54,3.87l0,0a109.78,109.78,0,0,0-27.06,72.61A44.31,44.31,0,0,1,500.44,151l-5.85,2.62c-15.6,7-34.09,4.56-46.7-7A110,110,0,0,0,301,145.16a47.28,47.28,0,0,1-50.5,7.56l-.82-.36a49.67,49.67,0,0,1-29.18-44.59c0-1.83-.13-3.66-.26-5.51C216.4,48.44,173,4.61,119.19.35A110.38,110.38,0,0,0,.36,119.24c4.27,53.67,47.94,97,101.63,101a109.86,109.86,0,0,0,80.53-26.75A48.68,48.68,0,0,1,234.33,186c17.57,7.86,28.6,25.27,29,44.52a111.57,111.57,0,0,0,.85,11.58c6.22,50,46.67,89.86,96.7,95.47A110.38,110.38,0,0,0,483.83,228.06v-.29A44.3,44.3,0,0,1,510,187.28l5.86-2.62c15.59-7,34.09-4.57,46.69,7a110.69,110.69,0,0,0,27.84,18.57l.32.16c1.14.53,2.3,1,3.46,1.52.43.18.85.37,1.28.54.91.37,1.84.72,2.76,1.07.7.27,1.41.53,2.12.78s1.43.49,2.15.73c.93.31,1.87.61,2.81.89l1.69.49c1.11.31,2.23.61,3.35.89l1.35.33c1.23.29,2.47.56,3.71.8l1.21.23c1.28.24,2.56.46,3.85.65q.63.1,1.26.18,1.85.26,3.72.45l1.62.16c.5,0,1,.11,1.51.14s1,.05,1.57.08c.93.05,1.87.1,2.81.13s1.73.05,2.59.06c.45,0,.89,0,1.34,0,.6,0,1.19,0,1.79,0s1.47,0,2.2-.05q1.71-.06,3.42-.18l1.89-.13c1.31-.11,2.6-.25,3.9-.41l1.35-.15a109.46,109.46,0,0,0,15.77-3.29l.25-.07c1.61-.47,3.21-1,4.78-1.51l.62-.22c1.46-.5,2.91-1,4.34-1.6l.69-.28q2.13-.85,4.21-1.8l.62-.28c1.43-.66,2.85-1.34,4.25-2.06l.41-.21c1.52-.79,3-1.6,4.48-2.45l0,0a110.84,110.84,0,0,0,16.8-11.9A49.15,49.15,0,0,1,760.94,186c17.57,7.86,28.6,25.27,29,44.52a111.57,111.57,0,0,0,.85,11.58c.12,1,.33,1.86.47,2.8s.35,2.14.54,3.2q.7,3.88,1.7,7.66c.06.26.13.52.2.78a110.77,110.77,0,0,0,63.84,73.12l.45.19q2.49,1,5,1.95c1.44.53,2.89,1,4.36,1.48,1.2.37,2.39.73,3.6,1.06q3,.83,6.06,1.49l2.61.51c2.4.46,4.82.85,7.27,1.14.19,0,.37.07.56.09.57.06,1.13.09,1.69.14s1.38.16,2.07.21l1.11.06c1.15.08,2.29.13,3.43.18,1,0,1.92.07,2.88.08s2.14,0,3.2,0,2,0,3-.07,2-.11,3-.18,2.12-.15,3.17-.25,1.8-.2,2.69-.32c1.12-.13,2.24-.27,3.34-.44.81-.12,1.61-.27,2.41-.42,1.18-.2,2.35-.41,3.51-.66.71-.15,1.4-.32,2.1-.48,1.24-.29,2.48-.58,3.71-.91l1.75-.5c1.31-.38,2.63-.76,3.93-1.19l1.34-.47c1.41-.48,2.82-1,4.2-1.51l.86-.35c1.53-.61,3.05-1.24,4.55-1.92l.24-.12a110.33,110.33,0,0,0,64.76-100.76,44.32,44.32,0,0,1,26.21-40.43l5.86-2.62c15.59-7,34.09-4.57,46.69,7a109.85,109.85,0,0,0,74.32,28.89c27.4,0,52-10.63,71.8-26.66,13.25-10.74,35.55-33.56,38.31-82.95C1273.69,109.77,1273.77,108.72,1273.74,107.76Z"/><circle class="b" cx="110.26" cy="108.61" r="81.47" transform="translate(-6.93 209.7) rotate(-85.35)"/><path d="M158.37,73l-11.83,5.92-2.65-5.29,11.83-5.92Z"/><path d="M155.72,120.34l-11.83-5.91,2.65-5.29,11.83,5.91Z"/><path d="M148.17,91.07h12V97h-12Z"/><path d="M63.71,67.72l11.83,5.92L72.9,78.93,61.07,73Z"/><path d="M63.71,120.34l-2.64-5.29,11.83-5.92,2.64,5.29Z"/><path d="M59.23,91.07h12V97h-12Z"/><path d="M100.84,156.54h17.75v5.92H100.84Z"/><path d="M142.25,94A32.54,32.54,0,1,0,94.93,123v9.51H89v5.92h5.92v12.23h29.58V138.4h5.91v-5.92h-5.91V123A32.54,32.54,0,0,0,142.25,94Zm-23.66,50.68H100.84V138.4h17.75ZM106.76,100a3,3,0,1,1,3,3A3,3,0,0,1,106.76,100Zm5.91,32.53V108.31a8.88,8.88,0,1,0-5.91,0v24.17h-5.92V119.17l-1.77-.78a26.63,26.63,0,1,1,21.29,0l-1.77.78v13.31Z"/><circle class="b" cx="902.21" cy="226.58" r="81.47"/><path d="M902.19,210.08A14.91,14.91,0,1,0,917.09,225,14.93,14.93,0,0,0,902.19,210.08Zm0,23.85a8.94,8.94,0,1,1,8.94-8.94A9,9,0,0,1,902.19,233.93Z"/><path d="M902.19,229.21,898,225l4.22-4.22L906.4,225Z"/><path d="M928.84,244.25a86.36,86.36,0,0,0-.84-17.89c-2.26-14.91-8.4-29.11-18.22-42.21L902.19,174l-7.6,10.13c-9.82,13.1-16,27.3-18.22,42.21a86.36,86.36,0,0,0-.84,17.89,29.17,29.17,0,0,0-12.1,23.64v8l6.19-4.54a26.74,26.74,0,0,1,10.27-4.05c1.12,3.52,2,5.53,3.09,8.6,2-1.32,6.7-7.16,16.23-8.3v8.27h6V267.6c9.56,1.15,14.27,7,16.22,8.3,1.14-3.09,2-5.08,3.1-8.6a26.76,26.76,0,0,1,10.26,4.05l6.19,4.54v-8A29.16,29.16,0,0,0,928.84,244.25Zm-59.2,20.2a23.06,23.06,0,0,1,6.6-13,92.56,92.56,0,0,0,2,10.11A33,33,0,0,0,869.64,264.45Zm49,1.71a31,31,0,0,0-13.42-4.55V246.06h-6v15.55a30.88,30.88,0,0,0-13.41,4.55c-8.9-27.11-4.14-54.82,13.57-78.44l2.83-3.76,2.82,3.76C922.72,211.34,927.48,239.05,918.59,266.16Zm7.55-4.62a90.25,90.25,0,0,0,2-10.11,23.06,23.06,0,0,1,6.6,13A32.87,32.87,0,0,0,926.14,261.54Z"/><path d="M851.31,198.16h18.08v6H851.31Z"/><path d="M935,198.16h18.09v6H935Z"/><path d="M857.51,177l16.22,7.56-2.52,5.4L855,182.42Z"/><path d="M946.86,225.26l-16.21-7.56,2.52-5.4,16.21,7.56Z"/><path d="M855,219.86l16.21-7.56,2.52,5.4-16.21,7.56Z"/><path d="M946.86,177l2.52,5.4L933.17,190l-2.52-5.4Z"/><circle class="b" cx="636.91" cy="108.61" r="81.47" transform="translate(426.62 719.54) rotate(-80.68)"/><path d="M688.12,151.45h-5.9V108.26l5.9,5.89V80.51H654.47L665,91.08l-10.18,10.19-22.81-17-38.64,27.47v-55h-5.9v100.6H688.12ZM629,108.2v43.25H611.29V120.78Zm5.9.28,17.88,13.31v29.66H634.87Zm23.77,14,17.69-17.68v46.64H658.64ZM632,91.59,655.43,109l18-18-4.67-4.67h13.51V99.92l-4.67-4.67L656,116.83,631.87,98.91l-38.46,27.35V119Zm-38.56,41.9,12-8.52v26.48h-12Z"/><circle class="b" cx="1163.55" cy="108.61" r="81.47" transform="translate(867.98 1239.22) rotate(-80.68)"/><path d="M1157.44,80.52a9.13,9.13,0,0,0-1.92-14.69l6.61-13.67h-34.05l6.61,13.67a9.12,9.12,0,0,0-1.91,14.69c-16.44,12.58-21.15,32.5-21.15,53.19V150h54.78V156h49.1V95.17h-45.36A48.33,48.33,0,0,0,1157.44,80.52ZM1139,76.91a3,3,0,0,1,0-6.09h12.17a3,3,0,1,1,0,6.09Zm13.41-18.67-3.15,6.5h-8.35l-3.14-6.5Zm-34.72,85.63V133.71c0-24.79,7.26-41.39,22.17-50.71h10.46a41.92,41.92,0,0,1,16.07,18.18v42.69Zm91.71,6.08H1172.5V137.78h36.92Zm-36.92-18.26V119.52h36.92v12.17Zm36.92-30.43v12.17H1172.5V101.26Z"/><path d="M1145.11,110.39a3,3,0,0,1,3,3h6.09a9.14,9.14,0,0,0-6.09-8.6v-3.57h-6.09v3.57a9.13,9.13,0,0,0,3,17.73,3,3,0,1,1-3,3H1136a9.13,9.13,0,0,0,6.08,8.6v3.57h6.09v-3.57a9.12,9.12,0,0,0-3-17.73,3,3,0,1,1,0-6.09Z"/><circle class="b" cx="373.59" cy="227.41" r="81.47"/><path d="M406.94,197.17l5.19-5.19,4.67,4.68,4.68-4.68-14-14-4.68,4.67,4.68,4.68-5.63,5.62a49,49,0,0,0-19.05-8.34v-7.82h6.61v-6.62H356.32v6.62h6.61v7.82a49.09,49.09,0,0,0-19.05,8.34l-5.63-5.62,4.68-4.68L338.25,178l-14,14,4.67,4.68,4.68-4.68,5.19,5.19a49.6,49.6,0,1,0,68.17,0Zm-37.39-20.4h6.61v6.94c-1.1-.07-2.2-.11-3.31-.11s-2.21,0-3.3.11Zm3.3,99.62a43.09,43.09,0,1,1,43-43.2A43.14,43.14,0,0,1,372.85,276.39Z"/><path d="M376.16,223.84v-27h-6.61v27a9.92,9.92,0,1,0,6.61,0Zm-3.31,12.66a3.31,3.31,0,1,1,3.31-3.31A3.31,3.31,0,0,1,372.85,236.5Z"/><path d="M369.55,263h6.61v6.61h-6.61Z"/><path d="M336.48,229.89h6.62v6.61h-6.62Z"/><path d="M402.61,229.89h6.61v6.61h-6.61Z"/><path d="M349.47,261.25l-4.67-4.68,4.67-4.67,4.68,4.67Z"/><path d="M396.23,214.49l-4.67-4.67,4.67-4.68,4.68,4.68Z"/><path d="M396.23,261.25l-4.68-4.68,4.68-4.67,4.68,4.67Z"/><path d="M349.47,214.49l-4.67-4.67,4.67-4.68,4.68,4.68Z"/></svg>